<svg width="32" height="32" viewBox="0 0 32 32" fill="none" xmlns="http://www.w3.org/2000/svg">
<path d="M11.6249 11.808C11.3408 9.07705 11.9731 6.32774 13.4303 4C8.55482 5.78705 5.52142 10.6533 6.06212 15.822C6.71279 22.0538 12.2572 26.5809 18.4615 25.9394C20.9542 25.6828 23.2911 24.5923 25.0965 22.8419C18.3515 23.5201 12.3214 18.5896 11.6249 11.8172V11.808Z" fill="url(#paint0_linear_521_717)"/>
<g filter="url(#filter0_d_521_717)">
<path d="M2 13.4706C2 12.3213 2.76071 11.3326 3.8159 11.0365C3.80117 10.891 3.79136 10.7454 3.79136 10.5999C3.79136 8.3967 5.54836 6.60001 7.7078 6.60001C9.19487 6.60001 10.5592 7.48831 11.2169 8.84336C11.4721 8.75804 11.7371 8.71789 12.0169 8.71789C12.7874 8.71789 13.5089 9.06418 13.9996 9.65639C14.4413 9.39541 14.9518 9.25489 15.4622 9.25489C16.9247 9.25489 18.1418 10.3439 18.3676 11.7843C18.4265 11.7893 19.9626 11.7994 20.0215 11.8094C20.9933 11.98 21.7344 12.8483 21.7344 13.8871C21.7344 14.926 20.9344 15.8595 19.9087 15.985C19.8301 15.995 18.2793 16 18.1958 16H4.46864C3.10917 16 2 14.8708 2 13.4756V13.4706Z" fill="url(#paint1_linear_521_717)"/>
</g>
<defs>
<filter id="filter0_d_521_717" x="1.7" y="6.40001" width="20.5344" height="10.2" filterUnits="userSpaceOnUse" color-interpolation-filters="sRGB">
<feFlood flood-opacity="0" result="BackgroundImageFix"/>
<feColorMatrix in="SourceAlpha" type="matrix" values="0 0 0 0 0 0 0 0 0 0 0 0 0 0 0 0 0 0 127 0" result="hardAlpha"/>
<feOffset dx="0.1" dy="0.2"/>
<feGaussianBlur stdDeviation="0.2"/>
<feComposite in2="hardAlpha" operator="out"/>
<feColorMatrix type="matrix" values="0 0 0 0 0 0 0 0 0 0 0 0 0 0 0 0 0 0 0.05 0"/>
<feBlend mode="normal" in2="BackgroundImageFix" result="effect1_dropShadow_521_717"/>
<feBlend mode="normal" in="SourceGraphic" in2="effect1_dropShadow_521_717" result="shape"/>
</filter>
<linearGradient id="paint0_linear_521_717" x1="15.3196" y1="9.28783" x2="15.3196" y2="25.1238" gradientUnits="userSpaceOnUse">
<stop stop-color="#6A769A"/>
<stop offset="1" stop-color="#586587"/>
</linearGradient>
<linearGradient id="paint1_linear_521_717" x1="27" y1="27.3" x2="2" y2="3.3" gradientUnits="userSpaceOnUse">
<stop offset="0.0573981" stop-color="white"/>
<stop offset="0.533473" stop-color="#F5F5F5"/>
<stop offset="1" stop-color="#A1A6B3"/>
</linearGradient>
</defs>
</svg>
