<svg width="32" height="32" viewBox="0 0 32 32" fill="none" xmlns="http://www.w3.org/2000/svg">
<path d="M21.4383 7.86564C21.2445 5.95396 21.6759 4.02944 22.6702 2.40002C19.3434 3.65096 17.2735 7.05734 17.6425 10.6754C18.0865 15.0377 21.8698 18.2067 26.1034 17.7576C27.8043 17.578 29.3989 16.8146 30.6309 15.5893C26.0283 16.0641 21.9136 12.6128 21.4383 7.87205V7.86564Z" fill="url(#paint0_linear_521_890)"/>
<g filter="url(#filter0_d_521_890)">
<path d="M17.0589 12.9136C17.8104 12.5037 18.6497 12.2792 19.4988 12.2792C22.0753 12.2792 24.2224 14.2311 24.4956 16.7783C26.7989 16.144 29.19 17.481 29.8438 19.794C29.9414 20.1747 30 20.565 30 20.9554C30 23.3563 28.0774 25.2887 25.6765 25.2984C25.13 25.2984 24.5932 25.2008 24.0857 24.9959C23.4026 25.4936 22.5047 25.7962 21.5092 25.7962C20.4064 25.7962 19.4207 25.4253 18.7278 24.8397C17.2346 25.435 15.2339 25.7962 13.0185 25.7962C10.8031 25.7962 8.84141 25.435 7.35796 24.8592C6.80167 25.2106 6.15755 25.3862 5.51342 25.3862C3.56152 25.3862 2 23.8052 2 21.8728C2 20.7993 2.47822 19.8331 3.2297 19.1792C2.82956 18.3984 3.14186 17.4322 3.93238 17.0321C4.07877 16.9638 4.22517 16.9052 4.38132 16.8857C4.313 16.5051 4.28372 16.1147 4.28372 15.7243C4.28372 12.0157 7.28965 9 10.9885 9C13.6138 9 15.9854 10.5322 17.0687 12.9233L17.0589 12.9136Z" fill="url(#paint1_linear_521_890)"/>
</g>
<path d="M13.8438 26.2364H12.0061L13.3052 27.5355C13.5164 27.7361 13.527 28.0635 13.3263 28.2642C13.3263 28.2642 13.3157 28.2748 13.3052 28.2853C13.0939 28.4966 12.6609 28.3909 12.5447 28.2853L11.2457 26.9863V28.824C11.2457 29.1302 10.9922 29.3732 10.6859 29.3626C10.3797 29.3626 10.1367 29.1197 10.1262 28.824V26.9863L8.82713 28.2853C8.56309 28.581 8.18288 28.3909 8.07727 28.2853C7.97165 28.1797 7.86604 27.7361 8.07727 27.5249L9.37632 26.2258H7.53863C7.24291 26.2258 7 25.9618 7 25.6661C7 25.3704 7.24291 25.1063 7.53863 25.1063H9.37632L8.07727 23.8073C7.86604 23.5961 7.86604 23.2687 8.07727 23.0574C8.28849 22.8462 8.6159 22.8462 8.82713 23.0574L10.1262 24.3565V22.5294C10.1579 22.2231 10.4219 21.9802 10.7282 22.0013C11.0133 22.0224 11.2351 22.2442 11.2563 22.5294V24.367L12.5553 23.068C12.7665 22.8568 13.1045 22.8568 13.3157 23.068C13.527 23.2792 13.527 23.6172 13.3157 23.8284L12.0167 25.1275H13.8544C14.1606 25.1275 14.393 25.3704 14.393 25.6661V25.6978C14.393 25.9935 14.1501 26.2364 13.8544 26.2364H13.8438Z" fill="url(#paint2_linear_521_890)"/>
<path fill-rule="evenodd" clip-rule="evenodd" d="M19.0379 29.4363C17.8935 28.9237 17.3292 27.7358 17.7784 26.7773C18.2258 25.8235 22.5645 20.8836 22.9203 21.0093C23.276 21.135 22.3737 27.6773 21.9243 28.6336C21.4774 29.5918 20.1851 29.9532 19.0379 29.4363Z" fill="url(#paint3_linear_521_890)"/>
<defs>
<filter id="filter0_d_521_890" x="1.8" y="8.4" width="28.8" height="17.5961" filterUnits="userSpaceOnUse" color-interpolation-filters="sRGB">
<feFlood flood-opacity="0" result="BackgroundImageFix"/>
<feColorMatrix in="SourceAlpha" type="matrix" values="0 0 0 0 0 0 0 0 0 0 0 0 0 0 0 0 0 0 127 0" result="hardAlpha"/>
<feOffset dx="0.2" dy="-0.2"/>
<feGaussianBlur stdDeviation="0.2"/>
<feComposite in2="hardAlpha" operator="out"/>
<feColorMatrix type="matrix" values="0 0 0 0 0 0 0 0 0 0 0 0 0 0 0 0 0 0 0.05 0"/>
<feBlend mode="normal" in2="BackgroundImageFix" result="effect1_dropShadow_521_890"/>
<feBlend mode="normal" in="SourceGraphic" in2="effect1_dropShadow_521_890" result="shape"/>
</filter>
<linearGradient id="paint0_linear_521_890" x1="23.9595" y1="6.1015" x2="23.9595" y2="17.1867" gradientUnits="userSpaceOnUse">
<stop stop-color="#6A769A"/>
<stop offset="1" stop-color="#586587"/>
</linearGradient>
<linearGradient id="paint1_linear_521_890" x1="20.3479" y1="12.084" x2="11.6814" y2="28.1579" gradientUnits="userSpaceOnUse">
<stop stop-color="white"/>
<stop offset="1" stop-color="#8F95A3"/>
</linearGradient>
<linearGradient id="paint2_linear_521_890" x1="10.6739" y1="24.6121" x2="10.6739" y2="29.6987" gradientUnits="userSpaceOnUse">
<stop offset="0.260417" stop-color="#4ACCFF"/>
<stop offset="0.723958" stop-color="#18A2D9"/>
</linearGradient>
<linearGradient id="paint3_linear_521_890" x1="19.2729" y1="24.3302" x2="16.385" y2="27.3952" gradientUnits="userSpaceOnUse">
<stop stop-color="#3794FA"/>
<stop offset="0.999604" stop-color="#83BEFF"/>
</linearGradient>
</defs>
</svg>
