<svg width="32" height="32" viewBox="0 0 32 32" fill="none" xmlns="http://www.w3.org/2000/svg">
<path d="M21.4383 7.86564C21.2445 5.95396 21.6759 4.02944 22.6702 2.40002C19.3434 3.65096 17.2735 7.05734 17.6425 10.6754C18.0865 15.0377 21.8698 18.2067 26.1034 17.7576C27.8043 17.578 29.3989 16.8146 30.6309 15.5893C26.0283 16.0641 21.9136 12.6128 21.4383 7.87205V7.86564Z" fill="url(#paint0_linear_521_914)"/>
<g filter="url(#filter0_d_521_914)">
<path d="M17.0589 12.9136C17.8104 12.5037 18.6497 12.2792 19.4988 12.2792C22.0753 12.2792 24.2224 14.2311 24.4956 16.7783C26.7989 16.144 29.19 17.481 29.8438 19.794C29.9414 20.1747 30 20.565 30 20.9554C30 23.3563 28.0774 25.2887 25.6765 25.2984C25.13 25.2984 24.5932 25.2008 24.0857 24.9959C23.4026 25.4936 22.5047 25.7962 21.5092 25.7962C20.4064 25.7962 19.4207 25.4253 18.7278 24.8397C17.2346 25.435 15.2339 25.7962 13.0185 25.7962C10.8031 25.7962 8.84141 25.435 7.35796 24.8592C6.80167 25.2106 6.15755 25.3862 5.51342 25.3862C3.56152 25.3862 2 23.8052 2 21.8728C2 20.7993 2.47822 19.8331 3.2297 19.1792C2.82956 18.3984 3.14186 17.4322 3.93238 17.0321C4.07877 16.9638 4.22517 16.9052 4.38132 16.8857C4.313 16.5051 4.28372 16.1147 4.28372 15.7243C4.28372 12.0157 7.28965 9 10.9885 9C13.6138 9 15.9854 10.5322 17.0687 12.9233L17.0589 12.9136Z" fill="url(#paint1_linear_521_914)"/>
</g>
<path d="M12.8438 26.2364H11.0061L12.3052 27.5355C12.5164 27.7361 12.527 28.0635 12.3263 28.2642C12.3263 28.2642 12.3157 28.2748 12.3052 28.2853C12.0939 28.4966 11.6609 28.3909 11.5447 28.2853L10.2457 26.9863V28.824C10.2457 29.1302 9.99222 29.3732 9.68594 29.3626C9.37966 29.3626 9.13674 29.1197 9.12618 28.824V26.9863L7.82713 28.2853C7.56309 28.581 7.18288 28.3909 7.07727 28.2853C6.97165 28.1797 6.86604 27.7361 7.07727 27.5249L8.37632 26.2259H6.53863C6.24291 26.2259 6 25.9618 6 25.6661C6 25.3704 6.24291 25.1063 6.53863 25.1063H8.37632L7.07727 23.8073C6.86604 23.5961 6.86604 23.2687 7.07727 23.0574C7.28849 22.8462 7.6159 22.8462 7.82713 23.0574L9.12618 24.3565V22.5294C9.15787 22.2231 9.4219 21.9802 9.72818 22.0013C10.0133 22.0224 10.2351 22.2442 10.2563 22.5294V24.367L11.5553 23.068C11.7665 22.8568 12.1045 22.8568 12.3157 23.068C12.527 23.2792 12.527 23.6172 12.3157 23.8284L11.0167 25.1275H12.8544C13.1606 25.1275 13.393 25.3704 13.393 25.6661V25.6978C13.393 25.9935 13.1501 26.2364 12.8544 26.2364H12.8438ZM24.4614 26.2364H22.6237L23.9227 27.5355C24.134 27.7361 24.1445 28.0635 23.9439 28.2642C23.9439 28.2642 23.9333 28.2748 23.9227 28.2853C23.7115 28.4966 23.2785 28.3909 23.1623 28.2853L21.8633 26.9863V28.824C21.8633 29.1302 21.6098 29.3732 21.3035 29.3626C20.9972 29.3626 20.7543 29.1197 20.7437 28.824V26.9863L19.4447 28.2853C19.1807 28.581 18.8004 28.3909 18.6948 28.2853C18.5892 28.1797 18.4836 27.7361 18.6948 27.5249L19.9939 26.2259H18.1562C17.8605 26.2259 17.607 25.9618 17.607 25.6661C17.607 25.3704 17.8499 25.1063 18.1562 25.1063H19.9939L18.6948 23.8073C18.4836 23.5961 18.4836 23.2687 18.6948 23.0574C18.9061 22.8462 19.2335 22.8462 19.4447 23.0574L20.7437 24.3565V22.5294C20.7649 22.2231 21.0289 21.9802 21.3352 22.0013C21.6203 22.0224 21.8421 22.2442 21.8633 22.5294V24.367L23.1623 23.068C23.3735 22.8568 23.7115 22.8568 23.9227 23.068C24.134 23.2792 24.134 23.6172 23.9227 23.8284L22.6237 25.1275H24.4614C24.7676 25.1275 25 25.3704 25 25.6661V25.6978C25 25.9935 24.7571 26.2364 24.4614 26.2364Z" fill="url(#paint2_linear_521_914)"/>
<defs>
<filter id="filter0_d_521_914" x="1.8" y="8.4" width="28.8" height="17.5961" filterUnits="userSpaceOnUse" color-interpolation-filters="sRGB">
<feFlood flood-opacity="0" result="BackgroundImageFix"/>
<feColorMatrix in="SourceAlpha" type="matrix" values="0 0 0 0 0 0 0 0 0 0 0 0 0 0 0 0 0 0 127 0" result="hardAlpha"/>
<feOffset dx="0.2" dy="-0.2"/>
<feGaussianBlur stdDeviation="0.2"/>
<feComposite in2="hardAlpha" operator="out"/>
<feColorMatrix type="matrix" values="0 0 0 0 0 0 0 0 0 0 0 0 0 0 0 0 0 0 0.05 0"/>
<feBlend mode="normal" in2="BackgroundImageFix" result="effect1_dropShadow_521_914"/>
<feBlend mode="normal" in="SourceGraphic" in2="effect1_dropShadow_521_914" result="shape"/>
</filter>
<linearGradient id="paint0_linear_521_914" x1="23.9595" y1="6.1015" x2="23.9595" y2="17.1867" gradientUnits="userSpaceOnUse">
<stop stop-color="#6A769A"/>
<stop offset="1" stop-color="#586587"/>
</linearGradient>
<linearGradient id="paint1_linear_521_914" x1="20.3479" y1="12.084" x2="11.6814" y2="28.1579" gradientUnits="userSpaceOnUse">
<stop stop-color="white"/>
<stop offset="1" stop-color="#8F95A3"/>
</linearGradient>
<linearGradient id="paint2_linear_521_914" x1="15.5" y1="22" x2="15.5" y2="29.3629" gradientUnits="userSpaceOnUse">
<stop offset="0.46875" stop-color="#D9A04B"/>
<stop offset="0.973958" stop-color="#9C7649"/>
</linearGradient>
</defs>
</svg>
