<svg width="32" height="32" viewBox="0 0 32 32" fill="none" xmlns="http://www.w3.org/2000/svg">
<path d="M11.6249 11.808C11.3408 9.07705 11.9731 6.32774 13.4303 4C8.55482 5.78705 5.52142 10.6533 6.06212 15.822C6.71279 22.0538 12.2572 26.5809 18.4615 25.9394C20.9542 25.6828 23.2911 24.5923 25.0965 22.8419C18.3515 23.5201 12.3214 18.5896 11.6249 11.8172V11.808Z" fill="url(#paint0_linear_521_721)"/>
<g filter="url(#filter0_d_521_721)">
<path d="M20.7505 14.3887C21.2896 14.093 21.8816 13.9345 22.4947 13.9345C24.334 13.9345 25.8668 15.3289 26.0677 17.1458C27.7167 16.6915 29.4186 17.6528 29.8837 19.3007C29.9577 19.5753 30 19.85 30 20.1352C30 21.8465 28.6258 23.2303 26.9133 23.2408C26.5222 23.2408 26.1416 23.1669 25.7822 23.0296C25.296 23.3781 24.6512 23.6 23.9429 23.6C23.1607 23.6 22.4524 23.3359 21.9556 22.9239C20.8879 23.3465 19.4609 23.6 17.8753 23.6C16.2896 23.6 14.8943 23.3465 13.8372 22.9239C13.4355 23.1669 12.981 23.3042 12.5159 23.3042C11.1205 23.3042 10 22.1739 10 20.7901C10 20.019 10.3488 19.3324 10.8774 18.8676C10.592 18.3077 10.814 17.6211 11.3848 17.3359C11.4905 17.2831 11.5962 17.2514 11.7019 17.2303C11.649 16.9556 11.6279 16.681 11.6279 16.3958C11.6279 13.7444 13.7738 11.6 16.4165 11.6C18.2875 11.6 19.9894 12.6986 20.7611 14.3993L20.7505 14.3887Z" fill="url(#paint1_linear_521_721)"/>
</g>
<defs>
<filter id="filter0_d_521_721" x="9.4" y="11" width="20.8" height="12.8" filterUnits="userSpaceOnUse" color-interpolation-filters="sRGB">
<feFlood flood-opacity="0" result="BackgroundImageFix"/>
<feColorMatrix in="SourceAlpha" type="matrix" values="0 0 0 0 0 0 0 0 0 0 0 0 0 0 0 0 0 0 127 0" result="hardAlpha"/>
<feOffset dx="-0.2" dy="-0.2"/>
<feGaussianBlur stdDeviation="0.2"/>
<feComposite in2="hardAlpha" operator="out"/>
<feColorMatrix type="matrix" values="0 0 0 0 0 0 0 0 0 0 0 0 0 0 0 0 0 0 0.05 0"/>
<feBlend mode="normal" in2="BackgroundImageFix" result="effect1_dropShadow_521_721"/>
<feBlend mode="normal" in="SourceGraphic" in2="effect1_dropShadow_521_721" result="shape"/>
</filter>
<linearGradient id="paint0_linear_521_721" x1="15.3196" y1="9.28783" x2="15.3196" y2="25.1238" gradientUnits="userSpaceOnUse">
<stop stop-color="#6A769A"/>
<stop offset="1" stop-color="#586587"/>
</linearGradient>
<linearGradient id="paint1_linear_521_721" x1="9.52002" y1="7.20001" x2="29.52" y2="29.7" gradientUnits="userSpaceOnUse">
<stop stop-color="white"/>
<stop offset="0.390625" stop-color="#F5F5F5"/>
<stop offset="0.970616" stop-color="#8F95A3"/>
</linearGradient>
</defs>
</svg>
