<svg width="32" height="32" viewBox="0 0 32 32" fill="none" xmlns="http://www.w3.org/2000/svg">
<path d="M21.4383 7.86564C21.2445 5.95396 21.6759 4.02944 22.6702 2.40002C19.3434 3.65096 17.2735 7.05734 17.6425 10.6754C18.0865 15.0377 21.8698 18.2067 26.1034 17.7576C27.8043 17.578 29.3989 16.8146 30.6309 15.5893C26.0283 16.0641 21.9136 12.6128 21.4383 7.87205V7.86564Z" fill="url(#paint0_linear_521_930)"/>
<g filter="url(#filter0_d_521_930)">
<path d="M17.0589 12.9136C17.8104 12.5037 18.6497 12.2792 19.4988 12.2792C22.0753 12.2792 24.2224 14.2311 24.4956 16.7783C26.7989 16.144 29.19 17.481 29.8438 19.794C29.9414 20.1747 30 20.565 30 20.9554C30 23.3563 28.0774 25.2887 25.6765 25.2984C25.13 25.2984 24.5932 25.2008 24.0857 24.9959C23.4026 25.4936 22.5047 25.7962 21.5092 25.7962C20.4064 25.7962 19.4207 25.4253 18.7278 24.8397C17.2346 25.435 15.2339 25.7962 13.0185 25.7962C10.8031 25.7962 8.84141 25.435 7.35796 24.8592C6.80167 25.2106 6.15755 25.3862 5.51342 25.3862C3.56152 25.3862 2 23.8052 2 21.8728C2 20.7993 2.47822 19.8331 3.2297 19.1792C2.82956 18.3984 3.14186 17.4322 3.93238 17.0321C4.07877 16.9638 4.22517 16.9052 4.38132 16.8857C4.313 16.5051 4.28372 16.1147 4.28372 15.7243C4.28372 12.0157 7.28965 9 10.9885 9C13.6138 9 15.9854 10.5322 17.0687 12.9233L17.0589 12.9136Z" fill="url(#paint1_linear_521_930)"/>
</g>
<path d="M9.8438 26.2364H8.00611L9.30517 27.5355C9.5164 27.7361 9.52696 28.0635 9.32629 28.2642C9.32629 28.2642 9.31573 28.2748 9.30517 28.2853C9.09394 28.4966 8.66092 28.3909 8.54475 28.2853L7.24569 26.9863V28.824C7.24569 29.1302 6.99222 29.3732 6.68594 29.3626C6.37966 29.3626 6.13674 29.1197 6.12618 28.824V26.9863L4.82713 28.2853C4.56309 28.581 4.18288 28.3909 4.07727 28.2853C3.97165 28.1797 3.86604 27.7361 4.07727 27.5249L5.37632 26.2258H3.53863C3.24291 26.2258 3 25.9618 3 25.6661C3 25.3704 3.24291 25.1063 3.53863 25.1063H5.37632L4.07727 23.8073C3.86604 23.5961 3.86604 23.2687 4.07727 23.0574C4.28849 22.8462 4.6159 22.8462 4.82713 23.0574L6.12618 24.3565V22.5294C6.15787 22.2231 6.4219 21.9802 6.72818 22.0013C7.01334 22.0224 7.23513 22.2442 7.25625 22.5294V24.367L8.55531 23.068C8.76654 22.8568 9.1045 22.8568 9.31573 23.068C9.52696 23.2792 9.52696 23.6172 9.31573 23.8284L8.01668 25.1275H9.85436C10.1606 25.1275 10.393 25.3704 10.393 25.6661V25.6978C10.393 25.9935 10.1501 26.2364 9.85436 26.2364H9.8438Z" fill="url(#paint2_linear_521_930)"/>
<path fill-rule="evenodd" clip-rule="evenodd" d="M13.6851 29.3457C12.5798 28.8366 12.0325 27.6618 12.4635 26.7161C12.8928 25.7751 17.0666 20.9063 17.4101 21.0313C17.7536 21.1563 16.8991 27.6164 16.4678 28.5598C16.039 29.5052 14.7932 29.859 13.6851 29.3457Z" fill="url(#paint3_linear_521_930)"/>
<path d="M26.8438 26.2364H25.0061L26.3052 27.5355C26.5164 27.7361 26.527 28.0635 26.3263 28.2642C26.3263 28.2642 26.3157 28.2748 26.3052 28.2853C26.0939 28.4966 25.6609 28.3909 25.5447 28.2853L24.2457 26.9863V28.824C24.2457 29.1302 23.9922 29.3732 23.6859 29.3626C23.3797 29.3626 23.1367 29.1197 23.1262 28.824V26.9863L21.8271 28.2853C21.5631 28.581 21.1829 28.3909 21.0773 28.2853C20.9717 28.1797 20.866 27.7361 21.0773 27.5249L22.3763 26.2258H20.5386C20.2429 26.2258 20 25.9618 20 25.6661C20 25.3704 20.2429 25.1063 20.5386 25.1063H22.3763L21.0773 23.8073C20.866 23.5961 20.866 23.2687 21.0773 23.0574C21.2885 22.8462 21.6159 22.8462 21.8271 23.0574L23.1262 24.3565V22.5294C23.1579 22.2231 23.4219 21.9802 23.7282 22.0013C24.0133 22.0224 24.2351 22.2442 24.2563 22.5294V24.367L25.5553 23.068C25.7665 22.8568 26.1045 22.8568 26.3157 23.068C26.527 23.2792 26.527 23.6172 26.3157 23.8284L25.0167 25.1275H26.8544C27.1606 25.1275 27.393 25.3704 27.393 25.6661V25.6978C27.393 25.9935 27.1501 26.2364 26.8544 26.2364H26.8438Z" fill="url(#paint4_linear_521_930)"/>
<defs>
<filter id="filter0_d_521_930" x="1.8" y="8.4" width="28.8" height="17.5961" filterUnits="userSpaceOnUse" color-interpolation-filters="sRGB">
<feFlood flood-opacity="0" result="BackgroundImageFix"/>
<feColorMatrix in="SourceAlpha" type="matrix" values="0 0 0 0 0 0 0 0 0 0 0 0 0 0 0 0 0 0 127 0" result="hardAlpha"/>
<feOffset dx="0.2" dy="-0.2"/>
<feGaussianBlur stdDeviation="0.2"/>
<feComposite in2="hardAlpha" operator="out"/>
<feColorMatrix type="matrix" values="0 0 0 0 0 0 0 0 0 0 0 0 0 0 0 0 0 0 0.05 0"/>
<feBlend mode="normal" in2="BackgroundImageFix" result="effect1_dropShadow_521_930"/>
<feBlend mode="normal" in="SourceGraphic" in2="effect1_dropShadow_521_930" result="shape"/>
</filter>
<linearGradient id="paint0_linear_521_930" x1="23.9595" y1="6.1015" x2="23.9595" y2="17.1867" gradientUnits="userSpaceOnUse">
<stop stop-color="#6A769A"/>
<stop offset="1" stop-color="#586587"/>
</linearGradient>
<linearGradient id="paint1_linear_521_930" x1="20.3479" y1="12.084" x2="11.6814" y2="28.1579" gradientUnits="userSpaceOnUse">
<stop stop-color="white"/>
<stop offset="1" stop-color="#8F95A3"/>
</linearGradient>
<linearGradient id="paint2_linear_521_930" x1="6.6739" y1="24.6121" x2="6.6739" y2="29.6987" gradientUnits="userSpaceOnUse">
<stop offset="0.260417" stop-color="#4ACCFF"/>
<stop offset="0.723958" stop-color="#18A2D9"/>
</linearGradient>
<linearGradient id="paint3_linear_521_930" x1="13.8993" y1="24.3026" x2="11.0504" y2="27.2553" gradientUnits="userSpaceOnUse">
<stop stop-color="#3794FA"/>
<stop offset="0.999604" stop-color="#83BEFF"/>
</linearGradient>
<linearGradient id="paint4_linear_521_930" x1="23.6739" y1="24.6121" x2="23.6739" y2="29.6987" gradientUnits="userSpaceOnUse">
<stop offset="0.260417" stop-color="#4ACCFF"/>
<stop offset="0.723958" stop-color="#18A2D9"/>
</linearGradient>
</defs>
</svg>
