<svg width="32" height="32" viewBox="0 0 32 32" fill="none" xmlns="http://www.w3.org/2000/svg">
<g filter="url(#filter0_d_521_934)">
<path d="M19.3757 7.52733C19.9892 7.1806 20.6827 7.00279 21.385 7.00279C23.501 7.00279 25.2613 8.60309 25.4836 10.7013C27.3773 10.1767 29.3421 11.2792 29.8666 13.1729C29.9555 13.484 30 13.8041 30 14.133C30 16.0979 28.4175 17.6982 26.4438 17.6982C25.9992 17.6982 25.5547 17.6182 25.1368 17.4492C24.5767 17.8582 23.8388 18.0982 23.0209 18.0982C22.1229 18.0982 21.3139 17.796 20.736 17.3159C19.5091 17.8049 17.8643 18.0982 16.0507 18.0982C14.237 18.0982 12.6189 17.8049 11.4009 17.3248C10.9475 17.6093 10.414 17.7604 9.8806 17.7604C8.28918 17.7604 6.99115 16.4624 7.00005 14.871C7.00005 13.9908 7.39123 13.1995 8.01357 12.6661C7.68462 12.0171 7.94245 11.2347 8.59146 10.9058C8.70704 10.8435 8.83151 10.808 8.96487 10.7813C8.91152 10.4612 8.88485 10.1412 8.88485 9.82111C8.88485 6.77163 11.3475 4.30005 14.3792 4.30005C16.5308 4.30005 18.4867 5.55362 19.3757 7.51844V7.52733Z" fill="url(#paint0_linear_521_934)"/>
</g>
<g filter="url(#filter1_d_521_934)">
<path d="M17.0589 11.9564C17.8104 11.5465 18.6497 11.322 19.4988 11.322C22.0753 11.322 24.2224 13.274 24.4956 15.8212C26.7989 15.1868 29.19 16.5239 29.8438 18.8369C29.9414 19.2175 30 19.6079 30 19.9983C30 22.3991 28.0774 24.3315 25.6765 24.3413C25.13 24.3413 24.5932 24.2437 24.0857 24.0387C23.4026 24.5365 22.5047 24.839 21.5092 24.839C20.4064 24.839 19.4207 24.4681 18.7278 23.8826C17.2346 24.4779 15.2339 24.839 13.0185 24.839C10.8031 24.839 8.84141 24.4779 7.35796 23.9021C6.80167 24.2534 6.15755 24.4291 5.51342 24.4291C3.56152 24.4291 2 22.8481 2 20.9157C2 19.8421 2.47822 18.8759 3.2297 18.222C2.82956 17.4413 3.14186 16.4751 3.93238 16.0749C4.07877 16.0066 4.22517 15.9481 4.38132 15.9285C4.313 15.5479 4.28372 15.1575 4.28372 14.7672C4.28372 11.0585 7.28965 8.04285 10.9885 8.04285C13.6138 8.04285 15.9854 9.57509 17.0687 11.9662L17.0589 11.9564Z" fill="url(#paint1_linear_521_934)"/>
</g>
<path d="M9.8438 26.2141H8.00611L9.30517 27.5132C9.5164 27.7139 9.52696 28.0413 9.32629 28.2419C9.32629 28.2419 9.31573 28.2525 9.30517 28.263C9.09394 28.4743 8.66092 28.3687 8.54475 28.263L7.24569 26.964V28.8017C7.24569 29.108 6.99222 29.3509 6.68594 29.3403C6.37966 29.3403 6.13674 29.0974 6.12618 28.8017V26.964L4.82713 28.263C4.56309 28.5588 4.18288 28.3687 4.07727 28.263C3.97165 28.1574 3.86604 27.7139 4.07727 27.5026L5.37632 26.2036H3.53863C3.24291 26.2036 3 25.9395 3 25.6438C3 25.3481 3.24291 25.0841 3.53863 25.0841H5.37632L4.07727 23.785C3.86604 23.5738 3.86604 23.2464 4.07727 23.0351C4.28849 22.8239 4.6159 22.8239 4.82713 23.0351L6.12618 24.3342V22.5071C6.15787 22.2008 6.4219 21.9579 6.72818 21.979C7.01334 22.0001 7.23513 22.2219 7.25625 22.5071V24.3448L8.55531 23.0457C8.76654 22.8345 9.1045 22.8345 9.31573 23.0457C9.52696 23.2569 9.52696 23.5949 9.31573 23.8061L8.01668 25.1052H9.85436C10.1606 25.1052 10.393 25.3481 10.393 25.6438V25.6755C10.393 25.9712 10.1501 26.2141 9.85436 26.2141H9.8438Z" fill="url(#paint2_linear_521_934)"/>
<path fill-rule="evenodd" clip-rule="evenodd" d="M13.6851 29.3234C12.5798 28.8143 12.0325 27.6395 12.4635 26.6938C12.8928 25.7529 17.0666 20.884 17.4101 21.009C17.7536 21.1341 16.8991 27.5941 16.4678 28.5375C16.039 29.483 14.7932 29.8367 13.6851 29.3234Z" fill="url(#paint3_linear_521_934)"/>
<path d="M26.8438 26.2141H25.0061L26.3052 27.5132C26.5164 27.7139 26.527 28.0413 26.3263 28.2419C26.3263 28.2419 26.3157 28.2525 26.3052 28.263C26.0939 28.4743 25.6609 28.3687 25.5447 28.263L24.2457 26.964V28.8017C24.2457 29.108 23.9922 29.3509 23.6859 29.3403C23.3797 29.3403 23.1367 29.0974 23.1262 28.8017V26.964L21.8271 28.263C21.5631 28.5588 21.1829 28.3687 21.0773 28.263C20.9717 28.1574 20.866 27.7139 21.0773 27.5026L22.3763 26.2036H20.5386C20.2429 26.2036 20 25.9395 20 25.6438C20 25.3481 20.2429 25.0841 20.5386 25.0841H22.3763L21.0773 23.785C20.866 23.5738 20.866 23.2464 21.0773 23.0351C21.2885 22.8239 21.6159 22.8239 21.8271 23.0351L23.1262 24.3342V22.5071C23.1579 22.2008 23.4219 21.9579 23.7282 21.979C24.0133 22.0001 24.2351 22.2219 24.2563 22.5071V24.3448L25.5553 23.0457C25.7665 22.8345 26.1045 22.8345 26.3157 23.0457C26.527 23.2569 26.527 23.5949 26.3157 23.8061L25.0167 25.1052H26.8544C27.1606 25.1052 27.393 25.3481 27.393 25.6438V25.6755C27.393 25.9712 27.1501 26.2141 26.8544 26.2141H26.8438Z" fill="url(#paint4_linear_521_934)"/>
<defs>
<filter id="filter0_d_521_934" x="6.80288" y="4.10293" width="23.7885" height="14.5867" filterUnits="userSpaceOnUse" color-interpolation-filters="sRGB">
<feFlood flood-opacity="0" result="BackgroundImageFix"/>
<feColorMatrix in="SourceAlpha" type="matrix" values="0 0 0 0 0 0 0 0 0 0 0 0 0 0 0 0 0 0 127 0" result="hardAlpha"/>
<feOffset dx="0.197117" dy="0.197117"/>
<feGaussianBlur stdDeviation="0.197117"/>
<feComposite in2="hardAlpha" operator="out"/>
<feColorMatrix type="matrix" values="0 0 0 0 0 0 0 0 0 0 0 0 0 0 0 0 0 0 0.05 0"/>
<feBlend mode="normal" in2="BackgroundImageFix" result="effect1_dropShadow_521_934"/>
<feBlend mode="normal" in="SourceGraphic" in2="effect1_dropShadow_521_934" result="shape"/>
</filter>
<filter id="filter1_d_521_934" x="1.8" y="7.44285" width="28.8" height="17.5961" filterUnits="userSpaceOnUse" color-interpolation-filters="sRGB">
<feFlood flood-opacity="0" result="BackgroundImageFix"/>
<feColorMatrix in="SourceAlpha" type="matrix" values="0 0 0 0 0 0 0 0 0 0 0 0 0 0 0 0 0 0 127 0" result="hardAlpha"/>
<feOffset dx="0.2" dy="-0.2"/>
<feGaussianBlur stdDeviation="0.2"/>
<feComposite in2="hardAlpha" operator="out"/>
<feColorMatrix type="matrix" values="0 0 0 0 0 0 0 0 0 0 0 0 0 0 0 0 0 0 0.05 0"/>
<feBlend mode="normal" in2="BackgroundImageFix" result="effect1_dropShadow_521_934"/>
<feBlend mode="normal" in="SourceGraphic" in2="effect1_dropShadow_521_934" result="shape"/>
</filter>
<linearGradient id="paint0_linear_521_934" x1="21.9984" y1="6.96723" x2="17.9532" y2="15.6978" gradientUnits="userSpaceOnUse">
<stop stop-color="#D7D7E1"/>
<stop offset="0.479961" stop-color="#8F95A3"/>
</linearGradient>
<linearGradient id="paint1_linear_521_934" x1="20.3479" y1="11.1269" x2="11.6814" y2="27.2008" gradientUnits="userSpaceOnUse">
<stop stop-color="white"/>
<stop offset="1" stop-color="#8F95A3"/>
</linearGradient>
<linearGradient id="paint2_linear_521_934" x1="6.6739" y1="24.5898" x2="6.6739" y2="29.6764" gradientUnits="userSpaceOnUse">
<stop offset="0.260417" stop-color="#4ACCFF"/>
<stop offset="0.723958" stop-color="#18A2D9"/>
</linearGradient>
<linearGradient id="paint3_linear_521_934" x1="13.8993" y1="24.2803" x2="11.0504" y2="27.233" gradientUnits="userSpaceOnUse">
<stop stop-color="#3794FA"/>
<stop offset="0.999604" stop-color="#83BEFF"/>
</linearGradient>
<linearGradient id="paint4_linear_521_934" x1="23.6739" y1="24.5898" x2="23.6739" y2="29.6764" gradientUnits="userSpaceOnUse">
<stop offset="0.260417" stop-color="#4ACCFF"/>
<stop offset="0.723958" stop-color="#18A2D9"/>
</linearGradient>
</defs>
</svg>
