<svg width="32" height="32" viewBox="0 0 32 32" fill="none" xmlns="http://www.w3.org/2000/svg">
<path d="M21.4383 7.86564C21.2445 5.95396 21.6759 4.02944 22.6702 2.40002C19.3434 3.65096 17.2735 7.05734 17.6425 10.6754C18.0865 15.0377 21.8698 18.2067 26.1034 17.7576C27.8043 17.578 29.3989 16.8146 30.6309 15.5893C26.0283 16.0641 21.9136 12.6128 21.4383 7.87205V7.86564Z" fill="url(#paint0_linear_521_938)"/>
<g filter="url(#filter0_d_521_938)">
<path d="M17.0589 12.9136C17.8104 12.5037 18.6497 12.2792 19.4988 12.2792C22.0753 12.2792 24.2224 14.2311 24.4956 16.7783C26.7989 16.144 29.19 17.481 29.8438 19.794C29.9414 20.1747 30 20.565 30 20.9554C30 23.3563 28.0774 25.2887 25.6765 25.2984C25.13 25.2984 24.5932 25.2008 24.0857 24.9959C23.4026 25.4936 22.5047 25.7962 21.5092 25.7962C20.4064 25.7962 19.4207 25.4253 18.7278 24.8397C17.2346 25.435 15.2339 25.7962 13.0185 25.7962C10.8031 25.7962 8.84141 25.435 7.35796 24.8592C6.80167 25.2106 6.15755 25.3862 5.51342 25.3862C3.56152 25.3862 2 23.8052 2 21.8728C2 20.7993 2.47822 19.8331 3.2297 19.1792C2.82956 18.3984 3.14186 17.4322 3.93238 17.0321C4.07877 16.9638 4.22517 16.9052 4.38132 16.8857C4.313 16.5051 4.28372 16.1147 4.28372 15.7243C4.28372 12.0157 7.28965 9 10.9885 9C13.6138 9 15.9854 10.5322 17.0687 12.9233L17.0589 12.9136Z" fill="url(#paint1_linear_521_938)"/>
</g>
<path d="M8.8438 26.2364H7.00611L8.30517 27.5355C8.5164 27.7361 8.52696 28.0635 8.32629 28.2642C8.32629 28.2642 8.31573 28.2748 8.30517 28.2853C8.09394 28.4966 7.66092 28.3909 7.54475 28.2853L6.24569 26.9863V28.824C6.24569 29.1302 5.99222 29.3732 5.68594 29.3626C5.37966 29.3626 5.13674 29.1197 5.12618 28.824V26.9863L3.82713 28.2853C3.56309 28.581 3.18288 28.3909 3.07727 28.2853C2.97165 28.1797 2.86604 27.7361 3.07727 27.5249L4.37632 26.2258H2.53863C2.24291 26.2258 2 25.9618 2 25.6661C2 25.3704 2.24291 25.1063 2.53863 25.1063H4.37632L3.07727 23.8073C2.86604 23.5961 2.86604 23.2687 3.07727 23.0574C3.28849 22.8462 3.6159 22.8462 3.82713 23.0574L5.12618 24.3565V22.5294C5.15787 22.2231 5.4219 21.9802 5.72818 22.0013C6.01334 22.0224 6.23513 22.2442 6.25625 22.5294V24.367L7.55531 23.068C7.76654 22.8568 8.1045 22.8568 8.31573 23.068C8.52696 23.2792 8.52696 23.6172 8.31573 23.8284L7.01668 25.1275H8.85436C9.16064 25.1275 9.393 25.3704 9.393 25.6661V25.6978C9.393 25.9935 9.15008 26.2364 8.85436 26.2364H8.8438Z" fill="url(#paint2_linear_521_938)"/>
<path d="M18.8438 26.2364H17.0061L18.3052 27.5355C18.5164 27.7361 18.527 28.0635 18.3263 28.2642C18.3263 28.2642 18.3157 28.2748 18.3052 28.2853C18.0939 28.4966 17.6609 28.3909 17.5447 28.2853L16.2457 26.9863V28.824C16.2457 29.1302 15.9922 29.3732 15.6859 29.3626C15.3797 29.3626 15.1367 29.1197 15.1262 28.824V26.9863L13.8271 28.2853C13.5631 28.581 13.1829 28.3909 13.0773 28.2853C12.9717 28.1797 12.866 27.7361 13.0773 27.5249L14.3763 26.2258H12.5386C12.2429 26.2258 12 25.9618 12 25.6661C12 25.3704 12.2429 25.1063 12.5386 25.1063H14.3763L13.0773 23.8073C12.866 23.5961 12.866 23.2687 13.0773 23.0574C13.2885 22.8462 13.6159 22.8462 13.8271 23.0574L15.1262 24.3565V22.5294C15.1579 22.2231 15.4219 21.9802 15.7282 22.0013C16.0133 22.0224 16.2351 22.2442 16.2563 22.5294V24.367L17.5553 23.068C17.7665 22.8568 18.1045 22.8568 18.3157 23.068C18.527 23.2792 18.527 23.6172 18.3157 23.8284L17.0167 25.1275H18.8544C19.1606 25.1275 19.393 25.3704 19.393 25.6661V25.6978C19.393 25.9935 19.1501 26.2364 18.8544 26.2364H18.8438Z" fill="url(#paint3_linear_521_938)"/>
<path d="M28.8438 26.2364H27.0061L28.3052 27.5355C28.5164 27.7361 28.527 28.0635 28.3263 28.2642C28.3263 28.2642 28.3157 28.2748 28.3052 28.2853C28.0939 28.4966 27.6609 28.3909 27.5447 28.2853L26.2457 26.9863V28.824C26.2457 29.1302 25.9922 29.3732 25.6859 29.3626C25.3797 29.3626 25.1367 29.1197 25.1262 28.824V26.9863L23.8271 28.2853C23.5631 28.581 23.1829 28.3909 23.0773 28.2853C22.9717 28.1797 22.866 27.7361 23.0773 27.5249L24.3763 26.2258H22.5386C22.2429 26.2258 22 25.9618 22 25.6661C22 25.3704 22.2429 25.1063 22.5386 25.1063H24.3763L23.0773 23.8073C22.866 23.5961 22.866 23.2687 23.0773 23.0574C23.2885 22.8462 23.6159 22.8462 23.8271 23.0574L25.1262 24.3565V22.5294C25.1579 22.2231 25.4219 21.9802 25.7282 22.0013C26.0133 22.0224 26.2351 22.2442 26.2563 22.5294V24.367L27.5553 23.068C27.7665 22.8568 28.1045 22.8568 28.3157 23.068C28.527 23.2792 28.527 23.6172 28.3157 23.8284L27.0167 25.1275H28.8544C29.1606 25.1275 29.393 25.3704 29.393 25.6661V25.6978C29.393 25.9935 29.1501 26.2364 28.8544 26.2364H28.8438Z" fill="url(#paint4_linear_521_938)"/>
<defs>
<filter id="filter0_d_521_938" x="1.8" y="8.4" width="28.8" height="17.5961" filterUnits="userSpaceOnUse" color-interpolation-filters="sRGB">
<feFlood flood-opacity="0" result="BackgroundImageFix"/>
<feColorMatrix in="SourceAlpha" type="matrix" values="0 0 0 0 0 0 0 0 0 0 0 0 0 0 0 0 0 0 127 0" result="hardAlpha"/>
<feOffset dx="0.2" dy="-0.2"/>
<feGaussianBlur stdDeviation="0.2"/>
<feComposite in2="hardAlpha" operator="out"/>
<feColorMatrix type="matrix" values="0 0 0 0 0 0 0 0 0 0 0 0 0 0 0 0 0 0 0.05 0"/>
<feBlend mode="normal" in2="BackgroundImageFix" result="effect1_dropShadow_521_938"/>
<feBlend mode="normal" in="SourceGraphic" in2="effect1_dropShadow_521_938" result="shape"/>
</filter>
<linearGradient id="paint0_linear_521_938" x1="23.9595" y1="6.1015" x2="23.9595" y2="17.1867" gradientUnits="userSpaceOnUse">
<stop stop-color="#6A769A"/>
<stop offset="1" stop-color="#586587"/>
</linearGradient>
<linearGradient id="paint1_linear_521_938" x1="20.3479" y1="12.084" x2="11.6814" y2="28.1579" gradientUnits="userSpaceOnUse">
<stop stop-color="white"/>
<stop offset="1" stop-color="#8F95A3"/>
</linearGradient>
<linearGradient id="paint2_linear_521_938" x1="5.6739" y1="24.6121" x2="5.6739" y2="29.6987" gradientUnits="userSpaceOnUse">
<stop offset="0.260417" stop-color="#4ACCFF"/>
<stop offset="0.723958" stop-color="#18A2D9"/>
</linearGradient>
<linearGradient id="paint3_linear_521_938" x1="15.6739" y1="24.6121" x2="15.6739" y2="29.6987" gradientUnits="userSpaceOnUse">
<stop offset="0.260417" stop-color="#4ACCFF"/>
<stop offset="0.723958" stop-color="#18A2D9"/>
</linearGradient>
<linearGradient id="paint4_linear_521_938" x1="25.6739" y1="24.6121" x2="25.6739" y2="29.6987" gradientUnits="userSpaceOnUse">
<stop offset="0.260417" stop-color="#4ACCFF"/>
<stop offset="0.723958" stop-color="#18A2D9"/>
</linearGradient>
</defs>
</svg>
