<svg width="32" height="32" viewBox="0 0 32 32" fill="none" xmlns="http://www.w3.org/2000/svg">
<g clip-path="url(#clip0_525_2122)">
<path d="M17.4601 23.5416C17.6501 23.5416 17.8501 23.5616 18.0401 23.5616C20.9801 23.5616 24.4301 22.3016 25.7801 19.4916C26.6901 17.6016 26.5301 15.0616 25.2201 13.3816C23.5401 11.2116 19.3001 11.1216 18.3301 14.0716C18.0401 14.9616 18.0801 15.8416 18.2701 16.6416C18.4801 15.8416 18.7601 15.0816 19.2001 14.5416C19.9601 13.5816 21.5401 13.4116 22.5401 14.1016C23.4601 14.7316 23.6101 15.9916 23.4401 16.9916C22.7201 21.0016 17.0501 20.0316 14.2501 19.8916C12.3901 19.8016 10.5001 19.8916 8.69009 20.3616C5.88009 21.1116 2.52009 23.2616 3.06009 26.6016C5.22009 21.1916 12.9601 23.2916 17.4601 23.5416ZM29.1001 17.6916C28.8201 16.0116 27.8901 14.7416 27.8901 14.7416C28.4101 17.6016 28.2901 20.2016 26.2701 22.4416C21.1701 28.0916 15.4701 24.4616 9.22009 25.2716C7.80009 25.4516 5.53009 26.0616 5.35009 27.8116C5.91009 27.3516 6.59009 27.2916 7.11009 27.2216C10.6101 26.7516 14.3301 27.5716 16.9101 27.9616C24.8301 29.1516 30.3801 25.5516 29.0901 17.7016H29.1001V17.6916Z" fill="url(#paint0_linear_525_2122)"/>
<path d="M15.0301 11.1613C15.7801 11.0213 16.2501 10.3113 16.1101 9.56135C15.9701 8.81135 15.2601 8.34135 14.5101 8.48135C13.7601 8.62135 13.2901 9.33135 13.4301 10.0813C13.5701 10.8313 14.2801 11.3013 15.0301 11.1613Z" fill="url(#paint1_linear_525_2122)"/>
<path d="M7.39013 11.6214C8.18013 11.4714 8.68013 10.7214 8.53013 9.93137C8.38013 9.14137 7.63013 8.64137 6.84013 8.79137C6.05013 8.94137 5.55013 9.69137 5.70013 10.4814C5.85013 11.2714 6.60013 11.7714 7.39013 11.6214Z" fill="url(#paint2_linear_525_2122)"/>
<path d="M27.5002 10.1114C28.1902 9.97136 28.6402 9.32136 28.5102 8.63136C28.3702 7.94136 27.7202 7.49136 27.0302 7.62136C26.3402 7.76136 25.8902 8.41136 26.0202 9.10136C26.1602 9.79136 26.8202 10.2414 27.5002 10.1114Z" fill="url(#paint3_linear_525_2122)"/>
<path d="M11.3201 16.6414C11.9501 16.5214 12.3501 15.9114 12.2401 15.2914C12.1201 14.6614 11.5101 14.2614 10.9001 14.3714C10.2701 14.4914 9.87008 15.1014 9.98008 15.7114C10.1001 16.3414 10.7101 16.7414 11.3301 16.6314H11.3201V16.6414Z" fill="url(#paint4_linear_525_2122)"/>
<path d="M12.5701 6.33135C12.9601 6.26135 13.2201 5.87135 13.1501 5.49135C13.0801 5.10135 12.6901 4.84135 12.3101 4.91135C11.9201 4.98135 11.6601 5.37135 11.7301 5.75135C11.8001 6.14135 12.1901 6.40135 12.5701 6.33135Z" fill="url(#paint5_linear_525_2122)"/>
<path d="M4.59016 16.2114C4.98016 16.1414 5.24016 15.7514 5.17016 15.3714C5.10016 14.9814 4.71016 14.7214 4.33016 14.7914C3.94016 14.8614 3.68016 15.2514 3.75016 15.6314C3.82016 16.0214 4.21016 16.2814 4.59016 16.2114Z" fill="url(#paint6_linear_525_2122)"/>
<path d="M21.3601 7.59134C22.1501 7.44134 22.6501 6.69134 22.5001 5.90135C22.3501 5.11134 21.6001 4.61135 20.8101 4.76135C20.0201 4.91135 19.5201 5.66134 19.6701 6.45134C19.8201 7.24134 20.5701 7.74134 21.3601 7.59134Z" fill="url(#paint7_linear_525_2122)"/>
<path d="M25.8502 4.03136C26.2402 3.96136 26.5002 3.57136 26.4302 3.19136C26.3602 2.80136 25.9702 2.54136 25.5902 2.61136C25.2002 2.68136 24.9402 3.07136 25.0102 3.45136C25.0802 3.84136 25.4702 4.10136 25.8502 4.03136Z" fill="url(#paint8_linear_525_2122)"/>
</g>
<defs>
<linearGradient id="paint0_linear_525_2122" x1="14.9601" y1="28.0516" x2="20.0801" y2="7.2716" gradientUnits="userSpaceOnUse">
<stop stop-color="#DEB54D"/>
<stop offset="1" stop-color="#865903"/>
</linearGradient>
<linearGradient id="paint1_linear_525_2122" x1="14.7701" y1="8.46135" x2="14.7701" y2="11.1813" gradientUnits="userSpaceOnUse">
<stop stop-color="#DEB54D"/>
<stop offset="0.15" stop-color="#DBB34F"/>
<stop offset="1" stop-color="#967D60"/>
</linearGradient>
<linearGradient id="paint2_linear_525_2122" x1="7.12013" y1="8.76137" x2="7.12013" y2="11.6514" gradientUnits="userSpaceOnUse">
<stop stop-color="#DEB54D"/>
<stop offset="0.15" stop-color="#DBB34F"/>
<stop offset="1" stop-color="#967D60"/>
</linearGradient>
<linearGradient id="paint3_linear_525_2122" x1="27.2702" y1="7.60136" x2="27.2702" y2="10.1314" gradientUnits="userSpaceOnUse">
<stop stop-color="#DEB54D"/>
<stop offset="0.15" stop-color="#DBB34F"/>
<stop offset="1" stop-color="#967D60"/>
</linearGradient>
<linearGradient id="paint4_linear_525_2122" x1="11.1101" y1="14.3514" x2="11.1101" y2="16.6514" gradientUnits="userSpaceOnUse">
<stop stop-color="#DEB54D"/>
<stop offset="0.15" stop-color="#DBB34F"/>
<stop offset="1" stop-color="#967D60"/>
</linearGradient>
<linearGradient id="paint5_linear_525_2122" x1="12.4401" y1="4.90135" x2="12.4401" y2="6.34135" gradientUnits="userSpaceOnUse">
<stop stop-color="#DEB54D"/>
<stop offset="0.15" stop-color="#DBB34F"/>
<stop offset="1" stop-color="#967D60"/>
</linearGradient>
<linearGradient id="paint6_linear_525_2122" x1="4.46016" y1="14.7814" x2="4.46016" y2="16.2214" gradientUnits="userSpaceOnUse">
<stop stop-color="#DEB54D"/>
<stop offset="0.15" stop-color="#DBB34F"/>
<stop offset="1" stop-color="#967D60"/>
</linearGradient>
<linearGradient id="paint7_linear_525_2122" x1="21.0901" y1="4.73135" x2="21.0901" y2="7.62134" gradientUnits="userSpaceOnUse">
<stop stop-color="#DEB54D"/>
<stop offset="0.15" stop-color="#DBB34F"/>
<stop offset="1" stop-color="#967D60"/>
</linearGradient>
<linearGradient id="paint8_linear_525_2122" x1="25.7202" y1="2.60136" x2="25.7202" y2="4.04136" gradientUnits="userSpaceOnUse">
<stop stop-color="#DEB54D"/>
<stop offset="0.15" stop-color="#DBB34F"/>
<stop offset="1" stop-color="#967D60"/>
</linearGradient>
<clipPath id="clip0_525_2122">
<rect width="26.27" height="26.18" fill="white" transform="translate(3 2)"/>
</clipPath>
</defs>
</svg>
