<svg width="32" height="32" viewBox="0 0 32 32" fill="none" xmlns="http://www.w3.org/2000/svg">
<g filter="url(#filter0_d_521_729)">
<path d="M19.3757 8.48444C19.9892 8.13771 20.6827 7.9599 21.385 7.9599C23.501 7.9599 25.2613 9.5602 25.4836 11.6584C27.3773 11.1338 29.3421 12.2363 29.8666 14.13C29.9555 14.4411 30 14.7612 30 15.0901C30 17.055 28.4175 18.6553 26.4438 18.6553C25.9992 18.6553 25.5547 18.5753 25.1368 18.4063C24.5767 18.8153 23.8388 19.0554 23.0209 19.0554C22.1229 19.0554 21.3139 18.7531 20.736 18.273C19.5091 18.762 17.8643 19.0554 16.0507 19.0554C14.237 19.0554 12.6189 18.762 11.4009 18.2819C10.9475 18.5664 10.414 18.7175 9.8806 18.7175C8.28918 18.7175 6.99115 17.4195 7.00005 15.8281C7.00005 14.9479 7.39123 14.1566 8.01357 13.6232C7.68462 12.9742 7.94245 12.1918 8.59146 11.8629C8.70704 11.8006 8.83151 11.7651 8.96487 11.7384C8.91152 11.4183 8.88485 11.0983 8.88485 10.7782C8.88485 7.72874 11.3475 5.25716 14.3792 5.25716C16.5308 5.25716 18.4867 6.51073 19.3757 8.47555V8.48444Z" fill="url(#paint0_linear_521_729)"/>
</g>
<g filter="url(#filter1_d_521_729)">
<path d="M17.0589 12.9136C17.8104 12.5037 18.6497 12.2792 19.4988 12.2792C22.0753 12.2792 24.2224 14.2311 24.4956 16.7783C26.7989 16.144 29.19 17.481 29.8438 19.794C29.9414 20.1747 30 20.565 30 20.9554C30 23.3563 28.0774 25.2887 25.6765 25.2984C25.13 25.2984 24.5932 25.2008 24.0857 24.9959C23.4026 25.4936 22.5047 25.7962 21.5092 25.7962C20.4064 25.7962 19.4207 25.4253 18.7278 24.8397C17.2346 25.435 15.2339 25.7962 13.0185 25.7962C10.8031 25.7962 8.84141 25.435 7.35796 24.8592C6.80167 25.2106 6.15755 25.3862 5.51342 25.3862C3.56152 25.3862 2 23.8052 2 21.8728C2 20.7993 2.47822 19.8331 3.2297 19.1792C2.82956 18.3984 3.14186 17.4322 3.93238 17.0321C4.07877 16.9638 4.22517 16.9052 4.38132 16.8857C4.313 16.5051 4.28372 16.1147 4.28372 15.7243C4.28372 12.0157 7.28965 9 10.9885 9C13.6138 9 15.9854 10.5322 17.0687 12.9233L17.0589 12.9136Z" fill="url(#paint1_linear_521_729)"/>
</g>
<defs>
<filter id="filter0_d_521_729" x="6.8" y="5.05716" width="23.8" height="14.5982" filterUnits="userSpaceOnUse" color-interpolation-filters="sRGB">
<feFlood flood-opacity="0" result="BackgroundImageFix"/>
<feColorMatrix in="SourceAlpha" type="matrix" values="0 0 0 0 0 0 0 0 0 0 0 0 0 0 0 0 0 0 127 0" result="hardAlpha"/>
<feOffset dx="0.2" dy="0.2"/>
<feGaussianBlur stdDeviation="0.2"/>
<feComposite in2="hardAlpha" operator="out"/>
<feColorMatrix type="matrix" values="0 0 0 0 0 0 0 0 0 0 0 0 0 0 0 0 0 0 0.05 0"/>
<feBlend mode="normal" in2="BackgroundImageFix" result="effect1_dropShadow_521_729"/>
<feBlend mode="normal" in="SourceGraphic" in2="effect1_dropShadow_521_729" result="shape"/>
</filter>
<filter id="filter1_d_521_729" x="1.8" y="8.4" width="28.8" height="17.5961" filterUnits="userSpaceOnUse" color-interpolation-filters="sRGB">
<feFlood flood-opacity="0" result="BackgroundImageFix"/>
<feColorMatrix in="SourceAlpha" type="matrix" values="0 0 0 0 0 0 0 0 0 0 0 0 0 0 0 0 0 0 127 0" result="hardAlpha"/>
<feOffset dx="0.2" dy="-0.2"/>
<feGaussianBlur stdDeviation="0.2"/>
<feComposite in2="hardAlpha" operator="out"/>
<feColorMatrix type="matrix" values="0 0 0 0 0 0 0 0 0 0 0 0 0 0 0 0 0 0 0.05 0"/>
<feBlend mode="normal" in2="BackgroundImageFix" result="effect1_dropShadow_521_729"/>
<feBlend mode="normal" in="SourceGraphic" in2="effect1_dropShadow_521_729" result="shape"/>
</filter>
<linearGradient id="paint0_linear_521_729" x1="21.9984" y1="7.92433" x2="17.9532" y2="16.6549" gradientUnits="userSpaceOnUse">
<stop stop-color="#D7D7E1"/>
<stop offset="0.479961" stop-color="#8F95A3"/>
</linearGradient>
<linearGradient id="paint1_linear_521_729" x1="20.3479" y1="12.084" x2="11.6814" y2="28.1579" gradientUnits="userSpaceOnUse">
<stop stop-color="white"/>
<stop offset="1" stop-color="#8F95A3"/>
</linearGradient>
</defs>
</svg>
