<svg width="32" height="32" viewBox="0 0 32 32" fill="none" xmlns="http://www.w3.org/2000/svg">
<g clip-path="url(#clip0_521_736)">
<path d="M11.6249 12.808C11.3408 10.077 11.9731 7.32774 13.4302 5C8.55482 6.78704 5.52142 11.6533 6.06212 16.822C6.71279 23.0537 12.2572 27.5809 18.4615 26.9394C20.9542 26.6828 23.2911 25.5923 25.0964 23.8419C18.3515 24.52 12.3214 19.5896 11.6249 12.8172V12.808Z" fill="url(#paint0_linear_521_736)"/>
<g filter="url(#filter0_d_521_736)">
<path d="M4.7856 13.9615H9.3462C10.0542 13.9615 10.6269 13.3888 10.6269 12.6808C10.6269 11.9727 10.0542 11.4 9.3462 11.4H4.7856C4.07756 11.4 3.50488 11.9727 3.50488 12.6808C3.50488 13.3888 4.07756 13.9615 4.7856 13.9615ZM14.6773 13.9615L27.2242 13.9615C27.9322 13.9615 28.5049 13.3888 28.5049 12.6808C28.5049 11.9727 27.9322 11.4 27.2242 11.4L14.6773 11.4C13.9693 11.4 13.3966 11.9727 13.3966 12.6807C13.3966 13.3888 13.9693 13.9615 14.6773 13.9615ZM27.2242 20.7607H15.8331C15.125 20.7607 14.5524 21.3334 14.5524 22.031C14.5524 22.7286 15.125 23.3013 15.8331 23.3013H27.2242C27.9322 23.3013 28.5049 22.7286 28.5049 22.031C28.5049 21.3334 27.9322 20.7607 27.2242 20.7607ZM4.7856 18.6262H20.352C21.0601 18.6262 21.6327 18.0535 21.6327 17.3559C21.6327 16.6583 21.0601 16.0752 20.352 16.0752H4.7856C4.07756 16.0752 3.50488 16.6478 3.50488 17.3559C3.50488 18.0639 4.07756 18.6262 4.7856 18.6262ZM10.6269 20.7503H4.7856C4.07756 20.7503 3.50488 21.323 3.50488 22.0206C3.50488 22.7182 4.07756 23.2909 4.7856 23.2909H10.6269C11.335 23.2909 11.9076 22.7182 11.9076 22.0206C11.9076 21.323 11.335 20.7503 10.6269 20.7503Z" fill="url(#paint1_linear_521_736)"/>
</g>
</g>
<defs>
<filter id="filter0_d_521_736" x="3.20488" y="10.9" width="25.8" height="12.7013" filterUnits="userSpaceOnUse" color-interpolation-filters="sRGB">
<feFlood flood-opacity="0" result="BackgroundImageFix"/>
<feColorMatrix in="SourceAlpha" type="matrix" values="0 0 0 0 0 0 0 0 0 0 0 0 0 0 0 0 0 0 127 0" result="hardAlpha"/>
<feOffset dx="0.1" dy="-0.1"/>
<feGaussianBlur stdDeviation="0.2"/>
<feComposite in2="hardAlpha" operator="out"/>
<feColorMatrix type="matrix" values="0 0 0 0 0 0 0 0 0 0 0 0 0 0 0 0 0 0 0.05 0"/>
<feBlend mode="normal" in2="BackgroundImageFix" result="effect1_dropShadow_521_736"/>
<feBlend mode="normal" in="SourceGraphic" in2="effect1_dropShadow_521_736" result="shape"/>
</filter>
<linearGradient id="paint0_linear_521_736" x1="15.3196" y1="10.2878" x2="15.3196" y2="26.1238" gradientUnits="userSpaceOnUse">
<stop stop-color="#6A769A"/>
<stop offset="1" stop-color="#586587"/>
</linearGradient>
<linearGradient id="paint1_linear_521_736" x1="9.75228" y1="25.7169" x2="17.0409" y2="12.4412" gradientUnits="userSpaceOnUse">
<stop stop-color="#9C7649"/>
<stop offset="1" stop-color="#D9A04B"/>
</linearGradient>
<clipPath id="clip0_521_736">
<rect width="32" height="32" fill="white"/>
</clipPath>
</defs>
</svg>
