<svg width="32" height="32" viewBox="0 0 32 32" fill="none" xmlns="http://www.w3.org/2000/svg">
<path fill-rule="evenodd" clip-rule="evenodd" d="M2.66772 13.5C2.66772 12.782 3.24975 12.2 3.96772 12.2H17.6226C18.3406 12.2 18.9226 12.782 18.9226 13.5C18.9226 14.218 18.3406 14.8 17.6226 14.8H3.96772C3.24975 14.8 2.66772 14.218 2.66772 13.5ZM20.9548 13.5C20.9548 12.782 21.5368 12.2 22.2548 12.2H25.0323C25.7502 12.2 26.3323 12.782 26.3323 13.5C26.3323 14.218 25.7502 14.8 25.0323 14.8H22.2548C21.5368 14.8 20.9548 14.218 20.9548 13.5ZM5.66787 18.5C5.66787 17.782 6.2499 17.2 6.96787 17.2H9.70268C10.4206 17.2 11.0027 17.782 11.0027 18.5C11.0027 19.218 10.4206 19.8 9.70268 19.8H6.96787C6.2499 19.8 5.66787 19.218 5.66787 18.5ZM12.9754 18.5C12.9754 17.782 13.5574 17.2 14.2754 17.2H28.0323C28.7502 17.2 29.3323 17.782 29.3323 18.5C29.3323 19.218 28.7502 19.8 28.0323 19.8H14.2754C13.5574 19.8 12.9754 19.218 12.9754 18.5Z" fill="url(#paint0_linear_2488_8913)"/>
<defs>
<linearGradient id="paint0_linear_2488_8913" x1="16" y1="12.2" x2="16" y2="19.8" gradientUnits="userSpaceOnUse">
<stop stop-color="#C8CCD3"/>
<stop offset="1" stop-color="#9EA4B2"/>
</linearGradient>
</defs>
</svg>
