<svg width="15" height="14" viewBox="0 0 15 14" fill="none" xmlns="http://www.w3.org/2000/svg">
<path fill-rule="evenodd" clip-rule="evenodd" d="M4.16634 0.333008C4.53453 0.333008 4.83301 0.631485 4.83301 0.999674V1.66634H10.1663V0.999674C10.1663 0.631485 10.4648 0.333008 10.833 0.333008C11.2012 0.333008 11.4997 0.631485 11.4997 0.999674V1.66636C11.8057 1.66655 12.0725 1.66843 12.2964 1.68672C12.5599 1.70825 12.8221 1.7558 13.0743 1.88433C13.4506 2.07608 13.7566 2.38204 13.9484 2.75836C14.0769 3.01061 14.1244 3.27276 14.146 3.53632C14.1664 3.78603 14.1664 4.0892 14.1663 4.44063V10.8921C14.1664 11.2435 14.1664 11.5466 14.146 11.7964C14.1244 12.0599 14.0769 12.3221 13.9484 12.5743C13.7566 12.9506 13.4506 13.2566 13.0743 13.4484C12.8221 13.5769 12.5599 13.6244 12.2964 13.646C12.0467 13.6664 11.7435 13.6664 11.3921 13.6663H3.6073C3.25587 13.6664 2.9527 13.6664 2.70299 13.646C2.43943 13.6244 2.17728 13.5769 1.92503 13.4484C1.5487 13.2566 1.24274 12.9506 1.051 12.5743C0.922467 12.3221 0.874923 12.0599 0.853389 11.7964C0.832986 11.5466 0.832996 11.2435 0.833008 10.892V4.44065C0.832996 4.08921 0.832986 3.78604 0.853389 3.53632C0.874923 3.27276 0.922467 3.01061 1.051 2.75836C1.24274 2.38204 1.5487 2.07607 1.92503 1.88433C2.17728 1.7558 2.43943 1.70825 2.70299 1.68672C2.92684 1.66843 3.19365 1.66655 3.49968 1.66636V0.999674C3.49968 0.631485 3.79815 0.333008 4.16634 0.333008ZM3.63301 2.99967C3.24864 2.99967 3.00046 3.00019 2.81157 3.01563C2.63046 3.03042 2.56331 3.05554 2.53035 3.07234C2.40491 3.13625 2.30292 3.23824 2.239 3.36368C2.22221 3.39664 2.19709 3.46379 2.18229 3.6449C2.16686 3.83379 2.16634 4.08197 2.16634 4.46634V4.99967H12.833V4.46634C12.833 4.08197 12.8325 3.83379 12.8171 3.6449C12.8023 3.46379 12.7771 3.39664 12.7603 3.36368C12.6964 3.23824 12.5944 3.13625 12.469 3.07234C12.436 3.05554 12.3689 3.03042 12.1878 3.01563C11.9989 3.00019 11.7507 2.99967 11.3663 2.99967H3.63301ZM12.833 6.33301H2.16634V10.8663C2.16634 11.2507 2.16686 11.4989 2.18229 11.6878C2.19709 11.8689 2.22221 11.936 2.239 11.969C2.30292 12.0944 2.40491 12.1964 2.53035 12.2603C2.56331 12.2771 2.63046 12.3023 2.81157 12.3171C3.00046 12.3325 3.24864 12.333 3.63301 12.333H11.3663C11.7507 12.333 11.9989 12.3325 12.1878 12.3171C12.3689 12.3023 12.436 12.2771 12.469 12.2603C12.5944 12.1964 12.6964 12.0944 12.7603 11.969C12.7771 11.936 12.8023 11.8689 12.8171 11.6878C12.8325 11.4989 12.833 11.2507 12.833 10.8663V6.33301Z" fill="#101717"/>
</svg>
