<svg width="15" height="14" viewBox="0 0 15 14" fill="none" xmlns="http://www.w3.org/2000/svg">
<path fill-rule="evenodd" clip-rule="evenodd" d="M7.49967 1.66634C4.55416 1.66634 2.16634 4.05416 2.16634 6.99967C2.16634 9.94519 4.55416 12.333 7.49967 12.333C10.4452 12.333 12.833 9.94519 12.833 6.99967C12.833 4.05416 10.4452 1.66634 7.49967 1.66634ZM0.833008 6.99967C0.833008 3.31778 3.81778 0.333008 7.49967 0.333008C11.1816 0.333008 14.1663 3.31778 14.1663 6.99967C14.1663 10.6816 11.1816 13.6663 7.49967 13.6663C3.81778 13.6663 0.833008 10.6816 0.833008 6.99967ZM7.49967 2.99967C7.86786 2.99967 8.16634 3.29815 8.16634 3.66634V6.62221L9.50934 7.42801C9.82506 7.61744 9.92743 8.02695 9.738 8.34267C9.54857 8.65839 9.13906 8.76077 8.82334 8.57134L7.15668 7.57134C6.95587 7.45085 6.83301 7.23385 6.83301 6.99967V3.66634C6.83301 3.29815 7.13148 2.99967 7.49967 2.99967Z" fill="#101717"/>
</svg>
