<svg width="15" height="12" viewBox="0 0 15 12" fill="none" xmlns="http://www.w3.org/2000/svg">
<path fill-rule="evenodd" clip-rule="evenodd" d="M3.60796 5.73407e-07H11.3927C11.7441 -1.13475e-05 12.0473 -2.16787e-05 12.297 0.0203808C12.5606 0.0419148 12.8227 0.0894588 13.075 0.217988C13.4513 0.409735 13.7573 0.715696 13.949 1.09202C14.0775 1.34427 14.1251 1.60642 14.1466 1.86998C14.167 2.11969 14.167 2.42286 14.167 2.77429V8C14.5352 8 14.8337 8.29848 14.8337 8.66667V9.22571C14.8337 9.57714 14.8337 9.88031 14.8133 10.13C14.7917 10.3936 14.7442 10.6557 14.6157 10.908C14.4239 11.2843 14.118 11.5903 13.7416 11.782C13.4894 11.9105 13.2272 11.9581 12.9637 11.9796C12.714 12 12.4108 12 12.0594 12H2.94128C2.58986 12 2.28669 12 2.03697 11.9796C1.77341 11.9581 1.51127 11.9105 1.25901 11.782C0.882688 11.5903 0.576727 11.2843 0.38498 10.908C0.256451 10.6557 0.208907 10.3936 0.187373 10.13C0.166971 9.88031 0.166981 9.57713 0.166993 9.2257L0.166993 8.66667C0.166993 8.29848 0.46547 8 0.83366 8V2.77431C0.833648 2.42287 0.833637 2.1197 0.85404 1.86998C0.875574 1.60642 0.923118 1.34427 1.05165 1.09202C1.24339 0.715696 1.54936 0.409735 1.92568 0.217988C2.17793 0.0894588 2.44008 0.0419148 2.70364 0.0203809C2.95336 -2.16787e-05 3.25653 -1.13475e-05 3.60796 5.73407e-07ZM1.50037 9.33333H5.0585C5.14583 9.33333 5.18942 9.33349 5.22108 9.33494C5.22191 9.33498 5.22271 9.33502 5.22347 9.33505C5.22404 9.33557 5.22463 9.3361 5.22524 9.33667C5.24866 9.35803 5.27959 9.38874 5.34134 9.45049L5.38317 9.49232C5.39098 9.50013 5.39898 9.50818 5.40718 9.51642C5.49647 9.60618 5.6089 9.71922 5.74647 9.80352C5.86577 9.87663 5.99582 9.9305 6.13188 9.96316C6.28876 10.0008 6.44819 10.0004 6.5748 10.0001C6.58642 10 6.59777 10 6.60882 10H8.39183C8.40288 10 8.41423 10 8.42586 10.0001C8.55247 10.0004 8.71189 10.0008 8.86878 9.96316C9.00483 9.9305 9.13489 9.87663 9.25418 9.80352C9.39175 9.71922 9.50418 9.60619 9.59346 9.51643C9.60167 9.50818 9.60967 9.50013 9.61748 9.49232L9.65931 9.45049C9.72107 9.38874 9.752 9.35803 9.77541 9.33667C9.77602 9.3361 9.77661 9.33557 9.77718 9.33505C9.77795 9.33502 9.77874 9.33498 9.77957 9.33494C9.81123 9.33349 9.85482 9.33333 9.94215 9.33333H13.5003C13.5 9.6434 13.4979 9.85535 13.4844 10.0214C13.4696 10.2026 13.4445 10.2697 13.4277 10.3027C13.3638 10.4281 13.2618 10.5301 13.1363 10.594C13.1034 10.6108 13.0362 10.6359 12.8551 10.6507C12.6662 10.6661 12.418 10.6667 12.0337 10.6667H2.96699C2.58262 10.6667 2.33444 10.6661 2.14555 10.6507C1.96444 10.6359 1.8973 10.6108 1.86433 10.594C1.73889 10.5301 1.6369 10.4281 1.57299 10.3027C1.55619 10.2697 1.53108 10.2026 1.51628 10.0214C1.50271 9.85535 1.50067 9.6434 1.50037 9.33333ZM12.8337 8V2.8C12.8337 2.41563 12.8331 2.16745 12.8177 1.97856C12.8029 1.79745 12.7778 1.7303 12.761 1.69734C12.6971 1.5719 12.5951 1.46991 12.4697 1.406C12.4367 1.3892 12.3695 1.36408 12.1884 1.34929C11.9995 1.33385 11.7514 1.33333 11.367 1.33333H3.63366C3.24929 1.33333 3.00111 1.33385 2.81222 1.34929C2.63111 1.36408 2.56396 1.3892 2.531 1.406C2.40556 1.46991 2.30357 1.5719 2.23966 1.69734C2.22286 1.7303 2.19774 1.79745 2.18295 1.97856C2.16751 2.16745 2.16699 2.41563 2.16699 2.8V8H5.0585C5.06955 8 5.0809 7.99997 5.09252 7.99994C5.21913 7.9996 5.37856 7.99918 5.53545 8.03684C5.67149 8.0695 5.80155 8.12338 5.92085 8.19648C6.05842 8.28078 6.17085 8.39382 6.26014 8.48358C6.26833 8.49182 6.27634 8.49987 6.28415 8.50768L6.32598 8.54951C6.38773 8.61126 6.41867 8.64197 6.44208 8.66334C6.44269 8.6639 6.44328 8.66443 6.44385 8.66495C6.44461 8.66498 6.44541 8.66502 6.44624 8.66506C6.4779 8.66651 6.52149 8.66667 6.60882 8.66667H8.39183C8.47917 8.66667 8.52275 8.66651 8.55442 8.66506C8.55524 8.66502 8.55604 8.66498 8.55681 8.66495C8.55737 8.66443 8.55796 8.6639 8.55858 8.66334C8.58199 8.64197 8.61292 8.61126 8.67467 8.54951L8.7165 8.50768C8.72432 8.49987 8.73232 8.49182 8.74052 8.48357C8.82981 8.39382 8.94224 8.28078 9.0798 8.19648C9.1991 8.12338 9.32916 8.0695 9.46521 8.03684C9.6221 7.99918 9.78152 7.9996 9.90813 7.99994C9.91976 7.99997 9.93111 8 9.94215 8H12.8337Z" fill="#101717"/>
</svg>
