<svg width="11" height="14" viewBox="0 0 11 14" fill="none" xmlns="http://www.w3.org/2000/svg">
<path fill-rule="evenodd" clip-rule="evenodd" d="M5.50033 1.66634C3.30877 1.66634 1.50033 3.49907 1.50033 5.79967C1.50033 6.91963 1.99095 7.97942 2.82565 9.09422C3.53141 10.0368 4.43466 10.9584 5.40857 11.9521C5.43909 11.9832 5.46967 12.0144 5.50033 12.0457C5.53098 12.0144 5.56156 11.9832 5.59208 11.9521C6.56599 10.9584 7.46924 10.0368 8.175 9.09422C9.0097 7.97942 9.50033 6.91963 9.50033 5.79967C9.50033 3.49907 7.69188 1.66634 5.50033 1.66634ZM0.166992 5.79967C0.166992 2.79835 2.53723 0.333008 5.50033 0.333008C8.46342 0.333008 10.8337 2.79835 10.8337 5.79967C10.8337 7.33069 10.1576 8.6709 9.24231 9.89336C8.47838 10.9137 7.5005 11.9107 6.52774 12.9026C6.34392 13.09 6.16029 13.2772 5.97832 13.4644C5.8528 13.5935 5.68039 13.6663 5.50033 13.6663C5.32026 13.6663 5.14785 13.5935 5.02233 13.4644C4.84036 13.2772 4.65673 13.09 4.47291 12.9026C3.50015 11.9107 2.52227 10.9137 1.75834 9.89336C0.843033 8.6709 0.166992 7.33069 0.166992 5.79967ZM5.50033 4.99967C5.13214 4.99967 4.83366 5.29815 4.83366 5.66634C4.83366 6.03453 5.13214 6.33301 5.50033 6.33301C5.86852 6.33301 6.16699 6.03453 6.16699 5.66634C6.16699 5.29815 5.86852 4.99967 5.50033 4.99967ZM3.50033 5.66634C3.50033 4.56177 4.39576 3.66634 5.50033 3.66634C6.6049 3.66634 7.50033 4.56177 7.50033 5.66634C7.50033 6.77091 6.6049 7.66634 5.50033 7.66634C4.39576 7.66634 3.50033 6.77091 3.50033 5.66634Z" fill="#101717"/>
</svg>
