<svg width="32" height="32" viewBox="0 0 32 32" fill="none" xmlns="http://www.w3.org/2000/svg">
<path d="M15.5045 5.47049L15.9923 4L16.48 5.47049C16.8748 5.48597 17.2619 5.53241 17.6413 5.58658L18.431 4.24766L18.6013 5.78781C18.9729 5.88068 19.3368 5.99678 19.6929 6.13609L20.7226 4.97517L20.5987 6.5308C20.9471 6.70106 21.2877 6.89455 21.6129 7.09578L22.8671 6.16704L22.4258 7.66075C22.72 7.89294 23.0065 8.1406 23.2852 8.40374L24.6942 7.73041L23.9664 9.12351C24.2142 9.41761 24.4542 9.71945 24.671 10.0368L26.1961 9.66527L25.1897 10.8804C25.3755 11.2132 25.5458 11.5614 25.6929 11.9097L27.2723 11.8633L26.0335 12.8462C26.1419 13.2022 26.2348 13.5582 26.3123 13.9297L27.8684 14.1928L26.4594 14.9281C26.4981 15.3073 26.5135 15.6866 26.5135 16.0658L28 16.6462L26.4671 17.0719C26.4284 17.4511 26.3664 17.8226 26.2968 18.1864L27.6361 19.0687L26.0413 19.1616C25.9329 19.5176 25.8013 19.8581 25.6542 20.1986L26.8 21.3209L25.2129 21.1119C25.0271 21.437 24.8335 21.7543 24.6168 22.0639L25.5071 23.4028L23.9897 22.861C23.7497 23.1396 23.5019 23.4028 23.231 23.6582L23.8503 25.1441L22.4568 24.3238C22.1626 24.5482 21.8529 24.7649 21.5432 24.9661L21.8374 26.5527L20.6529 25.4615C20.32 25.624 19.9716 25.771 19.6232 25.9026L19.5845 27.5202L18.6555 26.2122C18.3071 26.3051 17.9432 26.3747 17.5794 26.4289L17.231 28L16.5652 26.5295C16.1935 26.5527 15.8219 26.5527 15.4426 26.5295L14.7768 28L14.4284 26.4289C14.0645 26.3747 13.7084 26.3051 13.3523 26.2122L12.4232 27.5202L12.3845 25.9181C12.0284 25.7865 11.68 25.6395 11.3471 25.4769L10.1703 26.5605L10.4645 24.9894C10.1471 24.7881 9.83742 24.5792 9.53548 24.347L8.15742 25.1596L8.76903 23.6891C8.49806 23.4337 8.24258 23.1706 8.00258 22.8842L6.50839 23.4183L7.38323 22.0948C7.16645 21.7852 6.95742 21.4602 6.77935 21.1274L5.20774 21.3363L6.33032 20.2296C6.18323 19.8891 6.05161 19.5331 5.93548 19.177L4.37161 19.0842L5.68774 18.2174C5.61032 17.8381 5.54839 17.4589 5.50968 17.0797L4 16.6617L5.45548 16.089C5.45548 15.702 5.47097 15.3151 5.50968 14.9358L4.12387 14.2161L5.65677 13.9607C5.73419 13.5814 5.8271 13.2177 5.93548 12.8539L4.72 11.8865L6.27613 11.9252C6.43097 11.5692 6.60129 11.2132 6.7871 10.8804L5.79613 9.68075L7.30581 10.0445C7.52258 9.72718 7.76258 9.41761 8.01806 9.12351L7.29806 7.74589L8.69161 8.41148C8.97032 8.14834 9.25677 7.89294 9.55871 7.66075L9.11742 6.17478L10.3561 7.09578C10.689 6.88681 11.0297 6.69332 11.3781 6.52306L11.2542 4.98291L12.2761 6.14382C12.6323 6.01225 12.9961 5.89616 13.3755 5.80329L13.5458 4.27088L14.3277 5.6098C14.7071 5.54789 15.0942 5.50919 15.489 5.49371L15.5045 5.47049Z" fill="url(#paint0_radial_328_5483)"/>
<defs>
<radialGradient id="paint0_radial_328_5483" cx="0" cy="0" r="1" gradientUnits="userSpaceOnUse" gradientTransform="translate(22 5.38462) rotate(115.017) scale(22.9195 20.0013)">
<stop stop-color="#FFFC00"/>
<stop offset="0.567708" stop-color="#F8BA28"/>
</radialGradient>
</defs>
</svg>
