<svg width="32" height="32" viewBox="0 0 32 32" fill="none" xmlns="http://www.w3.org/2000/svg">
<path d="M15.1045 5.0705L15.5922 3.60001L16.08 5.0705C16.4748 5.08598 16.8619 5.13241 17.2413 5.18659L18.0309 3.84767L18.2013 5.38782C18.5729 5.48069 18.9368 5.59678 19.2929 5.73609L20.3226 4.57518L20.1987 6.1308C20.5471 6.30107 20.8877 6.49456 21.2129 6.69578L22.4671 5.76705L22.0258 7.26076C22.32 7.49294 22.6064 7.74061 22.8851 8.00375L24.2942 7.33042L23.5664 8.72351C23.8142 9.01761 24.0542 9.31945 24.2709 9.63677L25.7961 9.26528L24.7897 10.4804C24.9755 10.8132 25.1458 11.1614 25.2929 11.5097L26.8722 11.4633L25.6335 12.4462C25.7419 12.8022 25.8348 13.1582 25.9122 13.5297L27.4684 13.7928L26.0593 14.5281C26.098 14.9073 26.1135 15.2866 26.1135 15.6658L27.6 16.2462L26.0671 16.6719C26.0284 17.0512 25.9664 17.4226 25.8967 17.7864L27.2361 18.6687L25.6413 18.7616C25.5329 19.1176 25.4013 19.4581 25.2542 19.7987L26.4 20.9209L24.8129 20.7119C24.6271 21.037 24.4335 21.3543 24.2167 21.6639L25.1071 23.0028L23.5897 22.461C23.3497 22.7396 23.1019 23.0028 22.8309 23.2582L23.4503 24.7442L22.0567 23.9238C21.7626 24.1482 21.4529 24.3649 21.1432 24.5661L21.4374 26.1527L20.2529 25.0615C19.92 25.224 19.5716 25.371 19.2232 25.5026L19.1845 27.1202L18.2555 25.8122C17.9071 25.9051 17.5432 25.9747 17.1793 26.0289L16.8309 27.6L16.1651 26.1295C15.7935 26.1527 15.4219 26.1527 15.0426 26.1295L14.3767 27.6L14.0284 26.0289C13.6645 25.9747 13.3084 25.9051 12.9522 25.8122L12.0232 27.1202L11.9845 25.5181C11.6284 25.3865 11.28 25.2395 10.9471 25.077L9.7703 26.1605L10.0645 24.5894C9.74707 24.3881 9.43739 24.1792 9.13546 23.947L7.75739 24.7596L8.36901 23.2891C8.09804 23.0337 7.84256 22.7706 7.60256 22.4842L6.10836 23.0183L6.9832 21.6948C6.76643 21.3852 6.55739 21.0602 6.37933 20.7274L4.80772 20.9363L5.9303 19.8296C5.7832 19.4891 5.65159 19.1331 5.53546 18.777L3.97159 18.6842L5.28772 17.8174C5.2103 17.4381 5.14836 17.0589 5.10965 16.6797L3.59998 16.2617L5.05546 15.689C5.05546 15.302 5.07094 14.9151 5.10965 14.5358L3.72385 13.8161L5.25675 13.5607C5.33417 13.1814 5.42707 12.8177 5.53546 12.4539L4.31998 11.4865L5.8761 11.5252C6.03094 11.1692 6.20127 10.8132 6.38707 10.4804L5.3961 9.28075L6.90578 9.64451C7.12256 9.32719 7.36256 9.01761 7.61804 8.72351L6.89804 7.34589L8.29159 8.01149C8.5703 7.74835 8.85675 7.49294 9.15868 7.26076L8.71739 5.77479L9.9561 6.69578C10.289 6.48682 10.6297 6.29333 10.978 6.12306L10.8542 4.58291L11.8761 5.74383C12.2322 5.61226 12.5961 5.49617 12.9755 5.4033L13.1458 3.87089L13.9277 5.20981C14.3071 5.14789 14.6942 5.1092 15.089 5.09372L15.1045 5.0705Z" fill="url(#paint0_radial_306_5345)"/>
<g filter="url(#filter0_d_306_5345)">
<path d="M2 13.4706C2 12.3213 2.76071 11.3326 3.8159 11.0365C3.80117 10.891 3.79136 10.7454 3.79136 10.5999C3.79136 8.3967 5.54836 6.60001 7.7078 6.60001C9.19487 6.60001 10.5592 7.48831 11.2169 8.84336C11.4721 8.75804 11.7371 8.71789 12.0169 8.71789C12.7874 8.71789 13.5089 9.06418 13.9996 9.65639C14.4413 9.39541 14.9518 9.25489 15.4622 9.25489C16.9247 9.25489 18.1418 10.3439 18.3676 11.7843C18.4265 11.7893 19.9626 11.7994 20.0215 11.8094C20.9933 11.98 21.7344 12.8483 21.7344 13.8871C21.7344 14.926 20.9344 15.8595 19.9087 15.985C19.8301 15.995 18.2793 16 18.1958 16H4.46864C3.10917 16 2 14.8708 2 13.4756V13.4706Z" fill="url(#paint1_linear_306_5345)"/>
</g>
<defs>
<filter id="filter0_d_306_5345" x="1.7" y="6.40001" width="20.5344" height="10.2" filterUnits="userSpaceOnUse" color-interpolation-filters="sRGB">
<feFlood flood-opacity="0" result="BackgroundImageFix"/>
<feColorMatrix in="SourceAlpha" type="matrix" values="0 0 0 0 0 0 0 0 0 0 0 0 0 0 0 0 0 0 127 0" result="hardAlpha"/>
<feOffset dx="0.1" dy="0.2"/>
<feGaussianBlur stdDeviation="0.2"/>
<feComposite in2="hardAlpha" operator="out"/>
<feColorMatrix type="matrix" values="0 0 0 0 0 0 0 0 0 0 0 0 0 0 0 0 0 0 0.05 0"/>
<feBlend mode="normal" in2="BackgroundImageFix" result="effect1_dropShadow_306_5345"/>
<feBlend mode="normal" in="SourceGraphic" in2="effect1_dropShadow_306_5345" result="shape"/>
</filter>
<radialGradient id="paint0_radial_306_5345" cx="0" cy="0" r="1" gradientUnits="userSpaceOnUse" gradientTransform="translate(21.6 4.98462) rotate(115.017) scale(22.9195 20.0013)">
<stop stop-color="#FFFC00"/>
<stop offset="0.567708" stop-color="#F8BA28"/>
</radialGradient>
<linearGradient id="paint1_linear_306_5345" x1="27" y1="27.3" x2="2" y2="3.3" gradientUnits="userSpaceOnUse">
<stop offset="0.0573981" stop-color="white"/>
<stop offset="0.533473" stop-color="#F5F5F5"/>
<stop offset="1" stop-color="#A1A6B3"/>
</linearGradient>
</defs>
</svg>
