<svg width="32" height="32" viewBox="0 0 32 32" fill="none" xmlns="http://www.w3.org/2000/svg">
<g clip-path="url(#clip0_362_1193)">
<path d="M19.3271 3.62544L19.7335 2.40002L20.14 3.62544C20.469 3.63833 20.7916 3.67703 21.1077 3.72218L21.7658 2.60641L21.9077 3.88987C22.2174 3.96726 22.5206 4.064 22.8174 4.1801L23.6755 3.21267L23.5722 4.50902C23.8626 4.65091 24.1464 4.81215 24.4174 4.97984L25.4626 4.20589L25.0948 5.45065C25.34 5.64414 25.5787 5.85052 25.811 6.06981L26.9852 5.5087L26.3787 6.66961C26.5851 6.9147 26.7852 7.16623 26.9658 7.43066L28.2368 7.12108L27.3981 8.13366C27.5529 8.41099 27.6948 8.70122 27.8174 8.99145L29.1335 8.95275L28.1013 9.77184C28.1916 10.0685 28.269 10.3652 28.3335 10.6748L29.6303 10.8941L28.4561 11.5068C28.4884 11.8228 28.5013 12.1388 28.5013 12.4548L29.74 12.9386L28.4626 13.2933C28.4303 13.6093 28.3787 13.9189 28.3206 14.222L29.4368 14.9573L28.1077 15.0347C28.0174 15.3313 27.9077 15.6151 27.7852 15.8989L28.74 16.8341L27.4174 16.6599C27.2626 16.9308 27.1013 17.1953 26.9206 17.4532L27.6626 18.569L26.3981 18.1175C26.1981 18.3497 25.9916 18.569 25.7658 18.7818L26.2819 20.0201L25.1206 19.3365C24.8755 19.5235 24.6174 19.7041 24.3593 19.8718L24.6045 21.194L23.6174 20.2846C23.34 20.42 23.0497 20.5426 22.7593 20.6522L22.7271 22.0002L21.9529 20.9102C21.6626 20.9876 21.3593 21.0456 21.0561 21.0908L20.7658 22.4L20.211 21.1746C19.9013 21.194 19.5916 21.194 19.2755 21.1746L18.7206 22.4L18.4303 21.0908C18.1271 21.0456 17.8303 20.9876 17.5335 20.9102L16.7593 22.0002L16.7271 20.6651C16.4303 20.5555 16.14 20.4329 15.8626 20.2975L14.8819 21.2004L15.1271 19.8912C14.8626 19.7235 14.6045 19.5493 14.3529 19.3558L13.2045 20.033L13.7142 18.8076C13.4884 18.5948 13.2755 18.3755 13.0755 18.1369L11.8303 18.5819L12.5593 17.479C12.3787 17.2211 12.2045 16.9502 12.0561 16.6728L10.7464 16.847L11.6819 15.9247C11.5593 15.6409 11.4497 15.3442 11.3529 15.0476L10.0497 14.9702L11.1464 14.2478C11.0819 13.9318 11.0303 13.6158 10.9981 13.2997L9.73999 12.9515L10.9529 12.4742C10.9529 12.1517 10.9658 11.8292 10.9981 11.5132L9.84322 10.9134L11.1206 10.7006C11.1852 10.3845 11.2626 10.0814 11.3529 9.77829L10.34 8.9721L11.6368 9.00435C11.7658 8.70767 11.9077 8.41099 12.0626 8.13366L11.2368 7.13398L12.4948 7.43711C12.6755 7.17268 12.8755 6.9147 13.0884 6.66961L12.4884 5.5216L13.6497 6.07626C13.8819 5.85697 14.1206 5.64414 14.3722 5.45065L14.0045 4.21234L15.0368 4.97984C15.3142 4.8057 15.5981 4.64446 15.8884 4.50257L15.7852 3.21912L16.6368 4.18654C16.9335 4.0769 17.2368 3.98016 17.5529 3.90277L17.6948 2.62576L18.3464 3.74153C18.6626 3.68993 18.9852 3.65768 19.3142 3.64478L19.3271 3.62544Z" fill="url(#paint0_radial_362_1193)"/>
<g filter="url(#filter0_d_362_1193)">
<path d="M17.0589 11.9136C17.8104 11.5037 18.6497 11.2792 19.4988 11.2792C22.0753 11.2792 24.2224 13.2311 24.4956 15.7783C26.7989 15.144 29.19 16.481 29.8438 18.794C29.9414 19.1747 30 19.565 30 19.9554C30 22.3563 28.0774 24.2887 25.6765 24.2984C25.13 24.2984 24.5932 24.2008 24.0857 23.9959C23.4026 24.4936 22.5047 24.7962 21.5092 24.7962C20.4064 24.7962 19.4207 24.4253 18.7278 23.8397C17.2346 24.435 15.2339 24.7962 13.0185 24.7962C10.8031 24.7962 8.84141 24.435 7.35796 23.8592C6.80167 24.2106 6.15755 24.3862 5.51342 24.3862C3.56152 24.3862 2 22.8052 2 20.8728C2 19.7993 2.47822 18.8331 3.2297 18.1792C2.82956 17.3984 3.14186 16.4322 3.93238 16.0321C4.07877 15.9638 4.22517 15.9052 4.38132 15.8857C4.313 15.5051 4.28372 15.1147 4.28372 14.7243C4.28372 11.0157 7.28965 8 10.9885 8C13.6138 8 15.9854 9.53225 17.0687 11.9233L17.0589 11.9136Z" fill="url(#paint1_linear_362_1193)"/>
</g>
</g>
<path d="M12.8438 26.2364H11.0061L12.3052 27.5355C12.5164 27.7361 12.527 28.0635 12.3263 28.2642C12.3263 28.2642 12.3157 28.2748 12.3052 28.2853C12.0939 28.4966 11.6609 28.3909 11.5447 28.2853L10.2457 26.9863V28.824C10.2457 29.1302 9.99222 29.3732 9.68594 29.3626C9.37966 29.3626 9.13674 29.1197 9.12618 28.824V26.9863L7.82713 28.2853C7.56309 28.581 7.18288 28.3909 7.07727 28.2853C6.97165 28.1797 6.86604 27.7361 7.07727 27.5249L8.37632 26.2259H6.53863C6.24291 26.2259 6 25.9618 6 25.6661C6 25.3704 6.24291 25.1063 6.53863 25.1063H8.37632L7.07727 23.8073C6.86604 23.5961 6.86604 23.2687 7.07727 23.0574C7.28849 22.8462 7.6159 22.8462 7.82713 23.0574L9.12618 24.3565V22.5294C9.15787 22.2231 9.4219 21.9802 9.72818 22.0013C10.0133 22.0224 10.2351 22.2442 10.2563 22.5294V24.367L11.5553 23.068C11.7665 22.8568 12.1045 22.8568 12.3157 23.068C12.527 23.2792 12.527 23.6172 12.3157 23.8284L11.0167 25.1275H12.8544C13.1606 25.1275 13.393 25.3704 13.393 25.6661V25.6978C13.393 25.9935 13.1501 26.2364 12.8544 26.2364H12.8438ZM24.4614 26.2364H22.6237L23.9227 27.5355C24.134 27.7361 24.1445 28.0635 23.9439 28.2642C23.9439 28.2642 23.9333 28.2748 23.9227 28.2853C23.7115 28.4966 23.2785 28.3909 23.1623 28.2853L21.8633 26.9863V28.824C21.8633 29.1302 21.6098 29.3732 21.3035 29.3626C20.9972 29.3626 20.7543 29.1197 20.7437 28.824V26.9863L19.4447 28.2853C19.1807 28.581 18.8004 28.3909 18.6948 28.2853C18.5892 28.1797 18.4836 27.7361 18.6948 27.5249L19.9939 26.2259H18.1562C17.8605 26.2259 17.607 25.9618 17.607 25.6661C17.607 25.3704 17.8499 25.1063 18.1562 25.1063H19.9939L18.6948 23.8073C18.4836 23.5961 18.4836 23.2687 18.6948 23.0574C18.9061 22.8462 19.2335 22.8462 19.4447 23.0574L20.7437 24.3565V22.5294C20.7649 22.2231 21.0289 21.9802 21.3352 22.0013C21.6203 22.0224 21.8421 22.2442 21.8633 22.5294V24.367L23.1623 23.068C23.3735 22.8568 23.7115 22.8568 23.9227 23.068C24.134 23.2792 24.134 23.6172 23.9227 23.8284L22.6237 25.1275H24.4614C24.7676 25.1275 25 25.3704 25 25.6661V25.6978C25 25.9935 24.7571 26.2364 24.4614 26.2364Z" fill="url(#paint2_linear_362_1193)"/>
<defs>
<filter id="filter0_d_362_1193" x="1.8" y="7.4" width="28.8" height="17.5961" filterUnits="userSpaceOnUse" color-interpolation-filters="sRGB">
<feFlood flood-opacity="0" result="BackgroundImageFix"/>
<feColorMatrix in="SourceAlpha" type="matrix" values="0 0 0 0 0 0 0 0 0 0 0 0 0 0 0 0 0 0 127 0" result="hardAlpha"/>
<feOffset dx="0.2" dy="-0.2"/>
<feGaussianBlur stdDeviation="0.2"/>
<feComposite in2="hardAlpha" operator="out"/>
<feColorMatrix type="matrix" values="0 0 0 0 0 0 0 0 0 0 0 0 0 0 0 0 0 0 0.05 0"/>
<feBlend mode="normal" in2="BackgroundImageFix" result="effect1_dropShadow_362_1193"/>
<feBlend mode="normal" in="SourceGraphic" in2="effect1_dropShadow_362_1193" result="shape"/>
</filter>
<radialGradient id="paint0_radial_362_1193" cx="0" cy="0" r="1" gradientUnits="userSpaceOnUse" gradientTransform="translate(24.74 3.55387) rotate(115.017) scale(19.0996 16.6677)">
<stop stop-color="#FFFC00"/>
<stop offset="0.567708" stop-color="#F8BA28"/>
</radialGradient>
<linearGradient id="paint1_linear_362_1193" x1="20.3479" y1="11.084" x2="11.6814" y2="27.1579" gradientUnits="userSpaceOnUse">
<stop stop-color="white"/>
<stop offset="1" stop-color="#8F95A3"/>
</linearGradient>
<linearGradient id="paint2_linear_362_1193" x1="15.4419" y1="24.6121" x2="15.4419" y2="29.6987" gradientUnits="userSpaceOnUse">
<stop offset="0.260417" stop-color="#4ACCFF"/>
<stop offset="0.723958" stop-color="#18A2D9"/>
</linearGradient>
<clipPath id="clip0_362_1193">
<rect width="28" height="24" fill="white" transform="translate(2 1)"/>
</clipPath>
</defs>
</svg>
