<svg width="32" height="32" viewBox="0 0 32 32" fill="none" xmlns="http://www.w3.org/2000/svg">
<g filter="url(#filter0_d_362_1197)">
<path d="M19.3757 7.52733C19.9892 7.1806 20.6827 7.00279 21.385 7.00279C23.501 7.00279 25.2613 8.60309 25.4836 10.7013C27.3773 10.1767 29.3421 11.2792 29.8666 13.1729C29.9555 13.484 30 13.8041 30 14.133C30 16.0979 28.4175 17.6982 26.4438 17.6982C25.9992 17.6982 25.5547 17.6182 25.1368 17.4492C24.5767 17.8582 23.8388 18.0982 23.0209 18.0982C22.1229 18.0982 21.3139 17.796 20.736 17.3159C19.5091 17.8049 17.8643 18.0982 16.0507 18.0982C14.237 18.0982 12.6189 17.8049 11.4009 17.3248C10.9475 17.6093 10.414 17.7604 9.8806 17.7604C8.28918 17.7604 6.99115 16.4624 7.00005 14.871C7.00005 13.9908 7.39123 13.1995 8.01357 12.6661C7.68462 12.0171 7.94245 11.2347 8.59146 10.9058C8.70704 10.8435 8.83151 10.808 8.96487 10.7813C8.91152 10.4612 8.88485 10.1412 8.88485 9.82111C8.88485 6.77163 11.3475 4.30005 14.3792 4.30005C16.5308 4.30005 18.4867 5.55362 19.3757 7.51844V7.52733Z" fill="url(#paint0_linear_362_1197)"/>
</g>
<g filter="url(#filter1_d_362_1197)">
<path d="M17.0589 11.9564C17.8104 11.5465 18.6497 11.322 19.4988 11.322C22.0753 11.322 24.2224 13.274 24.4956 15.8212C26.7989 15.1868 29.19 16.5239 29.8438 18.8369C29.9414 19.2175 30 19.6079 30 19.9983C30 22.3991 28.0774 24.3315 25.6765 24.3413C25.13 24.3413 24.5932 24.2437 24.0857 24.0387C23.4026 24.5365 22.5047 24.839 21.5092 24.839C20.4064 24.839 19.4207 24.4681 18.7278 23.8826C17.2346 24.4779 15.2339 24.839 13.0185 24.839C10.8031 24.839 8.84141 24.4779 7.35796 23.9021C6.80167 24.2534 6.15755 24.4291 5.51342 24.4291C3.56152 24.4291 2 22.8481 2 20.9157C2 19.8421 2.47822 18.8759 3.2297 18.222C2.82956 17.4413 3.14186 16.4751 3.93238 16.0749C4.07877 16.0066 4.22517 15.9481 4.38132 15.9285C4.313 15.5479 4.28372 15.1575 4.28372 14.7672C4.28372 11.0585 7.28965 8.04285 10.9885 8.04285C13.6138 8.04285 15.9854 9.57509 17.0687 11.9662L17.0589 11.9564Z" fill="url(#paint1_linear_362_1197)"/>
</g>
<path d="M12.8438 26.2364H11.0061L12.3052 27.5355C12.5164 27.7361 12.527 28.0635 12.3263 28.2642C12.3263 28.2642 12.3157 28.2748 12.3052 28.2853C12.0939 28.4966 11.6609 28.3909 11.5447 28.2853L10.2457 26.9863V28.824C10.2457 29.1302 9.99222 29.3732 9.68594 29.3626C9.37966 29.3626 9.13674 29.1197 9.12618 28.824V26.9863L7.82713 28.2853C7.56309 28.581 7.18288 28.3909 7.07727 28.2853C6.97165 28.1797 6.86604 27.7361 7.07727 27.5249L8.37632 26.2259H6.53863C6.24291 26.2259 6 25.9618 6 25.6661C6 25.3704 6.24291 25.1063 6.53863 25.1063H8.37632L7.07727 23.8073C6.86604 23.5961 6.86604 23.2687 7.07727 23.0574C7.28849 22.8462 7.6159 22.8462 7.82713 23.0574L9.12618 24.3565V22.5294C9.15787 22.2231 9.4219 21.9802 9.72818 22.0013C10.0133 22.0224 10.2351 22.2442 10.2563 22.5294V24.367L11.5553 23.068C11.7665 22.8568 12.1045 22.8568 12.3157 23.068C12.527 23.2792 12.527 23.6172 12.3157 23.8284L11.0167 25.1275H12.8544C13.1606 25.1275 13.393 25.3704 13.393 25.6661V25.6978C13.393 25.9935 13.1501 26.2364 12.8544 26.2364H12.8438ZM24.4614 26.2364H22.6237L23.9227 27.5355C24.134 27.7361 24.1445 28.0635 23.9439 28.2642C23.9439 28.2642 23.9333 28.2748 23.9227 28.2853C23.7115 28.4966 23.2785 28.3909 23.1623 28.2853L21.8633 26.9863V28.824C21.8633 29.1302 21.6098 29.3732 21.3035 29.3626C20.9972 29.3626 20.7543 29.1197 20.7437 28.824V26.9863L19.4447 28.2853C19.1807 28.581 18.8004 28.3909 18.6948 28.2853C18.5892 28.1797 18.4836 27.7361 18.6948 27.5249L19.9939 26.2259H18.1562C17.8605 26.2259 17.607 25.9618 17.607 25.6661C17.607 25.3704 17.8499 25.1063 18.1562 25.1063H19.9939L18.6948 23.8073C18.4836 23.5961 18.4836 23.2687 18.6948 23.0574C18.9061 22.8462 19.2335 22.8462 19.4447 23.0574L20.7437 24.3565V22.5294C20.7649 22.2231 21.0289 21.9802 21.3352 22.0013C21.6203 22.0224 21.8421 22.2442 21.8633 22.5294V24.367L23.1623 23.068C23.3735 22.8568 23.7115 22.8568 23.9227 23.068C24.134 23.2792 24.134 23.6172 23.9227 23.8284L22.6237 25.1275H24.4614C24.7676 25.1275 25 25.3704 25 25.6661V25.6978C25 25.9935 24.7571 26.2364 24.4614 26.2364Z" fill="url(#paint2_linear_362_1197)"/>
<defs>
<filter id="filter0_d_362_1197" x="6.80288" y="4.10293" width="23.7885" height="14.5867" filterUnits="userSpaceOnUse" color-interpolation-filters="sRGB">
<feFlood flood-opacity="0" result="BackgroundImageFix"/>
<feColorMatrix in="SourceAlpha" type="matrix" values="0 0 0 0 0 0 0 0 0 0 0 0 0 0 0 0 0 0 127 0" result="hardAlpha"/>
<feOffset dx="0.197117" dy="0.197117"/>
<feGaussianBlur stdDeviation="0.197117"/>
<feComposite in2="hardAlpha" operator="out"/>
<feColorMatrix type="matrix" values="0 0 0 0 0 0 0 0 0 0 0 0 0 0 0 0 0 0 0.05 0"/>
<feBlend mode="normal" in2="BackgroundImageFix" result="effect1_dropShadow_362_1197"/>
<feBlend mode="normal" in="SourceGraphic" in2="effect1_dropShadow_362_1197" result="shape"/>
</filter>
<filter id="filter1_d_362_1197" x="1.8" y="7.44285" width="28.8" height="17.5961" filterUnits="userSpaceOnUse" color-interpolation-filters="sRGB">
<feFlood flood-opacity="0" result="BackgroundImageFix"/>
<feColorMatrix in="SourceAlpha" type="matrix" values="0 0 0 0 0 0 0 0 0 0 0 0 0 0 0 0 0 0 127 0" result="hardAlpha"/>
<feOffset dx="0.2" dy="-0.2"/>
<feGaussianBlur stdDeviation="0.2"/>
<feComposite in2="hardAlpha" operator="out"/>
<feColorMatrix type="matrix" values="0 0 0 0 0 0 0 0 0 0 0 0 0 0 0 0 0 0 0.05 0"/>
<feBlend mode="normal" in2="BackgroundImageFix" result="effect1_dropShadow_362_1197"/>
<feBlend mode="normal" in="SourceGraphic" in2="effect1_dropShadow_362_1197" result="shape"/>
</filter>
<linearGradient id="paint0_linear_362_1197" x1="21.9984" y1="6.96723" x2="17.9532" y2="15.6978" gradientUnits="userSpaceOnUse">
<stop stop-color="#D7D7E1"/>
<stop offset="0.479961" stop-color="#8F95A3"/>
</linearGradient>
<linearGradient id="paint1_linear_362_1197" x1="20.3479" y1="11.1269" x2="11.6814" y2="27.2008" gradientUnits="userSpaceOnUse">
<stop stop-color="white"/>
<stop offset="1" stop-color="#8F95A3"/>
</linearGradient>
<linearGradient id="paint2_linear_362_1197" x1="15.4419" y1="24.6121" x2="15.4419" y2="29.6987" gradientUnits="userSpaceOnUse">
<stop offset="0.260417" stop-color="#4ACCFF"/>
<stop offset="0.723958" stop-color="#18A2D9"/>
</linearGradient>
</defs>
</svg>
