<svg width="32" height="32" viewBox="0 0 32 32" fill="none" xmlns="http://www.w3.org/2000/svg">
<g clip-path="url(#clip0_355_881)">
<path d="M19.3271 3.62541L19.7335 2.39999L20.14 3.62541C20.469 3.6383 20.7916 3.677 21.1077 3.72215L21.7658 2.60638L21.9077 3.88984C22.2174 3.96723 22.5206 4.06397 22.8174 4.18006L23.6755 3.21263L23.5722 4.50899C23.8626 4.65088 24.1464 4.81212 24.4174 4.97981L25.4626 4.20586L25.0948 5.45062C25.34 5.64411 25.5787 5.85049 25.811 6.06978L26.9852 5.50867L26.3787 6.66958C26.5851 6.91467 26.7852 7.1662 26.9658 7.43063L28.2368 7.12105L27.3981 8.13363C27.5529 8.41096 27.6948 8.70119 27.8174 8.99142L29.1335 8.95272L28.1013 9.77181C28.1916 10.0685 28.269 10.3652 28.3335 10.6747L29.6303 10.894L28.4561 11.5067C28.4884 11.8228 28.5013 12.1388 28.5013 12.4548L29.74 12.9385L28.4626 13.2933C28.4303 13.6093 28.3787 13.9189 28.3206 14.222L29.4368 14.9572L28.1077 15.0346C28.0174 15.3313 27.9077 15.6151 27.7852 15.8989L28.74 16.834L27.4174 16.6599C27.2626 16.9308 27.1013 17.1952 26.9206 17.4532L27.6626 18.569L26.3981 18.1175C26.1981 18.3497 25.9916 18.569 25.7658 18.7818L26.2819 20.0201L25.1206 19.3365C24.8755 19.5235 24.6174 19.7041 24.3593 19.8718L24.6045 21.1939L23.6174 20.2845C23.34 20.42 23.0497 20.5425 22.7593 20.6522L22.7271 22.0001L21.9529 20.9102C21.6626 20.9875 21.3593 21.0456 21.0561 21.0907L20.7658 22.4L20.211 21.1746C19.9013 21.1939 19.5916 21.1939 19.2755 21.1746L18.7206 22.4L18.4303 21.0907C18.1271 21.0456 17.8303 20.9875 17.5335 20.9102L16.7593 22.0001L16.7271 20.6651C16.4303 20.5554 16.14 20.4329 15.8626 20.2974L14.8819 21.2004L15.1271 19.8911C14.8626 19.7234 14.6045 19.5493 14.3529 19.3558L13.2045 20.033L13.7142 18.8076C13.4884 18.5948 13.2755 18.3755 13.0755 18.1369L11.8303 18.5819L12.5593 17.479C12.3787 17.221 12.2045 16.9501 12.0561 16.6728L10.7464 16.8469L11.6819 15.9247C11.5593 15.6409 11.4497 15.3442 11.3529 15.0475L10.0497 14.9701L11.1464 14.2478C11.0819 13.9318 11.0303 13.6157 10.9981 13.2997L9.73999 12.9514L10.9529 12.4742C10.9529 12.1517 10.9658 11.8292 10.9981 11.5132L9.84322 10.9134L11.1206 10.7005C11.1852 10.3845 11.2626 10.0814 11.3529 9.77826L10.34 8.97207L11.6368 9.00431C11.7658 8.70764 11.9077 8.41096 12.0626 8.13363L11.2368 7.13395L12.4948 7.43708C12.6755 7.17265 12.8755 6.91467 13.0884 6.66958L12.4884 5.52157L13.6497 6.07623C13.8819 5.85694 14.1206 5.64411 14.3722 5.45062L14.0045 4.21231L15.0368 4.97981C15.3142 4.80567 15.5981 4.64443 15.8884 4.50254L15.7852 3.21908L16.6368 4.18651C16.9335 4.07687 17.2368 3.98013 17.5529 3.90273L17.6948 2.62573L18.3464 3.7415C18.6626 3.6899 18.9852 3.65765 19.3142 3.64475L19.3271 3.62541Z" fill="url(#paint0_radial_355_881)"/>
<g filter="url(#filter0_d_355_881)">
<path d="M17.0589 11.9136C17.8104 11.5037 18.6497 11.2792 19.4988 11.2792C22.0753 11.2792 24.2224 13.2311 24.4956 15.7783C26.7989 15.144 29.19 16.481 29.8438 18.794C29.9414 19.1747 30 19.565 30 19.9554C30 22.3563 28.0774 24.2887 25.6765 24.2984C25.13 24.2984 24.5932 24.2008 24.0857 23.9959C23.4026 24.4936 22.5047 24.7962 21.5092 24.7962C20.4064 24.7962 19.4207 24.4253 18.7278 23.8397C17.2346 24.435 15.2339 24.7962 13.0185 24.7962C10.8031 24.7962 8.84141 24.435 7.35796 23.8592C6.80167 24.2106 6.15755 24.3862 5.51342 24.3862C3.56152 24.3862 2 22.8052 2 20.8728C2 19.7993 2.47822 18.8331 3.2297 18.1792C2.82956 17.3984 3.14186 16.4322 3.93238 16.0321C4.07877 15.9638 4.22517 15.9052 4.38132 15.8857C4.313 15.5051 4.28372 15.1147 4.28372 14.7243C4.28372 11.0157 7.28965 8 10.9885 8C13.6138 8 15.9854 9.53225 17.0687 11.9233L17.0589 11.9136Z" fill="url(#paint1_linear_355_881)"/>
</g>
</g>
<path fill-rule="evenodd" clip-rule="evenodd" d="M18.4887 25.7489C17.7259 25.2954 17.4185 24.4017 17.8032 23.7488C18.1862 23.0991 21.5843 19.8863 21.8239 20.0031C22.0634 20.12 20.9513 24.7398 20.5667 25.3911C20.1836 26.044 19.2531 26.2056 18.4887 25.7489Z" fill="url(#paint2_linear_355_881)"/>
<path fill-rule="evenodd" clip-rule="evenodd" d="M8.77544 25.7489C8.01265 25.2954 7.70523 24.4017 8.08992 23.7488C8.47296 23.0991 11.871 19.8863 12.1106 20.0031C12.3502 20.12 11.2381 24.7398 10.8534 25.3911C10.4704 26.044 9.53988 26.2056 8.77544 25.7489Z" fill="url(#paint3_linear_355_881)"/>
<path fill-rule="evenodd" clip-rule="evenodd" d="M21.5208 29.8932C20.6062 29.3495 20.2376 28.2779 20.6989 27.495C21.1581 26.716 25.2326 22.8636 25.5199 23.0037C25.8071 23.1438 24.4737 28.6832 24.0124 29.4642C23.5531 30.2471 22.4374 30.4409 21.5208 29.8932Z" fill="url(#paint4_linear_355_881)"/>
<path fill-rule="evenodd" clip-rule="evenodd" d="M12.0208 29.8932C11.1062 29.3495 10.7376 28.2779 11.1989 27.495C11.6581 26.716 15.7326 22.8636 16.0199 23.0037C16.3071 23.1438 14.9737 28.6832 14.5124 29.4642C14.0531 30.2471 12.9374 30.4409 12.0208 29.8932Z" fill="url(#paint5_linear_355_881)"/>
<path fill-rule="evenodd" clip-rule="evenodd" d="M2.52084 29.8932C1.60621 29.3495 1.2376 28.2779 1.69885 27.4949C2.15814 26.716 6.2326 22.8636 6.51987 23.0037C6.80714 23.1438 5.47367 28.6832 5.01241 29.4642C4.55313 30.2471 3.43744 30.4409 2.52084 29.8932Z" fill="url(#paint6_linear_355_881)"/>
<defs>
<filter id="filter0_d_355_881" x="1.8" y="7.4" width="28.8" height="17.5961" filterUnits="userSpaceOnUse" color-interpolation-filters="sRGB">
<feFlood flood-opacity="0" result="BackgroundImageFix"/>
<feColorMatrix in="SourceAlpha" type="matrix" values="0 0 0 0 0 0 0 0 0 0 0 0 0 0 0 0 0 0 127 0" result="hardAlpha"/>
<feOffset dx="0.2" dy="-0.2"/>
<feGaussianBlur stdDeviation="0.2"/>
<feComposite in2="hardAlpha" operator="out"/>
<feColorMatrix type="matrix" values="0 0 0 0 0 0 0 0 0 0 0 0 0 0 0 0 0 0 0.05 0"/>
<feBlend mode="normal" in2="BackgroundImageFix" result="effect1_dropShadow_355_881"/>
<feBlend mode="normal" in="SourceGraphic" in2="effect1_dropShadow_355_881" result="shape"/>
</filter>
<radialGradient id="paint0_radial_355_881" cx="0" cy="0" r="1" gradientUnits="userSpaceOnUse" gradientTransform="translate(24.74 3.55384) rotate(115.017) scale(19.0996 16.6677)">
<stop stop-color="#FFFC00"/>
<stop offset="0.567708" stop-color="#F8BA28"/>
</radialGradient>
<linearGradient id="paint1_linear_355_881" x1="20.3479" y1="11.084" x2="11.6814" y2="27.1579" gradientUnits="userSpaceOnUse">
<stop stop-color="white"/>
<stop offset="1" stop-color="#8F95A3"/>
</linearGradient>
<linearGradient id="paint2_linear_355_881" x1="19.0284" y1="22.1079" x2="16.7373" y2="24.0321" gradientUnits="userSpaceOnUse">
<stop stop-color="#3794FA"/>
<stop offset="0.999604" stop-color="#83BEFF"/>
</linearGradient>
<linearGradient id="paint3_linear_355_881" x1="9.31517" y1="22.1079" x2="7.02404" y2="24.0321" gradientUnits="userSpaceOnUse">
<stop stop-color="#3794FA"/>
<stop offset="0.999604" stop-color="#83BEFF"/>
</linearGradient>
<linearGradient id="paint4_linear_355_881" x1="22.168" y1="25.5275" x2="19.4208" y2="27.8347" gradientUnits="userSpaceOnUse">
<stop stop-color="#3794FA"/>
<stop offset="0.999604" stop-color="#83BEFF"/>
</linearGradient>
<linearGradient id="paint5_linear_355_881" x1="12.668" y1="25.5275" x2="9.92081" y2="27.8347" gradientUnits="userSpaceOnUse">
<stop stop-color="#3794FA"/>
<stop offset="0.999604" stop-color="#83BEFF"/>
</linearGradient>
<linearGradient id="paint6_linear_355_881" x1="3.168" y1="25.5275" x2="0.420809" y2="27.8347" gradientUnits="userSpaceOnUse">
<stop stop-color="#3794FA"/>
<stop offset="0.999604" stop-color="#83BEFF"/>
</linearGradient>
<clipPath id="clip0_355_881">
<rect width="28" height="24" fill="white" transform="translate(2 1)"/>
</clipPath>
</defs>
</svg>
