<svg width="32" height="32" viewBox="0 0 32 32" fill="none" xmlns="http://www.w3.org/2000/svg">
<path d="M15.1045 5.0705L15.5922 3.60001L16.08 5.0705C16.4748 5.08598 16.8619 5.13241 17.2413 5.18659L18.0309 3.84767L18.2013 5.38782C18.5729 5.48069 18.9368 5.59678 19.2929 5.73609L20.3226 4.57518L20.1987 6.1308C20.5471 6.30107 20.8877 6.49456 21.2129 6.69578L22.4671 5.76705L22.0258 7.26076C22.32 7.49294 22.6064 7.74061 22.8851 8.00375L24.2942 7.33042L23.5664 8.72351C23.8142 9.01761 24.0542 9.31945 24.2709 9.63677L25.7961 9.26528L24.7897 10.4804C24.9755 10.8132 25.1458 11.1614 25.2929 11.5097L26.8722 11.4633L25.6335 12.4462C25.7419 12.8022 25.8348 13.1582 25.9122 13.5297L27.4684 13.7928L26.0593 14.5281C26.098 14.9073 26.1135 15.2866 26.1135 15.6658L27.6 16.2462L26.0671 16.6719C26.0284 17.0512 25.9664 17.4226 25.8967 17.7864L27.2361 18.6687L25.6413 18.7616C25.5329 19.1176 25.4013 19.4581 25.2542 19.7987L26.4 20.9209L24.8129 20.7119C24.6271 21.037 24.4335 21.3543 24.2167 21.6639L25.1071 23.0028L23.5897 22.461C23.3497 22.7396 23.1019 23.0028 22.8309 23.2582L23.4503 24.7442L22.0567 23.9238C21.7626 24.1482 21.4529 24.3649 21.1432 24.5661L21.4374 26.1527L20.2529 25.0615C19.92 25.224 19.5716 25.371 19.2232 25.5026L19.1845 27.1202L18.2555 25.8122C17.9071 25.9051 17.5432 25.9747 17.1793 26.0289L16.8309 27.6L16.1651 26.1295C15.7935 26.1527 15.4219 26.1527 15.0426 26.1295L14.3767 27.6L14.0284 26.0289C13.6645 25.9747 13.3084 25.9051 12.9522 25.8122L12.0232 27.1202L11.9845 25.5181C11.6284 25.3865 11.28 25.2395 10.9471 25.077L9.7703 26.1605L10.0645 24.5894C9.74707 24.3881 9.43739 24.1792 9.13546 23.947L7.75739 24.7596L8.36901 23.2891C8.09804 23.0337 7.84256 22.7706 7.60256 22.4842L6.10836 23.0183L6.9832 21.6948C6.76643 21.3852 6.55739 21.0602 6.37933 20.7274L4.80772 20.9363L5.9303 19.8296C5.7832 19.4891 5.65159 19.1331 5.53546 18.777L3.97159 18.6842L5.28772 17.8174C5.2103 17.4381 5.14836 17.0589 5.10965 16.6797L3.59998 16.2617L5.05546 15.689C5.05546 15.302 5.07094 14.9151 5.10965 14.5358L3.72385 13.8161L5.25675 13.5607C5.33417 13.1814 5.42707 12.8177 5.53546 12.4539L4.31998 11.4865L5.8761 11.5252C6.03094 11.1692 6.20127 10.8132 6.38707 10.4804L5.3961 9.28075L6.90578 9.64451C7.12256 9.32719 7.36256 9.01761 7.61804 8.72351L6.89804 7.34589L8.29159 8.01149C8.5703 7.74835 8.85675 7.49294 9.15868 7.26076L8.71739 5.77479L9.9561 6.69578C10.289 6.48682 10.6297 6.29333 10.978 6.12306L10.8542 4.58291L11.8761 5.74383C12.2322 5.61226 12.5961 5.49617 12.9755 5.4033L13.1458 3.87089L13.9277 5.20981C14.3071 5.14789 14.6942 5.1092 15.089 5.09372L15.1045 5.0705Z" fill="url(#paint0_radial_306_5349)"/>
<g filter="url(#filter0_d_306_5349)">
<path d="M20.7505 14.3887C21.2896 14.093 21.8816 13.9345 22.4947 13.9345C24.334 13.9345 25.8668 15.3289 26.0677 17.1458C27.7167 16.6915 29.4186 17.6528 29.8837 19.3007C29.9577 19.5753 30 19.85 30 20.1352C30 21.8465 28.6258 23.2303 26.9133 23.2408C26.5222 23.2408 26.1416 23.1669 25.7822 23.0296C25.296 23.3781 24.6512 23.6 23.9429 23.6C23.1607 23.6 22.4524 23.3359 21.9556 22.9239C20.8879 23.3465 19.4609 23.6 17.8753 23.6C16.2896 23.6 14.8943 23.3465 13.8372 22.9239C13.4355 23.1669 12.981 23.3042 12.5159 23.3042C11.1205 23.3042 10 22.1739 10 20.7901C10 20.019 10.3488 19.3324 10.8774 18.8676C10.592 18.3077 10.814 17.6211 11.3848 17.3359C11.4905 17.2831 11.5962 17.2514 11.7019 17.2303C11.649 16.9556 11.6279 16.681 11.6279 16.3958C11.6279 13.7444 13.7738 11.6 16.4165 11.6C18.2875 11.6 19.9894 12.6986 20.7611 14.3993L20.7505 14.3887Z" fill="url(#paint1_linear_306_5349)"/>
</g>
<defs>
<filter id="filter0_d_306_5349" x="9.4" y="11" width="20.8" height="12.8" filterUnits="userSpaceOnUse" color-interpolation-filters="sRGB">
<feFlood flood-opacity="0" result="BackgroundImageFix"/>
<feColorMatrix in="SourceAlpha" type="matrix" values="0 0 0 0 0 0 0 0 0 0 0 0 0 0 0 0 0 0 127 0" result="hardAlpha"/>
<feOffset dx="-0.2" dy="-0.2"/>
<feGaussianBlur stdDeviation="0.2"/>
<feComposite in2="hardAlpha" operator="out"/>
<feColorMatrix type="matrix" values="0 0 0 0 0 0 0 0 0 0 0 0 0 0 0 0 0 0 0.05 0"/>
<feBlend mode="normal" in2="BackgroundImageFix" result="effect1_dropShadow_306_5349"/>
<feBlend mode="normal" in="SourceGraphic" in2="effect1_dropShadow_306_5349" result="shape"/>
</filter>
<radialGradient id="paint0_radial_306_5349" cx="0" cy="0" r="1" gradientUnits="userSpaceOnUse" gradientTransform="translate(21.6 4.98462) rotate(115.017) scale(22.9195 20.0013)">
<stop stop-color="#FFFC00"/>
<stop offset="0.567708" stop-color="#F8BA28"/>
</radialGradient>
<linearGradient id="paint1_linear_306_5349" x1="9.52002" y1="7.20001" x2="29.52" y2="29.7" gradientUnits="userSpaceOnUse">
<stop stop-color="white"/>
<stop offset="0.390625" stop-color="#F5F5F5"/>
<stop offset="0.970616" stop-color="#8F95A3"/>
</linearGradient>
</defs>
</svg>
