<svg width="32" height="32" viewBox="0 0 32 32" fill="none" xmlns="http://www.w3.org/2000/svg">
<g clip-path="url(#clip0_306_5315)">
<path d="M19.3271 3.92542L19.7335 2.70001L20.14 3.92542C20.469 3.93832 20.7916 3.97702 21.1077 4.02217L21.7658 2.9064L21.9077 4.18985C22.2174 4.26725 22.5206 4.36399 22.8174 4.48008L23.6755 3.51265L23.5722 4.80901C23.8626 4.9509 24.1464 5.11214 24.4174 5.27983L25.4626 4.50588L25.0948 5.75064C25.34 5.94413 25.5787 6.15051 25.811 6.3698L26.9852 5.80869L26.3787 6.9696C26.5851 7.21468 26.7852 7.46622 26.9658 7.73065L28.2368 7.42107L27.3981 8.43365C27.5529 8.71098 27.6948 9.00121 27.8174 9.29143L29.1335 9.25274L28.1013 10.0718C28.1916 10.3685 28.269 10.6652 28.3335 10.9748L29.6303 11.194L28.4561 11.8068C28.4884 12.1228 28.5013 12.4388 28.5013 12.7548L29.74 13.2385L28.4626 13.5933C28.4303 13.9093 28.3787 14.2189 28.3206 14.522L29.4368 15.2573L28.1077 15.3346C28.0174 15.6313 27.9077 15.9151 27.7852 16.1989L28.74 17.1341L27.4174 16.9599C27.2626 17.2308 27.1013 17.4952 26.9206 17.7532L27.6626 18.869L26.3981 18.4175C26.1981 18.6497 25.9916 18.869 25.7658 19.0818L26.2819 20.3201L25.1206 19.6365C24.8755 19.8235 24.6174 20.0041 24.3593 20.1718L24.6045 21.4939L23.6174 20.5846C23.34 20.72 23.0497 20.8425 22.7593 20.9522L22.7271 22.3001L21.9529 21.2102C21.6626 21.2876 21.3593 21.3456 21.0561 21.3908L20.7658 22.7L20.211 21.4746C19.9013 21.4939 19.5916 21.4939 19.2755 21.4746L18.7206 22.7L18.4303 21.3908C18.1271 21.3456 17.8303 21.2876 17.5335 21.2102L16.7593 22.3001L16.7271 20.9651C16.4303 20.8554 16.14 20.7329 15.8626 20.5975L14.8819 21.5004L15.1271 20.1911C14.8626 20.0235 14.6045 19.8493 14.3529 19.6558L13.2045 20.333L13.7142 19.1076C13.4884 18.8948 13.2755 18.6755 13.0755 18.4369L11.8303 18.8819L12.5593 17.779C12.3787 17.521 12.2045 17.2502 12.0561 16.9728L10.7464 17.147L11.6819 16.2247C11.5593 15.9409 11.4497 15.6442 11.3529 15.3475L10.0497 15.2702L11.1464 14.5478C11.0819 14.2318 11.0303 13.9157 10.9981 13.5997L9.73999 13.2514L10.9529 12.7742C10.9529 12.4517 10.9658 12.1292 10.9981 11.8132L9.84322 11.2134L11.1206 11.0006C11.1852 10.6845 11.2626 10.3814 11.3529 10.0783L10.34 9.27209L11.6368 9.30433C11.7658 9.00765 11.9077 8.71098 12.0626 8.43365L11.2368 7.43397L12.4948 7.7371C12.6755 7.47267 12.8755 7.21468 13.0884 6.9696L12.4884 5.82159L13.6497 6.37625C13.8819 6.15696 14.1206 5.94413 14.3722 5.75064L14.0045 4.51233L15.0368 5.27983C15.3142 5.10569 15.5981 4.94445 15.8884 4.80256L15.7852 3.5191L16.6368 4.48653C16.9335 4.37689 17.2368 4.28015 17.5529 4.20275L17.6948 2.92575L18.3464 4.04151C18.6626 3.98992 18.9852 3.95767 19.3142 3.94477L19.3271 3.92542Z" fill="url(#paint0_radial_306_5315)"/>
<g filter="url(#filter0_d_306_5315)">
<path d="M17.0589 12.9136C17.8104 12.5037 18.6497 12.2792 19.4988 12.2792C22.0753 12.2792 24.2224 14.2311 24.4956 16.7783C26.7989 16.144 29.19 17.481 29.8438 19.794C29.9414 20.1747 30 20.565 30 20.9554C30 23.3563 28.0774 25.2887 25.6765 25.2984C25.13 25.2984 24.5932 25.2008 24.0857 24.9959C23.4026 25.4936 22.5047 25.7962 21.5092 25.7962C20.4064 25.7962 19.4207 25.4253 18.7278 24.8397C17.2346 25.435 15.2339 25.7962 13.0185 25.7962C10.8031 25.7962 8.84141 25.435 7.35796 24.8592C6.80167 25.2106 6.15755 25.3862 5.51342 25.3862C3.56152 25.3862 2 23.8052 2 21.8728C2 20.7993 2.47822 19.8331 3.2297 19.1792C2.82956 18.3984 3.14186 17.4322 3.93238 17.0321C4.07877 16.9638 4.22517 16.9052 4.38132 16.8857C4.313 16.5051 4.28372 16.1147 4.28372 15.7243C4.28372 12.0157 7.28965 9 10.9885 9C13.6138 9 15.9854 10.5322 17.0687 12.9233L17.0589 12.9136Z" fill="url(#paint1_linear_306_5315)"/>
</g>
</g>
<defs>
<filter id="filter0_d_306_5315" x="1.8" y="8.4" width="28.8" height="17.5961" filterUnits="userSpaceOnUse" color-interpolation-filters="sRGB">
<feFlood flood-opacity="0" result="BackgroundImageFix"/>
<feColorMatrix in="SourceAlpha" type="matrix" values="0 0 0 0 0 0 0 0 0 0 0 0 0 0 0 0 0 0 127 0" result="hardAlpha"/>
<feOffset dx="0.2" dy="-0.2"/>
<feGaussianBlur stdDeviation="0.2"/>
<feComposite in2="hardAlpha" operator="out"/>
<feColorMatrix type="matrix" values="0 0 0 0 0 0 0 0 0 0 0 0 0 0 0 0 0 0 0.05 0"/>
<feBlend mode="normal" in2="BackgroundImageFix" result="effect1_dropShadow_306_5315"/>
<feBlend mode="normal" in="SourceGraphic" in2="effect1_dropShadow_306_5315" result="shape"/>
</filter>
<radialGradient id="paint0_radial_306_5315" cx="0" cy="0" r="1" gradientUnits="userSpaceOnUse" gradientTransform="translate(24.74 3.85386) rotate(115.017) scale(19.0996 16.6677)">
<stop stop-color="#FFFC00"/>
<stop offset="0.567708" stop-color="#F8BA28"/>
</radialGradient>
<linearGradient id="paint1_linear_306_5315" x1="20.3479" y1="12.084" x2="11.6814" y2="28.1579" gradientUnits="userSpaceOnUse">
<stop stop-color="white"/>
<stop offset="1" stop-color="#8F95A3"/>
</linearGradient>
<clipPath id="clip0_306_5315">
<rect width="28" height="24" fill="white" transform="translate(2 2)"/>
</clipPath>
</defs>
</svg>
