<svg width="32" height="32" viewBox="0 0 32 32" fill="none" xmlns="http://www.w3.org/2000/svg">
<g clip-path="url(#clip0_499_931)">
<path d="M17.46 23.5416C17.65 23.5516 17.85 23.5616 18.04 23.5616C20.98 23.5616 24.43 22.3016 25.78 19.4916C26.69 17.6016 26.53 15.0616 25.22 13.3816C23.54 11.2116 19.3 11.1216 18.33 14.0716C18.04 14.9616 18.08 15.8416 18.27 16.6416C18.48 15.8416 18.76 15.0816 19.2 14.5416C19.96 13.5816 21.54 13.4116 22.54 14.1016C23.46 14.7316 23.61 15.9916 23.44 16.9916C22.72 21.0016 17.05 20.0316 14.25 19.8916C12.39 19.8016 10.5 19.8916 8.68997 20.3616C5.87997 21.1116 2.51997 23.2616 3.05997 26.6016C5.21997 21.1916 12.96 23.2916 17.46 23.5416ZM29.1 17.6916C28.82 16.0116 27.89 14.7416 27.89 14.7416C28.41 17.6016 28.29 20.2016 26.27 22.4416C21.17 28.0916 15.47 24.4616 9.21997 25.2716C7.79997 25.4516 5.52997 26.0616 5.34997 27.8116C5.90997 27.3516 6.58997 27.2916 7.10997 27.2216C10.61 26.7516 14.33 27.5716 16.91 27.9616C24.83 29.1516 30.38 25.5516 29.09 17.7016H29.1V17.6916Z" fill="url(#paint0_linear_499_931)"/>
<path d="M23.95 5.41999C24.41 5.32999 24.72 4.87999 24.63 4.41999C24.54 3.95999 24.09 3.64999 23.63 3.73999C23.17 3.82999 22.86 4.27999 22.95 4.73999C23.04 5.19999 23.49 5.50999 23.95 5.41999Z" fill="url(#paint1_linear_499_931)"/>
<path d="M26.96 10.27C27.66 10.14 28.11 9.47 27.98 8.77C27.85 8.07 27.18 7.62 26.48 7.75C25.78 7.88 25.33 8.55 25.46 9.25C25.59 9.95 26.26 10.4 26.96 10.27Z" fill="url(#paint2_linear_499_931)"/>
<path d="M5.72998 17.82C6.53998 17.67 7.07998 16.88 6.92998 16.07C6.77998 15.26 5.98998 14.72 5.17998 14.87C4.36998 15.02 3.82998 15.81 3.97998 16.62C4.12998 17.43 4.91998 17.97 5.72998 17.82Z" fill="url(#paint3_linear_499_931)"/>
<path d="M4.01996 11.52C4.47996 11.43 4.78996 10.98 4.69996 10.52C4.60996 10.06 4.15996 9.75003 3.69996 9.84003C3.23996 9.93003 2.92996 10.38 3.01996 10.84C3.10996 11.3 3.55996 11.61 4.01996 11.52Z" fill="url(#paint4_linear_499_931)"/>
<path d="M14.55 13.77H13.51L14.25 14.51C14.37 14.62 14.38 14.81 14.26 14.93C14.26 14.93 14.26 14.93 14.25 14.94C14.13 15.06 13.88 15 13.82 14.94L13.08 14.2V15.25C13.08 15.42 12.94 15.56 12.76 15.56C12.59 15.56 12.45 15.42 12.44 15.25V14.2L11.7 14.94C11.55 15.11 11.33 15 11.27 14.94C11.21 14.88 11.15 14.63 11.27 14.51L12.01 13.77H10.97C10.8 13.77 10.66 13.62 10.66 13.45C10.66 13.28 10.8 13.13 10.97 13.13H12.01L11.27 12.39C11.15 12.27 11.15 12.08 11.27 11.96C11.39 11.84 11.58 11.84 11.7 11.96L12.44 12.7V11.66C12.46 11.49 12.61 11.35 12.78 11.36C12.94 11.37 13.07 11.5 13.08 11.66V12.71L13.82 11.97C13.94 11.85 14.13 11.85 14.25 11.97C14.37 12.09 14.37 12.28 14.25 12.4L13.51 13.14H14.55C14.72 13.14 14.86 13.28 14.86 13.45V13.47C14.86 13.64 14.72 13.78 14.55 13.78V13.77Z" fill="url(#paint5_linear_499_931)"/>
<path d="M12.74 6.02999H11L12.23 7.26999C12.43 7.45999 12.44 7.76999 12.25 7.95999C12.25 7.95999 12.24 7.96999 12.23 7.97999C12.03 8.17999 11.62 8.07999 11.51 7.97999L10.28 6.73999V8.48999C10.28 8.77999 10.04 9.00999 9.75001 8.99999C9.46001 8.99999 9.23001 8.76999 9.22001 8.48999V6.73999L7.99001 7.97999C7.74001 8.25999 7.38001 8.07999 7.28001 7.97999C7.18001 7.87999 7.08001 7.45999 7.28001 7.25999L8.51001 6.01999H6.77001C6.49001 6.01999 6.26001 5.76999 6.26001 5.48999C6.26001 5.20999 6.49001 4.95999 6.77001 4.95999H8.51001L7.28001 3.71999C7.08001 3.51999 7.08001 3.20999 7.28001 3.00999C7.48001 2.80999 7.79001 2.80999 7.99001 3.00999L9.22001 4.24999V2.49999C9.25001 2.20999 9.50001 1.97999 9.79001 1.99999C10.06 2.01999 10.27 2.22999 10.29 2.49999V4.24999L11.52 3.00999C11.72 2.80999 12.04 2.80999 12.24 3.00999C12.44 3.20999 12.44 3.52999 12.24 3.72999L11.01 4.96999H12.75C13.04 4.96999 13.26 5.19999 13.26 5.47999V5.50999C13.26 5.78999 13.03 6.01999 12.75 6.01999H12.74V6.02999Z" fill="url(#paint6_linear_499_931)"/>
<path d="M19.65 7.42003H18.61L19.35 8.16003C19.47 8.27003 19.48 8.46003 19.36 8.58003C19.36 8.58003 19.36 8.58003 19.35 8.59003C19.23 8.71003 18.98 8.65003 18.92 8.59003L18.18 7.85003V8.90003C18.18 9.07003 18.04 9.21003 17.86 9.21003C17.69 9.21003 17.55 9.07003 17.54 8.90003V7.85003L16.8 8.59003C16.65 8.76003 16.43 8.65003 16.37 8.59003C16.31 8.53003 16.25 8.28003 16.37 8.16003L17.11 7.42003H16.07C15.9 7.42003 15.76 7.27003 15.76 7.10003C15.76 6.93003 15.9 6.78003 16.07 6.78003H17.11L16.37 6.04003C16.25 5.92003 16.25 5.73003 16.37 5.61003C16.49 5.49003 16.68 5.49003 16.8 5.61003L17.54 6.35003V5.31003C17.56 5.14003 17.71 5.00003 17.88 5.01003C18.04 5.02003 18.17 5.15003 18.18 5.31003V6.36003L18.92 5.62003C19.04 5.50003 19.23 5.50003 19.35 5.62003C19.47 5.74003 19.47 5.93003 19.35 6.05003L18.61 6.79003H19.65C19.82 6.79003 19.96 6.93003 19.96 7.10003V7.12003C19.96 7.29003 19.82 7.43003 19.65 7.43003V7.42003Z" fill="url(#paint7_linear_499_931)"/>
</g>
<defs>
<linearGradient id="paint0_linear_499_931" x1="14.96" y1="28.0516" x2="20.08" y2="7.2716" gradientUnits="userSpaceOnUse">
<stop stop-color="#C1CDE0"/>
<stop offset="1" stop-color="#7D7D7D"/>
</linearGradient>
<linearGradient id="paint1_linear_499_931" x1="23.79" y1="4.12999" x2="23.79" y2="5.84999" gradientUnits="userSpaceOnUse">
<stop offset="0.26" stop-color="#4ACCFF"/>
<stop offset="0.72" stop-color="#18A2D9"/>
</linearGradient>
<linearGradient id="paint2_linear_499_931" x1="26.73" y1="8.11" x2="26.73" y2="10.67" gradientUnits="userSpaceOnUse">
<stop offset="0.26" stop-color="#4ACCFF"/>
<stop offset="0.72" stop-color="#18A2D9"/>
</linearGradient>
<linearGradient id="paint3_linear_499_931" x1="5.44998" y1="15.42" x2="5.44998" y2="18.42" gradientUnits="userSpaceOnUse">
<stop offset="0.26" stop-color="#4ACCFF"/>
<stop offset="0.72" stop-color="#18A2D9"/>
</linearGradient>
<linearGradient id="paint4_linear_499_931" x1="3.85996" y1="10.33" x2="3.85996" y2="12.04" gradientUnits="userSpaceOnUse">
<stop offset="0.26" stop-color="#4ACCFF"/>
<stop offset="0.72" stop-color="#18A2D9"/>
</linearGradient>
<linearGradient id="paint5_linear_499_931" x1="12.76" y1="12.84" x2="12.76" y2="15.74" gradientUnits="userSpaceOnUse">
<stop offset="0.26" stop-color="#4ACCFF"/>
<stop offset="0.72" stop-color="#18A2D9"/>
</linearGradient>
<linearGradient id="paint6_linear_499_931" x1="9.76001" y1="4.47999" x2="9.76001" y2="9.31999" gradientUnits="userSpaceOnUse">
<stop offset="0.26" stop-color="#4ACCFF"/>
<stop offset="0.72" stop-color="#18A2D9"/>
</linearGradient>
<linearGradient id="paint7_linear_499_931" x1="17.86" y1="6.49003" x2="17.86" y2="9.39003" gradientUnits="userSpaceOnUse">
<stop offset="0.26" stop-color="#4ACCFF"/>
<stop offset="0.72" stop-color="#18A2D9"/>
</linearGradient>
<clipPath id="clip0_499_931">
<rect width="26.27" height="26.56" fill="white" transform="translate(3 2)"/>
</clipPath>
</defs>
</svg>
