<svg width="32" height="32" viewBox="0 0 32 32" fill="none" xmlns="http://www.w3.org/2000/svg">
<g filter="url(#filter0_d_306_5336)">
<path d="M19.3757 8.18444C19.9892 7.8377 20.6827 7.65989 21.385 7.65989C23.501 7.65989 25.2613 9.2602 25.4836 11.3584C27.3773 10.8338 29.3421 11.9363 29.8666 13.83C29.9555 14.1411 30 14.4612 30 14.7901C30 16.755 28.4175 18.3553 26.4438 18.3553C25.9992 18.3553 25.5547 18.2753 25.1368 18.1063C24.5767 18.5153 23.8388 18.7553 23.0209 18.7553C22.1229 18.7553 21.3139 18.4531 20.736 17.973C19.5091 18.462 17.8643 18.7553 16.0507 18.7553C14.237 18.7553 12.6189 18.462 11.4009 17.9819C10.9475 18.2664 10.414 18.4175 9.8806 18.4175C8.28918 18.4175 6.99115 17.1195 7.00005 15.5281C7.00005 14.6479 7.39123 13.8566 8.01357 13.3232C7.68462 12.6742 7.94245 11.8918 8.59146 11.5629C8.70704 11.5006 8.83151 11.4651 8.96487 11.4384C8.91152 11.1183 8.88485 10.7983 8.88485 10.4782C8.88485 7.42874 11.3475 4.95715 14.3792 4.95715C16.5308 4.95715 18.4867 6.21073 19.3757 8.17555V8.18444Z" fill="url(#paint0_linear_306_5336)"/>
</g>
<g filter="url(#filter1_d_306_5336)">
<path d="M17.0589 12.9136C17.8104 12.5037 18.6497 12.2792 19.4988 12.2792C22.0753 12.2792 24.2224 14.2311 24.4956 16.7783C26.7989 16.144 29.19 17.481 29.8438 19.794C29.9414 20.1747 30 20.565 30 20.9554C30 23.3563 28.0774 25.2887 25.6765 25.2984C25.13 25.2984 24.5932 25.2008 24.0857 24.9959C23.4026 25.4936 22.5047 25.7962 21.5092 25.7962C20.4064 25.7962 19.4207 25.4253 18.7278 24.8397C17.2346 25.435 15.2339 25.7962 13.0185 25.7962C10.8031 25.7962 8.84141 25.435 7.35796 24.8592C6.80167 25.2106 6.15755 25.3862 5.51342 25.3862C3.56152 25.3862 2 23.8052 2 21.8728C2 20.7993 2.47822 19.8331 3.2297 19.1792C2.82956 18.3984 3.14186 17.4322 3.93238 17.0321C4.07877 16.9638 4.22517 16.9052 4.38132 16.8857C4.313 16.5051 4.28372 16.1147 4.28372 15.7243C4.28372 12.0157 7.28965 9 10.9885 9C13.6138 9 15.9854 10.5322 17.0687 12.9233L17.0589 12.9136Z" fill="url(#paint1_linear_306_5336)"/>
</g>
<defs>
<filter id="filter0_d_306_5336" x="6.80288" y="4.76004" width="23.7885" height="14.5867" filterUnits="userSpaceOnUse" color-interpolation-filters="sRGB">
<feFlood flood-opacity="0" result="BackgroundImageFix"/>
<feColorMatrix in="SourceAlpha" type="matrix" values="0 0 0 0 0 0 0 0 0 0 0 0 0 0 0 0 0 0 127 0" result="hardAlpha"/>
<feOffset dx="0.197117" dy="0.197117"/>
<feGaussianBlur stdDeviation="0.197117"/>
<feComposite in2="hardAlpha" operator="out"/>
<feColorMatrix type="matrix" values="0 0 0 0 0 0 0 0 0 0 0 0 0 0 0 0 0 0 0.05 0"/>
<feBlend mode="normal" in2="BackgroundImageFix" result="effect1_dropShadow_306_5336"/>
<feBlend mode="normal" in="SourceGraphic" in2="effect1_dropShadow_306_5336" result="shape"/>
</filter>
<filter id="filter1_d_306_5336" x="1.8" y="8.4" width="28.8" height="17.5961" filterUnits="userSpaceOnUse" color-interpolation-filters="sRGB">
<feFlood flood-opacity="0" result="BackgroundImageFix"/>
<feColorMatrix in="SourceAlpha" type="matrix" values="0 0 0 0 0 0 0 0 0 0 0 0 0 0 0 0 0 0 127 0" result="hardAlpha"/>
<feOffset dx="0.2" dy="-0.2"/>
<feGaussianBlur stdDeviation="0.2"/>
<feComposite in2="hardAlpha" operator="out"/>
<feColorMatrix type="matrix" values="0 0 0 0 0 0 0 0 0 0 0 0 0 0 0 0 0 0 0.05 0"/>
<feBlend mode="normal" in2="BackgroundImageFix" result="effect1_dropShadow_306_5336"/>
<feBlend mode="normal" in="SourceGraphic" in2="effect1_dropShadow_306_5336" result="shape"/>
</filter>
<linearGradient id="paint0_linear_306_5336" x1="21.9984" y1="7.62433" x2="17.9532" y2="16.3549" gradientUnits="userSpaceOnUse">
<stop stop-color="#D7D7E1"/>
<stop offset="0.479961" stop-color="#8F95A3"/>
</linearGradient>
<linearGradient id="paint1_linear_306_5336" x1="20.3479" y1="12.084" x2="11.6814" y2="28.1579" gradientUnits="userSpaceOnUse">
<stop stop-color="white"/>
<stop offset="1" stop-color="#8F95A3"/>
</linearGradient>
</defs>
</svg>
