<svg width="32" height="32" viewBox="0 0 32 32" fill="none" xmlns="http://www.w3.org/2000/svg">
<path d="M15.5118 6.08746L15.9743 4.70001L16.4367 6.08746C16.8067 6.09774 17.1767 6.14913 17.5261 6.20051L18.2661 4.93639L18.4306 6.38551C18.78 6.478 19.1191 6.58078 19.4583 6.71438L20.4244 5.62498L20.3113 7.09465C20.6402 7.25908 20.9588 7.4338 21.2671 7.62907L22.449 6.75549L22.0379 8.1635C22.3154 8.37932 22.5826 8.6157 22.8498 8.86236L24.1756 8.22516L23.487 9.54067C23.7234 9.81816 23.9495 10.1059 24.1551 10.404L25.5939 10.0545L24.6484 11.1953C24.8231 11.5139 24.9875 11.8325 25.1211 12.1614L26.6114 12.1203L25.4397 13.0453C25.5425 13.3844 25.6247 13.7133 25.707 14.0627L27.1766 14.3094L25.8508 14.998C25.8919 15.3577 25.9022 15.7174 25.9022 16.0668L27.2999 16.6115L25.8508 17.0123C25.8097 17.372 25.7583 17.7215 25.6864 18.0606L26.9505 18.8931L25.45 18.9856C25.3472 19.3247 25.2239 19.6434 25.0903 19.962L26.1694 21.0205L24.6792 20.8253C24.5045 21.1336 24.3195 21.4316 24.114 21.7194L24.9567 22.9835L23.5281 22.4696C23.302 22.7368 23.0657 22.9835 22.8087 23.2199L23.3945 24.6176L22.079 23.8468C21.8015 24.0626 21.5138 24.2579 21.2157 24.4532L21.4932 25.9434L20.373 24.9157C20.0544 25.0698 19.7358 25.2034 19.4069 25.3268L19.3658 26.8478L18.4922 25.6145C18.1633 25.707 17.8242 25.7687 17.4748 25.8201L17.1459 27.3L16.519 25.9126C16.1695 25.9331 15.8201 25.9331 15.4604 25.9126L14.8335 27.3L14.5046 25.8201C14.1654 25.7687 13.8263 25.707 13.4871 25.6145L12.6135 26.8478L12.5724 25.337C12.2333 25.2137 11.9044 25.0698 11.5961 24.9259L10.4861 25.9434L10.7636 24.4634C10.4656 24.2785 10.1778 24.0729 9.89004 23.8571L8.59509 24.6176L9.17062 23.2302C8.91368 22.9938 8.6773 22.7368 8.4512 22.4696L7.0432 22.9732L7.86539 21.7297C7.65984 21.4419 7.46457 21.1336 7.30013 20.815L5.82019 21.0102L6.87876 19.9722C6.74515 19.6536 6.61155 19.3145 6.50877 18.9856L5.03911 18.8931L6.28267 18.0812C6.21073 17.7215 6.14906 17.3618 6.11823 17.0123L4.69995 16.6218L6.06685 16.0874C6.06685 15.7277 6.07712 15.3577 6.11823 14.998L4.813 14.3197L6.26212 14.0833C6.33406 13.7236 6.42655 13.3844 6.52933 13.0453L5.38854 12.1306L6.8582 12.1717C7.00209 11.8325 7.16653 11.5037 7.34124 11.1851L6.406 10.0545L7.82428 10.3937C8.02983 10.0956 8.25593 9.80788 8.49231 9.53039L7.814 8.23544L9.12951 8.86236C9.39672 8.6157 9.66393 8.36904 9.94142 8.15322L9.53033 6.75549L10.702 7.61879C11.0206 7.42352 11.3391 7.23853 11.668 7.08437L11.555 5.63526L12.5211 6.72466C12.8602 6.60133 13.1994 6.48828 13.5591 6.40606L13.7235 4.96722L14.4635 6.23134C14.8232 6.16968 15.1829 6.13885 15.5529 6.11829V6.09774L15.5118 6.08746Z" fill="url(#paint0_radial_387_2186)"/>
<g filter="url(#filter0_d_387_2186)">
<path d="M4.78072 13.9615H9.34132C10.0494 13.9615 10.622 13.3888 10.622 12.6808C10.622 11.9727 10.0494 11.4 9.34132 11.4H4.78072C4.07268 11.4 3.5 11.9727 3.5 12.6808C3.5 13.3888 4.07268 13.9615 4.78072 13.9615ZM14.6724 13.9615L27.2193 13.9615C27.9273 13.9615 28.5 13.3888 28.5 12.6808C28.5 11.9727 27.9273 11.4 27.2193 11.4L14.6724 11.4C13.9644 11.4 13.3917 11.9727 13.3917 12.6807C13.3917 13.3888 13.9644 13.9615 14.6724 13.9615ZM27.2193 20.7607H15.8282C15.1202 20.7607 14.5475 21.3334 14.5475 22.031C14.5475 22.7286 15.1202 23.3013 15.8282 23.3013H27.2193C27.9273 23.3013 28.5 22.7286 28.5 22.031C28.5 21.3334 27.9273 20.7607 27.2193 20.7607ZM4.78072 18.6262H20.3471C21.0552 18.6262 21.6279 18.0535 21.6279 17.3559C21.6279 16.6583 21.0552 16.0752 20.3471 16.0752H4.78072C4.07268 16.0752 3.5 16.6478 3.5 17.3559C3.5 18.0639 4.07268 18.6262 4.78072 18.6262ZM10.622 20.7503H4.78072C4.07268 20.7503 3.5 21.323 3.5 22.0206C3.5 22.7182 4.07268 23.2909 4.78072 23.2909H10.622C11.3301 23.2909 11.9027 22.7182 11.9027 22.0206C11.9027 21.323 11.3301 20.7503 10.622 20.7503Z" fill="url(#paint1_linear_387_2186)"/>
</g>
<defs>
<filter id="filter0_d_387_2186" x="3.2" y="10.9" width="25.8" height="12.7013" filterUnits="userSpaceOnUse" color-interpolation-filters="sRGB">
<feFlood flood-opacity="0" result="BackgroundImageFix"/>
<feColorMatrix in="SourceAlpha" type="matrix" values="0 0 0 0 0 0 0 0 0 0 0 0 0 0 0 0 0 0 127 0" result="hardAlpha"/>
<feOffset dx="0.1" dy="-0.1"/>
<feGaussianBlur stdDeviation="0.2"/>
<feComposite in2="hardAlpha" operator="out"/>
<feColorMatrix type="matrix" values="0 0 0 0 0 0 0 0 0 0 0 0 0 0 0 0 0 0 0.05 0"/>
<feBlend mode="normal" in2="BackgroundImageFix" result="effect1_dropShadow_387_2186"/>
<feBlend mode="normal" in="SourceGraphic" in2="effect1_dropShadow_387_2186" result="shape"/>
</filter>
<radialGradient id="paint0_radial_387_2186" cx="0" cy="0" r="1" gradientUnits="userSpaceOnUse" gradientTransform="translate(21.1683 5.7745) rotate(115.02) scale(21.5928 18.8385)">
<stop stop-color="#FFFC00"/>
<stop offset="0.57" stop-color="#F8BA28"/>
</radialGradient>
<linearGradient id="paint1_linear_387_2186" x1="9.7474" y1="25.7169" x2="17.036" y2="12.4412" gradientUnits="userSpaceOnUse">
<stop stop-color="#9C7649"/>
<stop offset="1" stop-color="#D9A04B"/>
</linearGradient>
</defs>
</svg>
