<svg width="32" height="32" viewBox="0 0 32 32" fill="none" xmlns="http://www.w3.org/2000/svg">
<path fill-rule="evenodd" clip-rule="evenodd" d="M2.6676 13.5C2.6676 12.782 3.24963 12.2 3.9676 12.2H17.6225C18.3404 12.2 18.9225 12.782 18.9225 13.5C18.9225 14.218 18.3404 14.8 17.6225 14.8H3.9676C3.24963 14.8 2.6676 14.218 2.6676 13.5ZM20.9547 13.5C20.9547 12.782 21.5367 12.2 22.2547 12.2H25.0321C25.7501 12.2 26.3321 12.782 26.3321 13.5C26.3321 14.218 25.7501 14.8 25.0321 14.8H22.2547C21.5367 14.8 20.9547 14.218 20.9547 13.5ZM5.66775 18.5C5.66775 17.782 6.24978 17.2 6.96775 17.2H9.70256C10.4205 17.2 11.0026 17.782 11.0026 18.5C11.0026 19.218 10.4205 19.8 9.70256 19.8H6.96775C6.24978 19.8 5.66775 19.218 5.66775 18.5ZM12.9753 18.5C12.9753 17.782 13.5573 17.2 14.2753 17.2H28.0321C28.7501 17.2 29.3321 17.782 29.3321 18.5C29.3321 19.218 28.7501 19.8 28.0321 19.8H14.2753C13.5573 19.8 12.9753 19.218 12.9753 18.5Z" fill="url(#paint0_linear_2488_8728)"/>
<defs>
<linearGradient id="paint0_linear_2488_8728" x1="15.9999" y1="12.2" x2="15.9999" y2="19.8" gradientUnits="userSpaceOnUse">
<stop stop-color="#C8CCD3"/>
<stop offset="1" stop-color="#9EA4B2"/>
</linearGradient>
</defs>
</svg>
