<svg width="32" height="32" viewBox="0 0 32 32" fill="none" xmlns="http://www.w3.org/2000/svg">
<g clip-path="url(#clip0_2488_8757)">
<g clip-path="url(#clip1_2488_8757)">
<path fill-rule="evenodd" clip-rule="evenodd" d="M2.16772 11C2.16772 10.282 2.74975 9.70001 3.46772 9.70001H16.1673C16.8853 9.70001 17.4673 10.282 17.4673 11C17.4673 11.718 16.8853 12.3 16.1673 12.3H3.46772C2.74975 12.3 2.16772 11.718 2.16772 11ZM19.491 11C19.491 10.282 20.073 9.70001 20.791 9.70001H25.5321C26.2501 9.70001 26.8321 10.282 26.8321 11C26.8321 11.718 26.2501 12.3 25.5321 12.3H20.791C20.073 12.3 19.491 11.718 19.491 11ZM5.16772 16C5.16772 15.282 5.74975 14.7 6.46772 14.7H9.24519C9.96316 14.7 10.5452 15.282 10.5452 16C10.5452 16.718 9.96316 17.3 9.24519 17.3H6.46772C5.74975 17.3 5.16772 16.718 5.16772 16ZM12.5774 16C12.5774 15.282 13.1594 14.7 13.8774 14.7H28.5323C29.2502 14.7 29.8323 15.282 29.8323 16C29.8323 16.718 29.2502 17.3 28.5323 17.3H13.8774C13.1594 17.3 12.5774 16.718 12.5774 16ZM2.16772 21C2.16772 20.282 2.74975 19.7 3.46772 19.7H18.2246C18.9425 19.7 19.5246 20.282 19.5246 21C19.5246 21.718 18.9425 22.3 18.2246 22.3H3.46772C2.74975 22.3 2.16772 21.718 2.16772 21ZM21.4973 21C21.4973 20.282 22.0793 19.7 22.7973 19.7H25.5321C26.2501 19.7 26.8321 20.282 26.8321 21C26.8321 21.718 26.2501 22.3 25.5321 22.3H22.7973C22.0793 22.3 21.4973 21.718 21.4973 21Z" fill="url(#paint0_linear_2488_8757)"/>
</g>
</g>
<defs>
<linearGradient id="paint0_linear_2488_8757" x1="16" y1="9.70001" x2="16" y2="22.3" gradientUnits="userSpaceOnUse">
<stop stop-color="#C8CCD3"/>
<stop offset="1" stop-color="#9EA4B2"/>
</linearGradient>
<clipPath id="clip0_2488_8757">
<rect width="32" height="32" fill="white"/>
</clipPath>
<clipPath id="clip1_2488_8757">
<rect width="32" height="32" fill="white"/>
</clipPath>
</defs>
</svg>
