<svg width="32" height="32" viewBox="0 0 32 32" fill="none" xmlns="http://www.w3.org/2000/svg">
<path d="M20.8 20.8C20.8 20.8 19 18.4 16 18.4C13 18.4 11.2 20.8 11.2 20.8M19.6 12.4H19.612M12.4 12.4H12.412M28 16C28 22.6274 22.6274 28 16 28C9.37258 28 4 22.6274 4 16C4 9.37258 9.37258 4 16 4C22.6274 4 28 9.37258 28 16ZM20.2 12.4C20.2 12.7314 19.9314 13 19.6 13C19.2686 13 19 12.7314 19 12.4C19 12.0686 19.2686 11.8 19.6 11.8C19.9314 11.8 20.2 12.0686 20.2 12.4ZM13 12.4C13 12.7314 12.7314 13 12.4 13C12.0686 13 11.8 12.7314 11.8 12.4C11.8 12.0686 12.0686 11.8 12.4 11.8C12.7314 11.8 13 12.0686 13 12.4Z" stroke="black" stroke-width="2.66667" stroke-linecap="round" stroke-linejoin="round"/>
</svg>
