<svg width="20" height="20" viewBox="0 0 20 20" fill="none" xmlns="http://www.w3.org/2000/svg">
<path fill-rule="evenodd" clip-rule="evenodd" d="M7.5 2C6.67157 2 6 2.67157 6 3.5C6 4.32843 6.67157 5 7.5 5C8.32843 5 9 4.32843 9 3.5C9 2.67157 8.32843 2 7.5 2ZM4.14494 2.5C4.57521 1.05426 5.91449 0 7.5 0C9.08551 0 10.4248 1.05426 10.8551 2.5H19C19.5523 2.5 20 2.94772 20 3.5C20 4.05228 19.5523 4.5 19 4.5H10.8551C10.4248 5.94574 9.08551 7 7.5 7C5.91449 7 4.57521 5.94574 4.14494 4.5H1C0.447715 4.5 0 4.05228 0 3.5C0 2.94772 0.447715 2.5 1 2.5H4.14494ZM14.5 8.5C13.6716 8.5 13 9.17157 13 10C13 10.8284 13.6716 11.5 14.5 11.5C15.3284 11.5 16 10.8284 16 10C16 9.17157 15.3284 8.5 14.5 8.5ZM11.1449 9C11.5752 7.55426 12.9145 6.5 14.5 6.5C16.0855 6.5 17.4248 7.55426 17.8551 9H19C19.5523 9 20 9.44771 20 10C20 10.5523 19.5523 11 19 11H17.8551C17.4248 12.4457 16.0855 13.5 14.5 13.5C12.9145 13.5 11.5752 12.4457 11.1449 11H1C0.447715 11 0 10.5523 0 10C0 9.44771 0.447715 9 1 9H11.1449ZM5.5 15C4.67157 15 4 15.6716 4 16.5C4 17.3284 4.67157 18 5.5 18C6.32843 18 7 17.3284 7 16.5C7 15.6716 6.32843 15 5.5 15ZM2.14494 15.5C2.57521 14.0543 3.91449 13 5.5 13C7.08551 13 8.42479 14.0543 8.85506 15.5H19C19.5523 15.5 20 15.9477 20 16.5C20 17.0523 19.5523 17.5 19 17.5H8.85506C8.42479 18.9457 7.08551 20 5.5 20C3.91449 20 2.57521 18.9457 2.14494 17.5H1C0.447715 17.5 0 17.0523 0 16.5C0 15.9477 0.447715 15.5 1 15.5H2.14494Z" fill="white"/>
</svg>
