<svg width="14" height="12" viewBox="0 0 14 12" fill="none" xmlns="http://www.w3.org/2000/svg">
<path fill-rule="evenodd" clip-rule="evenodd" d="M5.96526 -8.75011e-06C5.97466 -4.45857e-06 5.98415 -8.75625e-08 5.99373 -8.75625e-08H8.00611C8.01569 -8.75625e-08 8.02518 -4.45857e-06 8.03458 -8.75011e-06C8.17033 -7.08184e-05 8.28895 -0.000125178 8.40347 0.0129915C8.99526 0.0807755 9.52604 0.408817 9.85133 0.907819C9.91427 1.00438 9.96729 1.11053 10.0279 1.23197C10.0321 1.24038 10.0364 1.24886 10.0406 1.25741C10.0602 1.29652 10.0703 1.31661 10.0779 1.33114C10.0783 1.33176 10.0786 1.33235 10.0789 1.3329C10.0795 1.33292 10.0802 1.33293 10.0809 1.33295C10.0973 1.3333 10.1198 1.33333 10.1635 1.33333L10.8923 1.33333C11.2437 1.33332 11.5469 1.33331 11.7966 1.35371C12.0602 1.37525 12.3223 1.42279 12.5746 1.55132C12.9509 1.74307 13.2569 2.04903 13.4486 2.42535C13.5771 2.67761 13.6247 2.93975 13.6462 3.20331C13.6666 3.45303 13.6666 3.7562 13.6666 4.10762V9.22571C13.6666 9.57714 13.6666 9.88031 13.6462 10.13C13.6247 10.3936 13.5771 10.6557 13.4486 10.908C13.2569 11.2843 12.9509 11.5903 12.5746 11.782C12.3223 11.9105 12.0602 11.9581 11.7966 11.9796C11.5469 12 11.2437 12 10.8923 12H3.10754C2.75612 12 2.45295 12 2.20323 11.9796C1.93967 11.9581 1.67753 11.9105 1.42527 11.782C1.04895 11.5903 0.742987 11.2843 0.55124 10.908C0.422711 10.6557 0.375167 10.3936 0.353633 10.13C0.33323 9.8803 0.333241 9.57713 0.333253 9.2257V4.10764C0.333241 3.75621 0.33323 3.45303 0.353633 3.20331C0.375167 2.93975 0.422711 2.67761 0.55124 2.42535C0.742987 2.04903 1.04895 1.74307 1.42527 1.55132C1.67753 1.42279 1.93967 1.37525 2.20323 1.35371C2.45295 1.33331 2.75612 1.33332 3.10756 1.33333L3.83635 1.33333C3.88007 1.33333 3.90255 1.3333 3.91897 1.33295C3.91968 1.33293 3.92034 1.33292 3.92096 1.3329C3.92126 1.33235 3.92157 1.33176 3.9219 1.33113C3.92956 1.3166 3.93964 1.29651 3.95919 1.25741C3.96347 1.24885 3.96771 1.24036 3.97191 1.23195C4.03257 1.1105 4.08557 1.00438 4.14851 0.90782C4.4738 0.408818 5.00458 0.0807754 5.59637 0.0129916C5.71089 -0.000125178 5.82951 -7.08184e-05 5.96526 -8.75011e-06ZM5.99373 1.33333C5.81365 1.33333 5.77688 1.33437 5.7481 1.33766C5.55084 1.36026 5.37391 1.46961 5.26548 1.63594C5.24966 1.66021 5.23229 1.69263 5.15176 1.8537C5.14924 1.85875 5.14665 1.86394 5.144 1.86925C5.11582 1.92581 5.08073 1.99621 5.0382 2.06145C4.82134 2.39412 4.46749 2.61282 4.07296 2.65801C3.99558 2.66687 3.91693 2.66676 3.85373 2.66668C3.84779 2.66667 3.842 2.66667 3.83635 2.66667H3.13325C2.74888 2.66667 2.5007 2.66719 2.31181 2.68262C2.1307 2.69742 2.06356 2.72253 2.03059 2.73933C1.90515 2.80324 1.80316 2.90523 1.73925 3.03067C1.72245 3.06364 1.69734 3.13078 1.68254 3.31189C1.6671 3.50078 1.66659 3.74896 1.66659 4.13333V9.2C1.66659 9.58437 1.6671 9.83255 1.68254 10.0214C1.69734 10.2026 1.72245 10.2697 1.73925 10.3027C1.80316 10.4281 1.90515 10.5301 2.03059 10.594C2.06356 10.6108 2.1307 10.6359 2.31181 10.6507C2.5007 10.6661 2.74888 10.6667 3.13325 10.6667H10.8666C11.251 10.6667 11.4991 10.6661 11.688 10.6507C11.8691 10.6359 11.9363 10.6108 11.9692 10.594C12.0947 10.5301 12.1967 10.4281 12.2606 10.3027C12.2774 10.2697 12.3025 10.2026 12.3173 10.0214C12.3327 9.83255 12.3333 9.58437 12.3333 9.2V4.13333C12.3333 3.74896 12.3327 3.50078 12.3173 3.31189C12.3025 3.13078 12.2774 3.06364 12.2606 3.03067C12.1967 2.90523 12.0947 2.80324 11.9692 2.73933C11.9363 2.72253 11.8691 2.69742 11.688 2.68262C11.4991 2.66719 11.251 2.66667 10.8666 2.66667H10.1635C10.1578 2.66667 10.152 2.66667 10.1461 2.66668C10.0829 2.66676 10.0043 2.66687 9.92688 2.65801C9.53235 2.61282 9.1785 2.39412 8.96164 2.06146C8.91911 1.9962 8.88402 1.92581 8.85583 1.86924C8.85319 1.86393 8.8506 1.85874 8.84808 1.8537C8.76756 1.69265 8.75018 1.6602 8.73436 1.63594C8.62593 1.46961 8.449 1.36026 8.25174 1.33766C8.22296 1.33437 8.18619 1.33333 8.00611 1.33333H5.99373ZM6.99992 5.33333C6.26354 5.33333 5.66659 5.93029 5.66659 6.66667C5.66659 7.40305 6.26354 8 6.99992 8C7.7363 8 8.33325 7.40305 8.33325 6.66667C8.33325 5.93029 7.7363 5.33333 6.99992 5.33333ZM4.33325 6.66667C4.33325 5.19391 5.52716 4 6.99992 4C8.47268 4 9.66659 5.19391 9.66659 6.66667C9.66659 8.13943 8.47268 9.33333 6.99992 9.33333C5.52716 9.33333 4.33325 8.13943 4.33325 6.66667Z" fill="white"/>
</svg>
