<svg width="16" height="20" viewBox="0 0 16 20" fill="none" xmlns="http://www.w3.org/2000/svg">
<path fill-rule="evenodd" clip-rule="evenodd" d="M8 2C4.71266 2 2 4.74909 2 8.2C2 9.87993 2.73594 11.4696 3.98798 13.1418C5.04663 14.5557 6.40151 15.9381 7.86237 17.4286C7.90815 17.4753 7.95402 17.5221 8 17.569C8.04598 17.5221 8.09185 17.4753 8.13763 17.4286C9.59849 15.9381 10.9534 14.5557 12.012 13.1418C13.2641 11.4696 14 9.87993 14 8.2C14 4.74909 11.2873 2 8 2ZM0 8.2C0 3.69801 3.55535 0 8 0C12.4446 0 16 3.69801 16 8.2C16 10.4965 14.9859 12.5068 13.613 14.3405C12.4671 15.871 11.0003 17.3666 9.54112 18.8543C9.2654 19.1355 8.98995 19.4163 8.717 19.6971C8.52871 19.8907 8.2701 20 8 20C7.7299 20 7.47129 19.8907 7.28301 19.6971C7.01005 19.4163 6.7346 19.1355 6.45888 18.8543C4.99974 17.3666 3.53292 15.871 2.38702 14.3405C1.01406 12.5068 0 10.4965 0 8.2ZM8 6C6.89543 6 6 6.89543 6 8C6 9.10457 6.89543 10 8 10C9.10457 10 10 9.10457 10 8C10 6.89543 9.10457 6 8 6ZM4 8C4 5.79086 5.79086 4 8 4C10.2091 4 12 5.79086 12 8C12 10.2091 10.2091 12 8 12C5.79086 12 4 10.2091 4 8Z" fill="#101717"/>
</svg>
