<svg width="14" height="14" viewBox="0 0 14 14" fill="none" xmlns="http://www.w3.org/2000/svg">
<path fill-rule="evenodd" clip-rule="evenodd" d="M12.0215 1.86407C11.7612 1.60373 11.3391 1.60373 11.0787 1.86408L10.2761 2.66666L11.219 3.60947L12.0215 2.80688C12.2819 2.54653 12.2819 2.12442 12.0215 1.86407ZM12.9644 3.74969C13.7454 2.96864 13.7454 1.70231 12.9644 0.921266C12.1833 0.140216 10.917 0.140219 10.1359 0.921267L8.86208 2.19511L2.37059 8.6866C2.35416 8.70303 2.33792 8.71926 2.32187 8.73532C1.80855 9.24852 1.48581 9.57119 1.23312 9.94666C1.00927 10.2793 0.829212 10.6394 0.697411 11.0181C0.548637 11.4455 0.484147 11.8973 0.381578 12.6159C0.37837 12.6384 0.375125 12.6611 0.371839 12.6841L0.340204 12.9055C0.309578 13.1199 0.384992 13.3358 0.542438 13.4845C0.699885 13.6332 0.919743 13.6962 1.13202 13.6533L1.51838 13.5754C2.1641 13.4452 2.57016 13.3633 2.95366 13.2123C3.29351 13.0786 3.61648 12.9054 3.91595 12.6963C4.25387 12.4603 4.54672 12.1674 5.01245 11.7016C5.02697 11.6871 5.04167 11.6724 5.05653 11.6575L12.9644 3.74969ZM10.2761 4.55228L9.33334 3.60947L3.3134 9.6294C2.73579 10.207 2.51118 10.4357 2.3393 10.6911C2.1794 10.9287 2.05079 11.1859 1.95665 11.4564C1.89271 11.6401 1.84995 11.8342 1.798 12.1561C2.11078 12.0885 2.29318 12.0394 2.46532 11.9716C2.70806 11.8761 2.93876 11.7524 3.15266 11.603C3.38256 11.4425 3.58979 11.2386 4.11373 10.7147L10.2761 4.55228Z" fill="#107E3E"/>
</svg>
