<svg width="20" height="20" viewBox="0 0 20 20" fill="none" xmlns="http://www.w3.org/2000/svg">
<path fill-rule="evenodd" clip-rule="evenodd" d="M9 2C5.13401 2 2 5.13401 2 9C2 12.866 5.13401 16 9 16C12.866 16 16 12.866 16 9C16 5.13401 12.866 2 9 2ZM0 9C0 4.02944 4.02944 0 9 0C13.9706 0 18 4.02944 18 9C18 11.1242 17.2641 13.0765 16.0334 14.6159L19.7074 18.2932C20.0978 18.6839 20.0975 19.3171 19.7068 19.7074C19.3161 20.0978 18.6829 20.0975 18.2926 19.7068L14.6195 16.0304C13.0796 17.2629 11.1259 18 9 18C4.02944 18 0 13.9706 0 9ZM8 4C8 3.44772 8.44772 3 9 3C12.3137 3 15 5.68629 15 9C15 9.55229 14.5523 10 14 10C13.4477 10 13 9.55229 13 9C13 6.79086 11.2091 5 9 5C8.44772 5 8 4.55228 8 4Z" fill="#101717"/>
</svg>
