<svg width="20" height="20" viewBox="0 0 20 20" fill="none" xmlns="http://www.w3.org/2000/svg">
<path fill-rule="evenodd" clip-rule="evenodd" d="M9.16146 8.6011e-07H10.8385C11.3657 -1.70213e-05 11.8205 -3.25181e-05 12.195 0.0305712C12.5904 0.0628723 12.9836 0.134188 13.362 0.326982C13.9265 0.614602 14.3854 1.07354 14.673 1.63803C14.8658 2.01641 14.9371 2.40963 14.9694 2.80497C14.9969 3.14075 14.9997 3.54097 15 4C15.022 4 15.044 4.00072 15.0657 4.00212C15.5138 4.00585 15.9077 4.01608 16.2518 4.0442C16.8139 4.09012 17.3306 4.18869 17.816 4.43598C18.5686 4.81947 19.1805 5.43139 19.564 6.18404C19.8113 6.66938 19.9099 7.18608 19.9558 7.74818C20 8.28937 20 8.95372 20 9.75868V14.2413C20 15.0463 20 15.7106 19.9558 16.2518C19.9099 16.8139 19.8113 17.3306 19.564 17.816C19.1805 18.5686 18.5686 19.1805 17.816 19.564C17.3306 19.8113 16.8139 19.9099 16.2518 19.9558C15.9077 19.9839 15.5138 19.9942 15.0657 19.9979C15.044 19.9993 15.0221 20 15 20C14.9828 20 14.9656 19.9996 14.9486 19.9987C14.726 20 14.4904 20 14.2413 20H5.75868C5.50963 20 5.27404 20 5.0514 19.9987C5.03437 19.9996 5.01724 20 5 20C4.97793 20 4.95603 19.9993 4.93431 19.9979C4.48616 19.9942 4.09227 19.9839 3.74817 19.9558C3.18608 19.9099 2.66937 19.8113 2.18404 19.564C1.43139 19.1805 0.819468 18.5686 0.435975 17.816C0.188684 17.3306 0.0901197 16.8139 0.0441945 16.2518C-2.28137e-05 15.7106 -1.23241e-05 15.0463 4.31292e-07 14.2413V9.7587C-1.23241e-05 8.95373 -2.28137e-05 8.28937 0.0441945 7.74818C0.0901197 7.18608 0.188684 6.66938 0.435975 6.18404C0.819468 5.43139 1.43139 4.81947 2.18404 4.43598C2.96036 4.04042 3.87189 4.00951 4.99305 4.00172C4.99538 4.0017 4.9977 4.00169 5.00003 4.00167C5.0003 3.54194 5.0031 3.14116 5.03057 2.80497C5.06287 2.40963 5.13419 2.01641 5.32698 1.63803C5.6146 1.07354 6.07354 0.614602 6.63803 0.326982C7.01641 0.134188 7.40963 0.0628723 7.80497 0.0305713C8.17954 -3.25181e-05 8.63431 -1.70213e-05 9.16146 8.6011e-07ZM6 6H14V18H6V6ZM4 17.9691V6.0316C3.52035 6.064 3.27741 6.12353 3.09202 6.21799C2.7157 6.40974 2.40973 6.7157 2.21799 7.09202C2.1383 7.24842 2.07337 7.47262 2.03755 7.91104C2.00078 8.36113 2 8.94342 2 9.8V14.2C2 15.0566 2.00078 15.6389 2.03755 16.089C2.07337 16.5274 2.1383 16.7516 2.21799 16.908C2.40973 17.2843 2.7157 17.5903 3.09202 17.782C3.24842 17.8617 3.47262 17.9266 3.91104 17.9625C3.94013 17.9648 3.96977 17.9671 4 17.9691ZM16 17.9691C16.0302 17.9671 16.0599 17.9648 16.089 17.9625C16.5274 17.9266 16.7516 17.8617 16.908 17.782C17.2843 17.5903 17.5903 17.2843 17.782 16.908C17.8617 16.7516 17.9266 16.5274 17.9624 16.089C17.9992 15.6389 18 15.0566 18 14.2V9.8C18 8.94342 17.9992 8.36113 17.9624 7.91104C17.9266 7.47262 17.8617 7.24842 17.782 7.09202C17.5903 6.7157 17.2843 6.40974 16.908 6.21799C16.7516 6.1383 16.5274 6.07337 16.089 6.03755C16.0599 6.03518 16.0302 6.03295 16 6.03086V17.9691ZM7.00007 4C7.00051 3.5349 7.00357 3.21698 7.02393 2.96784C7.04612 2.69617 7.0838 2.59546 7.10899 2.54601C7.20487 2.35785 7.35785 2.20487 7.54601 2.109C7.59545 2.0838 7.69617 2.04612 7.96784 2.02393C8.25117 2.00078 8.62345 2 9.2 2H10.8C11.3766 2 11.7488 2.00078 12.0322 2.02393C12.3038 2.04612 12.4045 2.0838 12.454 2.109C12.6422 2.20487 12.7951 2.35785 12.891 2.54601C12.9162 2.59546 12.9539 2.69617 12.9761 2.96784C12.9964 3.21698 12.9995 3.5349 12.9999 4H7.00007Z" fill="#101717"/>
</svg>
