<svg width="20" height="20" viewBox="0 0 20 20" fill="none" xmlns="http://www.w3.org/2000/svg">
<path fill-rule="evenodd" clip-rule="evenodd" d="M9.33212 0.656316C9.75217 0.447895 10.2455 0.447895 10.6656 0.656316C11.0361 0.840188 11.2294 1.16329 11.3222 1.3296C11.4226 1.50949 11.5254 1.74021 11.6281 1.97078C11.633 1.98186 11.638 1.99294 11.6429 2.00402L13.44 6.03559L17.8658 6.5027C18.1168 6.52915 18.368 6.55562 18.5701 6.59548C18.7569 6.63235 19.1239 6.71631 19.4133 7.01193C19.7413 7.34701 19.8938 7.81621 19.8254 8.2801C19.765 8.68935 19.5174 8.97301 19.3879 9.11266C19.2479 9.26369 19.0602 9.43275 18.8727 9.60169L15.5667 12.581L16.4901 16.9346C16.5425 17.1815 16.595 17.4285 16.6195 17.633C16.6422 17.8221 16.6757 18.1971 16.484 18.5637C16.2667 18.9792 15.8676 19.2692 15.4052 19.3475C14.9974 19.4165 14.6511 19.2687 14.4783 19.1887C14.2914 19.1022 14.0726 18.976 13.854 18.8498L9.99884 16.6263L6.1437 18.8498C5.92508 18.976 5.70633 19.1022 5.51941 19.1887C5.34658 19.2687 5.00031 19.4165 4.59243 19.3475C4.13011 19.2692 3.73098 18.9792 3.51366 18.5637C3.32194 18.1971 3.35549 17.8221 3.37818 17.633C3.40271 17.4285 3.45516 17.1814 3.50757 16.9345L4.43097 12.581L1.15204 9.62607C1.14303 9.61795 1.13401 9.60983 1.125 9.60171C0.937461 9.43276 0.749799 9.2637 0.60974 9.11266C0.480239 8.97301 0.232678 8.68935 0.172318 8.2801C0.103899 7.81621 0.256351 7.34701 0.584373 7.01193C0.873758 6.71631 1.24077 6.63235 1.42762 6.59548C1.62971 6.55562 1.88089 6.52915 2.13192 6.5027C2.14399 6.50143 2.15606 6.50015 2.16813 6.49888L6.5577 6.03559L8.35478 2.00401C8.35972 1.99294 8.36466 1.98185 8.3696 1.97076C8.47232 1.7402 8.57512 1.50948 8.67548 1.3296C8.76828 1.16329 8.96155 0.840188 9.33212 0.656316ZM9.99884 3.2281L8.33748 6.95521C8.33363 6.96385 8.32925 6.97393 8.32432 6.98526C8.27678 7.09464 8.17825 7.32134 8.01152 7.50644C7.87095 7.6625 7.69918 7.78731 7.50732 7.87277C7.27975 7.97414 7.0337 7.99779 6.91499 8.0092C6.90268 8.01039 6.89175 8.01144 6.88234 8.01243L2.82425 8.44074L5.85556 11.1725C5.86259 11.1789 5.87082 11.1861 5.88007 11.1943C5.9694 11.2733 6.15456 11.4371 6.27909 11.6529C6.38407 11.8348 6.44969 12.0367 6.47168 12.2456C6.49776 12.4934 6.44422 12.7347 6.41839 12.8511C6.41572 12.8632 6.41334 12.8739 6.41138 12.8831L5.5647 16.875L9.09952 14.8362C9.10771 14.8315 9.11718 14.8259 9.12782 14.8196C9.23058 14.7591 9.44354 14.6336 9.68723 14.5818C9.89268 14.5382 10.105 14.5382 10.3105 14.5818C10.5541 14.6336 10.7671 14.7591 10.8699 14.8196C10.8805 14.8259 10.89 14.8315 10.8982 14.8362L14.433 16.875L13.5863 12.8831C13.5843 12.8739 13.582 12.8632 13.5793 12.8511C13.5535 12.7347 13.4999 12.4934 13.526 12.2456C13.548 12.0367 13.6136 11.8348 13.7186 11.6529C13.8431 11.4371 14.0283 11.2733 14.1176 11.1943C14.1269 11.1861 14.1351 11.1789 14.1421 11.1725L17.1734 8.44074L13.1153 8.01243C13.1059 8.01144 13.095 8.01039 13.0827 8.0092C12.964 7.99779 12.7179 7.97414 12.4904 7.87277C12.2985 7.78731 12.1267 7.66251 11.9862 7.50644C11.8194 7.32134 11.7209 7.09464 11.6734 6.98526C11.6684 6.97393 11.6641 6.96385 11.6602 6.95521L9.99884 3.2281Z" fill="black"/>
</svg>
