<svg width="20" height="20" viewBox="0 0 20 20" fill="none" xmlns="http://www.w3.org/2000/svg">
<path fill-rule="evenodd" clip-rule="evenodd" d="M3.20987 2.47825C3.20986 2.47825 3.20988 2.47825 3.20987 2.47825L2.01494 2.77703C2.10156 5.01523 2.56257 7.07089 3.33991 8.89801L5.37575 6.45915C5.71492 6.0227 5.74341 5.96753 5.7574 5.92903C5.7812 5.86353 5.79105 5.79378 5.78631 5.72426C5.7835 5.68297 5.77118 5.62123 5.55998 5.09324L4.84929 3.3165C4.70574 2.95763 4.61832 2.74094 4.54053 2.58279C4.5045 2.50954 4.47891 2.46662 4.46163 2.44109C4.44627 2.41841 4.43863 2.4112 4.43769 2.41032C4.36784 2.34396 4.28024 2.29915 4.18555 2.28137C4.18429 2.28113 4.1739 2.27914 4.14652 2.27997C4.1157 2.28091 4.06593 2.2853 3.98545 2.29897C3.8117 2.3285 3.58483 2.38451 3.20987 2.47825ZM4.3309 10.8318L6.92225 7.72747C6.92962 7.71864 6.93685 7.70968 6.94391 7.70059C6.96362 7.67525 6.98339 7.64993 7.00317 7.6246C7.25127 7.3069 7.50072 6.98746 7.63712 6.61215C7.75613 6.28467 7.80537 5.93591 7.78168 5.58828C7.75453 5.18987 7.60328 4.81387 7.45284 4.43989C7.44085 4.41007 7.42886 4.38027 7.41694 4.35046L6.69397 2.54303C6.56665 2.22469 6.45097 1.93544 6.33516 1.70001C6.21012 1.4458 6.05382 1.187 5.81506 0.960196C5.46578 0.62842 5.02809 0.404622 4.55463 0.315723C4.23097 0.254952 3.92965 0.279778 3.65037 0.327242C3.39169 0.371203 3.08947 0.446777 2.75684 0.529955C2.74619 0.532618 2.73551 0.535289 2.7248 0.537967L0.757432 1.02988C0.312281 1.14118 0 1.54116 0 2.00001C0 5.42929 0.78729 8.54719 2.22987 11.1909C2.23555 11.2017 2.24144 11.2125 2.24754 11.2232C3.00597 12.6059 3.94403 13.8584 5.04277 14.9571C6.28606 16.2004 7.72614 17.238 9.32911 18.0424C9.34089 18.0485 9.35276 18.0545 9.36472 18.0602C11.8858 19.3179 14.808 20 18 20C18.4589 20 18.8589 19.6876 18.9702 19.2424L19.4618 17.2749L19.4697 17.243C19.5529 16.9103 19.6285 16.6081 19.6725 16.3494C19.72 16.0701 19.7448 15.7688 19.684 15.4451C19.5951 14.9716 19.3713 14.534 19.0395 14.1847C18.8127 13.9459 18.5539 13.7896 18.2997 13.6646C18.0643 13.5488 17.775 13.4331 17.4567 13.3058L15.8405 12.6593C15.8062 12.6456 15.772 12.6318 15.7378 12.618C15.3125 12.4469 14.8857 12.275 14.4378 12.2612C14.0476 12.2493 13.66 12.3288 13.306 12.4936C12.8998 12.6826 12.5751 13.0087 12.2517 13.3336C12.2266 13.3588 12.2015 13.384 12.1764 13.4091L9.61509 15.9301C8.4415 15.2718 7.38371 14.4696 6.457 13.5429C5.64947 12.7354 4.93651 11.8283 4.3309 10.8318ZM11.5423 16.8395C13.2572 17.5084 15.1627 17.9053 17.2229 17.9851L17.5215 16.79C17.6152 16.415 17.6712 16.188 17.7008 16.0143C17.7144 15.9338 17.7188 15.884 17.7198 15.8532C17.7206 15.8258 17.7186 15.8155 17.7184 15.8143C17.7006 15.7196 17.6558 15.632 17.5895 15.5621C17.5889 15.5615 17.5818 15.5538 17.5586 15.5381C17.5331 15.5208 17.4902 15.4952 17.4169 15.4592C17.2588 15.3814 17.0421 15.294 16.6832 15.1504L15.0977 14.5162C14.4942 14.2748 14.4223 14.2617 14.3764 14.2603C14.2983 14.2579 14.2208 14.2738 14.15 14.3068C14.1084 14.3261 14.0474 14.3666 13.5878 14.8262L13.5822 14.8318L11.5423 16.8395Z" fill="#101717"/>
</svg>
