<svg width="11" height="14" viewBox="0 0 11 14" fill="none" xmlns="http://www.w3.org/2000/svg">
<path fill-rule="evenodd" clip-rule="evenodd" d="M5.50011 1.66668C4.39554 1.66668 3.50011 2.56211 3.50011 3.66668C3.50011 4.77125 4.39554 5.66668 5.50011 5.66668C6.60468 5.66668 7.50011 4.77125 7.50011 3.66668C7.50011 2.56211 6.60468 1.66668 5.50011 1.66668ZM2.16678 3.66668C2.16678 1.82573 3.65916 0.333344 5.50011 0.333344C7.34106 0.333344 8.83344 1.82573 8.83344 3.66668C8.83344 5.50763 7.34106 7.00001 5.50011 7.00001C3.65916 7.00001 2.16678 5.50763 2.16678 3.66668ZM2.91966 8.99992C2.8779 8.99681 2.85305 8.99745 2.69461 9.00952C2.65108 9.01284 2.62023 9.01694 2.59592 9.02134C2.04874 9.12039 1.6205 9.54864 1.52144 10.0958C1.5028 10.1988 1.50011 10.3365 1.50011 10.7894V11.9333C1.50011 12.131 1.50063 12.2392 1.50698 12.3169C1.50723 12.32 1.50749 12.3229 1.50774 12.3257C1.51051 12.326 1.51344 12.3262 1.51653 12.3265C1.59426 12.3328 1.70243 12.3333 1.90011 12.3333H9.10011C9.29779 12.3333 9.40596 12.3328 9.48369 12.3265C9.48678 12.3262 9.48971 12.326 9.49248 12.3257C9.49273 12.3229 9.49299 12.32 9.49324 12.3169C9.49959 12.2392 9.50011 12.131 9.50011 11.9333V10.7858C9.50011 10.3365 9.49746 10.1998 9.47912 10.0977C9.38058 9.549 8.95112 9.11953 8.40245 9.021C8.37897 9.01678 8.34867 9.01278 8.30572 9.00952C8.14709 8.99746 8.12219 8.99682 8.08046 8.99994C8.04105 9.00288 8.0244 9.00527 8.01398 9.00711C8.00356 9.00895 7.98709 9.0124 7.94906 9.02313C7.953 9.02202 7.94556 9.02394 7.92028 9.03374C7.89609 9.04311 7.86303 9.05675 7.81732 9.0765C7.72478 9.1165 7.60048 9.17278 7.42399 9.25273C6.83654 9.51884 6.18469 9.66667 5.50011 9.66667C4.81553 9.66667 4.16368 9.51884 3.57623 9.25273C3.39972 9.17277 3.27542 9.11649 3.18287 9.07649C3.13715 9.05673 3.10409 9.04309 3.07989 9.03372C3.05983 9.02595 3.05101 9.02313 3.05018 9.02286C3.04997 9.02278 3.0503 9.02288 3.05111 9.02311C3.0131 9.01239 2.99661 9.00894 2.98616 9.00709C2.97571 9.00525 2.95903 9.00285 2.91966 8.99992ZM2.61348 7.6785C2.74693 7.66827 2.86766 7.65902 3.01871 7.67027C3.16734 7.68134 3.26963 7.69939 3.41307 7.73985C3.56009 7.78132 3.7756 7.87908 4.05442 8.00556C4.07797 8.01624 4.10197 8.02713 4.12641 8.0382C4.54444 8.22757 5.00902 8.33334 5.50011 8.33334C5.9912 8.33334 6.45578 8.22757 6.87381 8.0382C6.89826 8.02713 6.92225 8.01624 6.9458 8.00556C7.22459 7.87909 7.44006 7.78135 7.58702 7.73989C7.73045 7.69943 7.83263 7.68139 7.98125 7.6703C8.13224 7.65903 8.25303 7.66827 8.38656 7.67848C8.39327 7.67899 8.40002 7.67951 8.4068 7.68002C8.48468 7.68594 8.56105 7.69482 8.63812 7.70866C9.73547 7.90573 10.5944 8.76465 10.7915 9.86199C10.8337 10.0972 10.8336 10.3639 10.8335 10.7236C10.8334 10.744 10.8334 10.7648 10.8334 10.7858L10.8334 11.9546C10.8335 12.1229 10.8335 12.2867 10.8221 12.4255C10.8097 12.5779 10.7803 12.7577 10.6881 12.9387C10.5603 13.1895 10.3563 13.3935 10.1054 13.5213C9.92448 13.6135 9.74466 13.6429 9.59226 13.6554C9.45349 13.6667 9.28964 13.6667 9.12138 13.6667H1.87883C1.71058 13.6667 1.54673 13.6667 1.40796 13.6554C1.25556 13.6429 1.07574 13.6135 0.894791 13.5213C0.643909 13.3935 0.439934 13.1895 0.312103 12.9387C0.219905 12.7577 0.190526 12.5779 0.178075 12.4255C0.166737 12.2867 0.166757 12.1229 0.166777 11.9546L0.166778 10.7894C0.166778 10.7682 0.16677 10.7473 0.166763 10.7267C0.166628 10.3641 0.166528 10.0953 0.209431 9.8583C0.40755 8.76394 1.26404 7.90745 2.3584 7.70933C2.43665 7.69516 2.51407 7.68608 2.59328 7.68004C2.60005 7.67953 2.60678 7.67901 2.61348 7.6785Z" fill="#101717"/>
</svg>
