<svg width="24" height="24" viewBox="0 0 24 24" fill="none" xmlns="http://www.w3.org/2000/svg">
<path fill-rule="evenodd" clip-rule="evenodd" d="M11.9995 4.59079C9.87633 2.77631 6.7449 2.32391 4.29094 4.41399C1.63366 6.67725 1.2456 10.4936 3.34924 13.192C4.14012 14.2064 5.67858 15.7249 7.15069 17.11C8.642 18.5132 10.1297 19.8389 10.8632 20.4865C10.8679 20.4906 10.8727 20.4949 10.8777 20.4993C10.9459 20.5596 11.0347 20.638 11.1204 20.7023C11.224 20.7801 11.3761 20.8792 11.5803 20.94C11.8494 21.02 12.1385 21.02 12.4077 20.94C12.6118 20.8792 12.7639 20.7801 12.8675 20.7023C12.9532 20.638 13.042 20.5596 13.1103 20.4993L13.1247 20.4865C13.8583 19.8389 15.3459 18.5132 16.8372 17.11C18.3093 15.7249 19.8478 14.2064 20.6387 13.192C22.7335 10.5049 22.4064 6.65867 19.6866 4.40524C17.2061 2.3501 14.1175 2.77598 11.9995 4.59079ZM11.2412 6.65134C9.71543 4.8732 7.32997 4.4527 5.58776 5.93657C3.73595 7.51379 3.4892 10.1186 4.92656 11.9623C5.60775 12.8361 7.03279 14.253 8.5212 15.6534C9.87019 16.9227 11.2197 18.1309 11.994 18.8166C12.7682 18.1309 14.1177 16.9227 15.4667 15.6534C16.9551 14.253 18.3802 12.8361 19.0614 11.9623C20.5076 10.1072 20.2773 7.49197 18.4106 5.94532C16.6202 4.46193 14.2776 4.88166 12.759 6.65134C12.5691 6.87274 12.2919 7.00014 12.0001 7.00014C11.7084 7.00014 11.4312 6.87274 11.2412 6.65134Z" fill="#101717"/>
</svg>
