<svg width="24" height="24" viewBox="0 0 24 24" fill="none" xmlns="http://www.w3.org/2000/svg">
<path fill-rule="evenodd" clip-rule="evenodd" d="M6.16146 3H17.8385C18.3657 2.99998 18.8205 2.99997 19.195 3.03057C19.5904 3.06287 19.9836 3.13419 20.362 3.32698C20.9265 3.6146 21.3854 4.07354 21.673 4.63803C21.8658 5.01641 21.9371 5.40963 21.9694 5.80497C22 6.17954 22 6.6343 22 7.16144V20C22 20.3466 21.8205 20.6684 21.5257 20.8507C21.2309 21.0329 20.8628 21.0494 20.5528 20.8944L17.2285 19.2323C16.9526 19.0943 16.8977 19.0693 16.8468 19.0522C16.7881 19.0325 16.7278 19.0182 16.6665 19.0097C16.6133 19.0022 16.553 19 16.2446 19H6.16148C5.63432 19 5.17955 19 4.80497 18.9694C4.40963 18.9371 4.01641 18.8658 3.63803 18.673C3.07354 18.3854 2.6146 17.9265 2.32698 17.362C2.13419 16.9836 2.06287 16.5904 2.03057 16.195C1.99997 15.8205 1.99998 15.3657 2 14.8385V7.16146C1.99998 6.63431 1.99997 6.17955 2.03057 5.80497C2.06287 5.40963 2.13419 5.01641 2.32698 4.63803C2.6146 4.07354 3.07354 3.6146 3.63803 3.32698C4.01641 3.13419 4.40963 3.06287 4.80497 3.03057C5.17955 2.99997 5.63431 2.99998 6.16146 3ZM4.96784 5.02393C4.69617 5.04612 4.59546 5.0838 4.54601 5.109C4.35785 5.20487 4.20487 5.35785 4.109 5.54601C4.0838 5.59546 4.04612 5.69617 4.02393 5.96784C4.00078 6.25117 4 6.62345 4 7.2V14.8C4 15.3766 4.00078 15.7488 4.02393 16.0322C4.04612 16.3038 4.0838 16.4045 4.109 16.454C4.20487 16.6422 4.35785 16.7951 4.54601 16.891C4.59546 16.9162 4.69617 16.9539 4.96784 16.9761C5.25117 16.9992 5.62345 17 6.2 17H16.2446C16.2605 17 16.2764 17 16.2921 17C16.5273 16.9999 16.735 16.9997 16.9438 17.029C17.1276 17.0547 17.3086 17.0974 17.4845 17.1566C17.6844 17.2239 17.8701 17.3168 18.0804 17.4222C18.0945 17.4292 18.1086 17.4363 18.1229 17.4434L20 18.382V7.2C20 6.62345 19.9992 6.25118 19.9761 5.96784C19.9539 5.69617 19.9162 5.59546 19.891 5.54601C19.7951 5.35785 19.6422 5.20487 19.454 5.109C19.4045 5.0838 19.3038 5.04612 19.0322 5.02393C18.7488 5.00078 18.3766 5 17.8 5H6.2C5.62345 5 5.25117 5.00078 4.96784 5.02393ZM6 9C6 8.44772 6.44772 8 7 8H17C17.5523 8 18 8.44772 18 9C18 9.55229 17.5523 10 17 10H7C6.44772 10 6 9.55229 6 9ZM6 13C6 12.4477 6.44772 12 7 12H17C17.5523 12 18 12.4477 18 13C18 13.5523 17.5523 14 17 14H7C6.44772 14 6 13.5523 6 13Z" fill="#101717"/>
</svg>
