<svg width="20" height="20" viewBox="0 0 20 20" fill="none" xmlns="http://www.w3.org/2000/svg">
<path fill-rule="evenodd" clip-rule="evenodd" d="M5 0C5.55229 0 6 0.447715 6 1V2H14V1C14 0.447715 14.4477 0 15 0C15.5523 0 16 0.447715 16 1V2.00003C16.459 2.00031 16.8593 2.00314 17.195 2.03057C17.5904 2.06287 17.9836 2.13419 18.362 2.32698C18.9265 2.6146 19.3854 3.07354 19.673 3.63803C19.8658 4.01641 19.9371 4.40963 19.9694 4.80497C20 5.17954 20 5.63429 20 6.16143V15.8386C20 16.3657 20 16.8205 19.9694 17.195C19.9371 17.5904 19.8658 17.9836 19.673 18.362C19.3854 18.9265 18.9265 19.3854 18.362 19.673C17.9836 19.8658 17.5904 19.9371 17.195 19.9694C16.8205 20 16.3657 20 15.8386 20H4.16144C3.6343 20 3.17954 20 2.80497 19.9694C2.40963 19.9371 2.01641 19.8658 1.63803 19.673C1.07354 19.3854 0.614603 18.9265 0.326982 18.362C0.134188 17.9836 0.0628723 17.5904 0.0305712 17.195C-3.25181e-05 16.8205 -1.70213e-05 16.3657 8.6011e-07 15.8385V6.16146C-1.70213e-05 5.63431 -3.25181e-05 5.17954 0.0305712 4.80497C0.0628723 4.40963 0.134188 4.01641 0.326982 3.63803C0.614602 3.07354 1.07354 2.6146 1.63803 2.32698C2.01641 2.13419 2.40963 2.06287 2.80497 2.03057C3.14075 2.00314 3.54097 2.00031 4 2.00003V1C4 0.447715 4.44772 0 5 0ZM4.2 4C3.62345 4 3.25118 4.00078 2.96784 4.02393C2.69617 4.04612 2.59546 4.0838 2.54601 4.10899C2.35785 4.20487 2.20487 4.35785 2.109 4.54601C2.0838 4.59545 2.04612 4.69617 2.02393 4.96784C2.00078 5.25117 2 5.62345 2 6.2V7H18V6.2C18 5.62345 17.9992 5.25117 17.9761 4.96784C17.9539 4.69617 17.9162 4.59545 17.891 4.54601C17.7951 4.35785 17.6422 4.20487 17.454 4.10899C17.4045 4.0838 17.3038 4.04612 17.0322 4.02393C16.7488 4.00078 16.3766 4 15.8 4H4.2ZM18 9H2V15.8C2 16.3766 2.00078 16.7488 2.02393 17.0322C2.04612 17.3038 2.0838 17.4045 2.109 17.454C2.20487 17.6422 2.35785 17.7951 2.54601 17.891C2.59546 17.9162 2.69617 17.9539 2.96784 17.9761C3.25117 17.9992 3.62345 18 4.2 18H15.8C16.3766 18 16.7488 17.9992 17.0322 17.9761C17.3038 17.9539 17.4045 17.9162 17.454 17.891C17.6422 17.7951 17.7951 17.6422 17.891 17.454C17.9162 17.4045 17.9539 17.3038 17.9761 17.0322C17.9992 16.7488 18 16.3766 18 15.8V9Z" fill="#107E3E"/>
</svg>
