<svg width="122" height="97" viewBox="0 0 122 97" fill="none" xmlns="http://www.w3.org/2000/svg">
<path d="M63.1204 9.22136L114.775 40.1605C116.069 40.9355 116.072 42.8092 114.781 43.5886L63.1319 74.7623C61.8694 75.5243 60.2899 75.5299 59.022 74.7767L6.53444 43.5958C5.22719 42.8192 5.23037 40.9256 6.54023 40.1534L59.0337 9.20712C60.2957 8.4631 61.8636 8.46856 63.1204 9.22136Z" fill="#284B54" stroke="#274B54"/>
<rect x="16.4238" width="88.9076" height="83.4017" rx="4" fill="url(#paint0_linear_827_16444)"/>
<path d="M4.23828 90.9993V43.9718C4.23828 40.973 7.41585 39.0406 10.0784 40.4202L59.2556 65.8996C60.4136 66.4996 61.7914 66.4973 62.9474 65.8936L111.665 40.4504C114.328 39.0596 117.517 40.9915 117.517 43.996V90.9993C117.517 94.313 114.83 96.9993 111.517 96.9993H10.2383C6.92457 96.9993 4.23828 94.313 4.23828 90.9993Z" fill="url(#paint1_linear_827_16444)"/>
<path d="M68.3636 58.5874L113.676 91.5749C116.024 93.2845 114.815 97.0002 111.91 97.0002H61.3567H9.96633C7.0501 97.0002 5.84847 93.2602 8.21898 91.5616L54.3115 58.5345C58.5171 55.521 64.1808 55.5423 68.3636 58.5874Z" fill="url(#paint2_linear_827_16444)"/>
<rect x="23.6465" y="10.426" width="25.2732" height="3.62616" rx="1.81308" fill="url(#paint3_linear_827_16444)"/>
<rect x="23.6465" y="18.1301" width="20.3088" height="3.62616" rx="1.81308" fill="url(#paint4_linear_827_16444)"/>
<ellipse cx="60.6525" cy="35.3554" rx="13.5392" ry="13.5981" fill="url(#paint5_linear_827_16444)"/>
<path d="M54.334 35.8088L58.1402 39.2493C58.536 39.6071 59.1429 39.5911 59.5194 39.213L67.4219 31.2761" stroke="#F9FDFF" stroke-width="4" stroke-linecap="round"/>
<defs>
<linearGradient id="paint0_linear_827_16444" x1="16.4238" y1="0" x2="82.6364" y2="74.7312" gradientUnits="userSpaceOnUse">
<stop stop-color="white"/>
<stop offset="1" stop-color="white"/>
</linearGradient>
<linearGradient id="paint1_linear_827_16444" x1="60.8774" y1="37.3943" x2="60.8774" y2="96.9993" gradientUnits="userSpaceOnUse">
<stop stop-color="#386B77"/>
<stop offset="1" stop-color="#315E69"/>
</linearGradient>
<linearGradient id="paint2_linear_827_16444" x1="60.8785" y1="53.4863" x2="60.8785" y2="97.0002" gradientUnits="userSpaceOnUse">
<stop stop-color="#30636D"/>
<stop offset="1" stop-color="#3E6F7B"/>
</linearGradient>
<linearGradient id="paint3_linear_827_16444" x1="36.2831" y1="10.426" x2="36.2831" y2="14.0522" gradientUnits="userSpaceOnUse">
<stop stop-color="#7FD598"/>
<stop offset="1" stop-color="#71CC8B"/>
</linearGradient>
<linearGradient id="paint4_linear_827_16444" x1="33.8009" y1="18.1301" x2="33.8009" y2="21.7563" gradientUnits="userSpaceOnUse">
<stop stop-color="#7FD598"/>
<stop offset="1" stop-color="#71CC8B"/>
</linearGradient>
<linearGradient id="paint5_linear_827_16444" x1="60.6525" y1="21.7573" x2="60.6525" y2="48.9535" gradientUnits="userSpaceOnUse">
<stop stop-color="#85DF9F"/>
<stop offset="1" stop-color="#7ACC92"/>
</linearGradient>
</defs>
</svg>
