<svg width="24" height="24" viewBox="0 0 24 24" fill="none" xmlns="http://www.w3.org/2000/svg">
<path d="M21.728 17.9505L13.7469 4.01681C13.5717 3.70629 13.3176 3.44842 13.0108 3.26972C12.7039 3.09101 12.3554 2.99793 12.0011 3.00004C11.273 3.00004 10.6197 3.37997 10.2552 4.01681L2.27327 17.9505C2.09432 18.2588 2 18.6096 2 18.9668C2 19.3241 2.09432 19.6749 2.27327 19.9832C2.44846 20.2937 2.70254 20.5516 3.00938 20.7303C3.31621 20.909 3.66473 21.0021 4.01909 21H19.9805C20.7094 21 21.3619 20.62 21.7264 19.9832C21.9055 19.6748 22 19.3238 22 18.9664C22 18.609 21.9055 18.258 21.7264 17.9496L21.728 17.9505ZM11.3286 9.71999C11.3286 9.40784 11.6225 9.15427 11.9869 9.15427C12.3522 9.15427 12.6461 9.407 12.6461 9.71999V15.3688C12.6461 15.6809 12.3514 15.9345 11.9869 15.9345C11.6233 15.9345 11.3286 15.6817 11.3286 15.3688V9.71999ZM11.9869 18.3446C11.801 18.3446 11.6227 18.2702 11.4912 18.1376C11.3597 18.0051 11.2859 17.8253 11.2859 17.6379C11.2859 17.4505 11.3597 17.2707 11.4912 17.1382C11.6227 17.0056 11.801 16.9312 11.9869 16.9312C12.1729 16.9312 12.3512 17.0056 12.4827 17.1382C12.6142 17.2707 12.688 17.4505 12.688 17.6379C12.688 17.8253 12.6142 18.0051 12.4827 18.1376C12.3512 18.2702 12.1729 18.3446 11.9869 18.3446Z" fill="#101717"/>
</svg>
