<svg width="24" height="24" viewBox="0 0 24 24" fill="none" xmlns="http://www.w3.org/2000/svg">
<path d="M10.4044 7.46854C10.4388 8.25297 10.4242 9.13341 10.2667 9.7587C10.265 9.77254 10.2607 9.78724 10.2581 9.80195C10.2378 9.89591 10.2063 9.98709 10.1643 10.0735L10.1575 10.0882C10.064 10.2807 9.91918 10.4433 9.73913 10.5578C9.55908 10.6724 9.35089 10.7344 9.13782 10.7369C8.90096 10.7363 8.6711 10.6561 8.48478 10.5091C8.29846 10.3621 8.16639 10.1567 8.10958 9.92562C8.03415 9.62964 8.07807 9.31571 8.23176 9.05211C8.23692 9.04346 8.24725 9.02443 8.27048 8.99157L8.28081 8.97773C8.33502 8.8973 8.39697 8.82551 8.46667 8.76324C8.47871 8.75286 8.48818 8.74249 8.4985 8.73211C8.95885 8.28238 9.71003 7.83005 10.4044 7.46854ZM11.4112 5.71546C11.4112 5.71546 8.89948 6.71351 7.68967 7.89492C7.552 8.01859 7.42809 8.1613 7.31967 8.32216C7.28526 8.37146 7.25256 8.41989 7.22502 8.46919C6.59001 9.57449 6.94968 10.9799 8.02783 11.6052C8.37632 11.8076 8.75922 11.9044 9.13782 11.9044C9.5725 11.9026 9.99781 11.7773 10.3647 11.5431C10.7316 11.3088 11.0252 10.975 11.2115 10.5803C11.2941 10.4065 11.3552 10.2266 11.3948 10.0441C11.807 8.40086 11.4112 5.71546 11.4112 5.71546ZM16.8217 11.3613C16.8561 12.1466 16.8415 13.027 16.6849 13.6515C16.6823 13.6662 16.678 13.6809 16.6746 13.6947C16.6547 13.7889 16.6234 13.8804 16.5816 13.9671L16.5748 13.981C16.4813 14.1735 16.3365 14.336 16.1564 14.4506C15.9764 14.5651 15.7682 14.6271 15.5551 14.6296C15.3183 14.629 15.0884 14.5489 14.9021 14.4019C14.7158 14.2549 14.5837 14.0495 14.5269 13.8184C14.4514 13.5224 14.4954 13.2085 14.6491 12.9449C14.6551 12.9362 14.6645 12.9172 14.6886 12.8843L14.6981 12.8688C14.7523 12.7883 14.8143 12.7174 14.884 12.6543L14.9167 12.624C15.377 12.1743 16.1273 11.7219 16.8217 11.3596M17.8284 9.60649C17.8284 9.60649 15.3168 10.6054 14.107 11.7859C13.9668 11.913 13.8425 12.0568 13.737 12.2141C13.7029 12.2614 13.6713 12.3104 13.6423 12.3611C13.0082 13.4664 13.367 14.8718 14.446 15.4962C14.7945 15.6995 15.1765 15.7955 15.556 15.7955C15.9905 15.7936 16.4157 15.6684 16.7826 15.4343C17.1495 15.2002 17.4431 14.8667 17.6297 14.4722C17.7114 14.2984 17.7725 14.1185 17.8121 13.936C18.2251 12.2928 17.8284 9.60649 17.8284 9.60649ZM16.7202 3.75135C16.7546 4.53665 16.74 5.41535 16.5834 6.04238C16.5631 6.15204 16.5284 6.25849 16.4801 6.35892L16.4758 6.3693C16.3825 6.56308 16.2372 6.72681 16.0563 6.84203C15.8754 6.95725 15.666 7.01938 15.4519 7.02141C15.215 7.02083 14.9851 6.94067 14.7988 6.79367C14.6125 6.64668 14.4804 6.44128 14.4236 6.21016C14.3837 6.05194 14.3774 5.88701 14.4053 5.7262C14.4332 5.56538 14.4946 5.4123 14.5854 5.27697C14.588 5.27265 14.5923 5.26832 14.5948 5.26227C14.6508 5.18184 14.7127 5.10919 14.7807 5.04778L14.8151 5.01751C15.2746 4.56778 16.0258 4.11546 16.7202 3.75308M17.7269 2C17.7269 2 15.2144 2.99892 14.0046 4.17946C13.8209 4.34509 13.6641 4.53856 13.5399 4.75286C12.9058 5.85816 13.2646 7.26357 14.3436 7.88973C14.6912 8.09297 15.0733 8.18897 15.4527 8.18897C15.8873 8.18712 16.3125 8.06193 16.6794 7.82783C17.0462 7.59372 17.3399 7.26022 17.5264 6.86573C17.609 6.69189 17.6701 6.512 17.7097 6.32951C18.1219 4.68627 17.7269 2.00173 17.7269 2.00173L17.7252 2H17.7269ZM10.6307 14.6184C10.7305 15.8984 10.7847 17.7077 10.4655 18.979C10.4272 19.1756 10.3636 19.3663 10.2762 19.5464L10.2719 19.5576C10.2499 19.6055 10.226 19.6525 10.2005 19.6986C10.0062 20.0403 9.72613 20.3248 9.3882 20.5236C9.05027 20.7224 8.66634 20.8286 8.27478 20.8316C7.80532 20.8315 7.34939 20.6735 6.97964 20.3828C6.6099 20.092 6.34763 19.6852 6.23464 19.2272C6.15628 18.918 6.14414 18.5956 6.19902 18.2813C6.25391 17.967 6.37456 17.668 6.55301 17.4041L6.56247 17.3894C6.66573 17.2371 6.78677 17.0977 6.923 16.9743L6.95656 16.9431C7.89274 16.029 9.4777 15.1736 10.6307 14.6184ZM11.6168 12.9008C11.6168 12.9008 7.9263 14.3684 6.14515 16.1059C5.93926 16.2926 5.7564 16.5034 5.60048 16.7338C5.54971 16.8048 5.50325 16.8783 5.46109 16.9509C4.52749 18.5769 5.05667 20.6413 6.64163 21.5606C7.13742 21.849 7.70023 22.0006 8.27306 22C9.43468 22 10.5731 21.3825 11.2046 20.2832C11.2477 20.2123 11.2847 20.1328 11.3225 20.0541C11.4447 19.7972 11.5342 19.5351 11.591 19.2662C12.1985 16.8489 11.6159 12.9034 11.6159 12.9034V12.9016L11.6168 12.9008Z" fill="#101717"/>
</svg>
