<svg width="24" height="24" viewBox="0 0 24 24" fill="none" xmlns="http://www.w3.org/2000/svg">
<path d="M11.6787 5.17593H16.7817C17.662 5.17593 18.3777 4.46182 18.3777 3.58526C18.4201 2.20611 16.6 1.459 15.6543 2.46163C15.1279 2.99299 15.9344 3.79509 16.465 3.26966C16.5499 3.18505 16.6628 3.13851 16.7834 3.13851C17.3708 3.14105 17.3725 4.03115 16.7834 4.03369H11.6804C10.9342 4.03623 10.93 5.17339 11.6804 5.17593H11.6787ZM3.60625 8.5984H6.3814C7.2609 8.5984 7.9774 7.88345 7.9774 7.00689C7.84581 4.53881 4.31001 5.41199 5.25402 6.6896C5.47729 6.91297 5.83979 6.91297 6.06475 6.6896C6.72098 6.14979 7.23118 7.3724 6.3831 7.45532H3.6071C2.86004 7.45786 2.85664 8.59502 3.6071 8.59756L3.60625 8.5984ZM18.2749 8.93431C18.4982 9.15768 18.8607 9.15768 19.0857 8.93431C19.1706 8.8497 19.2835 8.80316 19.404 8.80316C19.9915 8.80655 19.9915 9.6958 19.404 9.69834H16.7129C15.9658 9.70172 15.9624 10.838 16.7129 10.8406H19.404C20.2835 10.8406 21 10.1273 21 9.2499C20.8684 6.78267 17.3326 7.655 18.2766 8.93346L18.2749 8.93431ZM20.3251 20.0005C18.1578 19.9844 18.1459 20.8373 16.1348 20.8576C14.1245 20.8373 14.1101 19.9844 11.9436 20.0005C9.77713 19.9844 9.7644 20.8373 7.75243 20.8576C5.74046 20.8373 5.72943 19.9844 3.56126 20.0005C2.81759 20.003 2.80825 21.1402 3.56126 21.1427C4.49508 21.1427 4.93313 21.3212 5.43994 21.5285C6.57921 22.1428 8.93329 22.1411 10.0666 21.5285C10.5726 21.3212 11.0089 21.1427 11.9428 21.1427C13.9539 21.163 13.9683 22.015 16.1348 21.9998C18.3004 22.015 18.3148 21.1622 20.3251 21.1427C21.0688 21.141 21.079 20.003 20.3251 20.0005Z" fill="#101717"/>
<path d="M20.4349 17.0309C18.2957 17.0143 18.2496 17.8283 16.2983 17.8733C12.5428 17.8891 9.32293 12.61 12.2438 9.62959C11.3425 13.0132 16.0591 14.9004 16.2394 13.2948C16.2394 13.1457 16.1786 13.0026 16.0705 12.8972C15.9623 12.7917 15.8157 12.7324 15.6627 12.7324C12.5274 12.6058 12.5308 8.2498 15.6627 8.12482C15.8157 8.12482 15.9623 8.06557 16.0705 7.9601C16.1786 7.85462 16.2394 7.71157 16.2394 7.56241C16.2394 7.41325 16.1786 7.2702 16.0705 7.16473C15.9623 7.05925 15.8157 7 15.6627 7C9.85943 7 5.04457 11.5043 4.81305 17.1484C4.4027 17.0666 3.98459 17.0275 3.56577 17.0318C2.81569 17.0343 2.80715 18.1516 3.56577 18.1566C5.58791 18.1757 5.60243 19.0148 7.78262 18.9998C9.9628 19.0156 9.97562 18.1757 12.0003 18.1557C14.025 18.1757 14.0378 19.0156 16.218 18.9998C18.3974 19.0156 18.4119 18.1757 20.4349 18.1557C21.1832 18.1549 21.1935 17.0343 20.4349 17.0309ZM9.67148 17.495C8.83939 17.9699 6.80529 17.9949 5.95526 17.52C5.98345 13.9489 8.04916 10.8411 11.0743 9.25131C9.21272 11.5618 9.81159 14.9904 11.961 17.0309C10.8197 17.0368 10.2097 17.2801 9.67148 17.495Z" fill="#101717"/>
</svg>
