<svg width="24" height="24" viewBox="0 0 24 24" fill="none" xmlns="http://www.w3.org/2000/svg">
<path d="M19.3384 16.2075H19.0513C17.2482 11.8423 15.4444 7.47745 13.6399 3.11286C13.505 2.783 13.2747 2.5009 12.9786 2.30265C12.6824 2.1044 12.3339 1.99902 11.9775 2.00001C11.2467 2.00001 10.5962 2.43692 10.318 3.1109C9.22474 5.7598 5.94497 13.6898 4.90657 16.2085C3.3568 16.0919 1.99317 17.3017 2.00003 18.8691V20.8479C2.00003 21.2143 2.29587 21.5102 2.66127 21.5102H21.3388C21.5141 21.5102 21.6823 21.4405 21.8063 21.3165C21.9303 21.1925 22 21.0243 22 20.8489V18.8701C21.9995 18.1642 21.7189 17.4874 21.2199 16.9883C20.7209 16.4891 20.0442 16.2083 19.3384 16.2075ZM9.10131 9.51959H14.8566L15.9557 12.1812H8.00021L9.09935 9.51959H9.10131ZM11.5406 3.6154C11.7198 3.21572 12.2361 3.2167 12.4164 3.6154L14.309 8.1971H9.64598L11.5406 3.6154ZM7.45456 13.5047H16.5033L17.6191 16.2085H6.33779L7.45456 13.5047ZM20.6775 20.1877H3.32252V18.8691C3.32252 18.1295 3.924 17.529 4.66166 17.529H19.3374C20.076 17.529 20.6765 18.1315 20.6765 18.8681V20.1867L20.6775 20.1877Z" fill="#101717"/>
</svg>
