<svg width="24" height="24" viewBox="0 0 24 24" fill="none" xmlns="http://www.w3.org/2000/svg">
<path d="M7.32636 3.61427C7.48084 3.61427 7.62899 3.55421 7.73822 3.44729C7.84745 3.34037 7.90881 3.19536 7.90881 3.04416C7.90881 2.89296 7.84745 2.74795 7.73822 2.64103C7.62899 2.53411 7.48084 2.47405 7.32636 2.47405C7.17189 2.47405 7.02374 2.53411 6.91451 2.64103C6.80528 2.74795 6.74392 2.89296 6.74392 3.04416C6.74392 3.19536 6.80528 3.34037 6.91451 3.44729C7.02374 3.55421 7.17189 3.61427 7.32636 3.61427ZM18.2494 7.99656C17.4445 7.23191 16.7471 8.05353 16.1247 8.55557C16.0064 6.15347 14.8592 3.97633 12.9486 2.6517C12.4071 2.27709 11.7137 2.31764 11.262 2.7521L6.06382 7.76968C5.26287 8.54098 4.62744 9.46114 4.19483 10.4761C3.76223 11.4911 3.54117 12.5805 3.54465 13.6803C3.48053 18.1968 7.45064 22.077 12.0599 21.9988C19.3708 22.0761 23.3242 13.1435 18.2494 7.99753V7.99656ZM8.77632 18.4314C8.33245 17.2188 8.65993 15.7966 9.60486 14.9007L12.1605 12.4348C12.9664 12.935 13.4132 14.1167 13.0877 16.0785C13.0581 16.3682 13.4033 16.5478 13.6322 16.3624C13.9971 16.065 14.517 15.6479 14.8711 15.3515C17.6299 19.701 10.8072 23.1535 8.77632 18.4333V18.4314ZM19.2012 14.0298C19.1491 15.0428 18.8728 16.0327 18.3913 16.9309C17.9098 17.8291 17.2347 18.6142 16.4127 19.2318C17.2087 17.5586 16.8566 15.4365 15.5418 14.1003C15.4077 13.9606 15.2276 13.8716 15.0331 13.849C14.8387 13.8264 14.6423 13.8716 14.4785 13.9767C14.1727 11.8797 12.3391 10.4392 11.4109 11.3284L8.66979 13.9738C7.25337 15.3129 6.84699 17.5007 7.67751 19.2463C5.96124 17.9883 4.85059 15.8285 4.87624 13.6813C4.87624 11.7947 5.62982 10.025 6.99889 8.69943L12.1674 3.71082C14.3532 5.15903 15.1946 8.06608 14.6314 10.7433C14.5929 11.0388 14.9431 11.2261 15.1758 11.0349L17.4977 9.13293C18.6876 10.4909 19.2976 12.2452 19.2012 14.0317V14.0298ZM5.32996 5.52591C5.46246 5.52591 5.58954 5.47439 5.68323 5.38268C5.77692 5.29098 5.82956 5.16659 5.82956 5.0369C5.82956 4.90721 5.77692 4.78282 5.68323 4.69112C5.58954 4.59941 5.46246 4.54789 5.32996 4.54789C5.19746 4.54789 5.07039 4.59941 4.9767 4.69112C4.88301 4.78282 4.83037 4.90721 4.83037 5.0369C4.83037 5.16659 4.88301 5.29098 4.9767 5.38268C5.07039 5.47439 5.19746 5.52591 5.32996 5.52591ZM18.5078 5.68908C18.6844 5.68908 18.8537 5.62042 18.9786 5.4982C19.1034 5.37598 19.1736 5.21022 19.1736 5.03738C19.1736 4.86454 19.1034 4.69878 18.9786 4.57656C18.8537 4.45435 18.6844 4.38569 18.5078 4.38569C18.3312 4.38569 18.1619 4.45435 18.037 4.57656C17.9121 4.69878 17.842 4.86454 17.842 5.03738C17.842 5.21022 17.9121 5.37598 18.037 5.4982C18.1619 5.62042 18.3312 5.68908 18.5078 5.68908ZM19.6036 2.97706C19.736 2.97706 19.8629 2.92559 19.9565 2.83397C20.0501 2.74236 20.1027 2.6181 20.1027 2.48853C20.1027 2.35896 20.0501 2.2347 19.9565 2.14309C19.8629 2.05147 19.736 2 19.6036 2C19.4713 2 19.3443 2.05147 19.2507 2.14309C19.1571 2.2347 19.1045 2.35896 19.1045 2.48853C19.1045 2.6181 19.1571 2.74236 19.2507 2.83397C19.3443 2.92559 19.4713 2.97706 19.6036 2.97706ZM2.6658 9.52105C2.75323 9.52105 2.83981 9.50419 2.92058 9.47144C3.00136 9.43869 3.07476 9.39069 3.13658 9.33017C3.19841 9.26965 3.24745 9.19781 3.28091 9.11874C3.31437 9.03968 3.33159 8.95493 3.33159 8.86935C3.33159 8.78377 3.31437 8.69903 3.28091 8.61996C3.24745 8.54089 3.19841 8.46905 3.13658 8.40853C3.07476 8.34802 3.00136 8.30001 2.92058 8.26726C2.83981 8.23451 2.75323 8.21766 2.6658 8.21766C2.48922 8.21766 2.31987 8.28632 2.19501 8.40853C2.07015 8.53075 2 8.69651 2 8.86935C2 9.04219 2.07015 9.20795 2.19501 9.33017C2.31987 9.45239 2.48922 9.52105 2.6658 9.52105ZM16.4828 3.37001C16.528 3.37242 16.5733 3.36578 16.6158 3.35049C16.6583 3.33521 16.6972 3.3116 16.7301 3.2811C16.763 3.25061 16.7892 3.21387 16.8072 3.17313C16.8251 3.13239 16.8343 3.08851 16.8343 3.04416C16.8343 2.99981 16.8251 2.95593 16.8072 2.91519C16.7892 2.87445 16.763 2.83771 16.7301 2.80722C16.6972 2.77673 16.6583 2.75311 16.6158 2.73783C16.5733 2.72254 16.528 2.7159 16.4828 2.71831C16.3976 2.72285 16.3175 2.75916 16.2588 2.81977C16.2002 2.88038 16.1675 2.96068 16.1675 3.04416C16.1675 3.12764 16.2002 3.20794 16.2588 3.26855C16.3175 3.32916 16.3976 3.36547 16.4828 3.37001ZM21.2943 8.13269C21.4266 8.13269 21.5536 8.08122 21.6472 7.98961C21.7408 7.89799 21.7934 7.77373 21.7934 7.64416C21.7934 7.5146 21.7408 7.39034 21.6472 7.29872C21.5536 7.2071 21.4266 7.15563 21.2943 7.15563C21.1619 7.15563 21.0349 7.2071 20.9413 7.29872C20.8477 7.39034 20.7952 7.5146 20.7952 7.64416C20.7952 7.77373 20.8477 7.89799 20.9413 7.98961C21.0349 8.08122 21.1619 8.13269 21.2943 8.13269ZM21.6671 9.89275C21.7554 9.89275 21.8401 9.85842 21.9025 9.79732C21.9649 9.73621 22 9.65333 22 9.56691C22 9.48049 21.9649 9.39761 21.9025 9.3365C21.8401 9.27539 21.7554 9.24106 21.6671 9.24106C21.5788 9.24106 21.4941 9.27539 21.4317 9.3365C21.3693 9.39761 21.3342 9.48049 21.3342 9.56691C21.3342 9.65333 21.3693 9.73621 21.4317 9.79732C21.4941 9.85842 21.5788 9.89275 21.6671 9.89275ZM2.66481 6.8293C2.71005 6.83172 2.75532 6.82507 2.79785 6.80979C2.84038 6.7945 2.87928 6.77089 2.91218 6.7404C2.94508 6.7099 2.97128 6.67316 2.98919 6.63243C3.00709 6.59169 3.01633 6.5478 3.01633 6.50346C3.01633 6.45911 3.00709 6.41522 2.98919 6.37449C2.97128 6.33375 2.94508 6.29701 2.91218 6.26652C2.87928 6.23602 2.84038 6.21241 2.79785 6.19712C2.75532 6.18184 2.71005 6.1752 2.66481 6.17761C2.57965 6.18215 2.49951 6.21846 2.44087 6.27907C2.38223 6.33968 2.34955 6.41998 2.34955 6.50346C2.34955 6.58693 2.38223 6.66724 2.44087 6.72785C2.49951 6.78846 2.57965 6.82477 2.66481 6.8293ZM5.32996 2.81486C5.41838 2.81486 5.50318 2.78048 5.56571 2.71928C5.62823 2.65808 5.66335 2.57508 5.66335 2.48853C5.66335 2.40198 5.62823 2.31898 5.56571 2.25778C5.50318 2.19658 5.41838 2.1622 5.32996 2.1622C5.24154 2.1622 5.15674 2.19658 5.09422 2.25778C5.0317 2.31898 4.99657 2.40198 4.99657 2.48853C4.99657 2.57508 5.0317 2.65808 5.09422 2.71928C5.15674 2.78048 5.24154 2.81486 5.32996 2.81486Z" fill="#101717"/>
</svg>
