<svg width="24" height="24" viewBox="0 0 24 24" fill="none" xmlns="http://www.w3.org/2000/svg">
<path d="M13.2507 9.11869H7.16777C6.99904 9.11869 6.83722 9.05292 6.71791 8.93584C6.5986 8.81877 6.53157 8.65999 6.53157 8.49443C6.53157 8.32886 6.5986 8.17008 6.71791 8.05301C6.83722 7.93593 6.99904 7.87016 7.16777 7.87016H13.2507C13.4796 7.86998 13.7048 7.81444 13.9066 7.70846C14.1083 7.60248 14.2804 7.44932 14.4074 7.26255C14.5345 7.07578 14.6126 6.86116 14.635 6.63768C14.6574 6.4142 14.6232 6.18875 14.5356 5.9813C14.448 5.77385 14.3096 5.59079 14.1328 5.44832C13.9559 5.30586 13.7459 5.20838 13.5215 5.16452C13.297 5.12066 13.065 5.13177 12.846 5.19687C12.627 5.26197 12.4277 5.37905 12.2658 5.53774C12.1447 5.64613 11.9857 5.70455 11.8218 5.70085C11.6579 5.69716 11.5018 5.63164 11.3859 5.51791C11.27 5.40417 11.2032 5.25099 11.1995 5.09019C11.1957 4.92939 11.2552 4.77336 11.3657 4.65452C11.6125 4.41124 11.906 4.21838 12.2292 4.0871C12.5525 3.95582 12.899 3.88872 13.2488 3.88969C13.9553 3.89042 14.6325 4.16611 15.1321 4.65627C15.6316 5.14642 15.9125 5.811 15.9133 6.50419C15.9125 7.19737 15.6316 7.86195 15.1321 8.35211C14.6325 8.84226 13.9553 9.11795 13.2488 9.11869H13.2507ZM19.3355 12.9429H9.19604C9.1125 12.9429 9.02977 12.9267 8.95258 12.8953C8.87539 12.864 8.80526 12.818 8.74619 12.76C8.68711 12.7021 8.64025 12.6332 8.60828 12.5575C8.57631 12.4818 8.55985 12.4006 8.55985 12.3186C8.55985 12.2366 8.57631 12.1554 8.60828 12.0797C8.64025 12.004 8.68711 11.9352 8.74619 11.8772C8.80526 11.8192 8.87539 11.7732 8.95258 11.7419C9.02977 11.7105 9.1125 11.6943 9.19604 11.6943H19.3355C19.5645 11.6945 19.7899 11.6392 19.9918 11.5334C20.1938 11.4276 20.366 11.2746 20.4933 11.0879C20.6206 10.9012 20.699 10.6865 20.7216 10.463C20.7441 10.2395 20.7102 10.0139 20.6227 9.80633C20.5352 9.59875 20.3969 9.41554 20.22 9.27294C20.0431 9.13034 19.8331 9.03274 19.6086 8.98879C19.3841 8.94484 19.1521 8.9559 18.9329 9.02098C18.7138 9.08607 18.5145 9.20317 18.3525 9.36192C18.2319 9.47293 18.072 9.53356 17.9066 9.531C17.7412 9.52844 17.5834 9.46288 17.4664 9.34819C17.3494 9.2335 17.2824 9.07867 17.2796 8.91641C17.2768 8.75415 17.3385 8.59719 17.4515 8.4787C17.6983 8.23506 17.9919 8.04185 18.3153 7.91025C18.6387 7.77865 18.9854 7.71128 19.3355 7.71202C20.042 7.71275 20.7192 7.98844 21.2188 8.4786C21.7183 8.96875 21.9993 9.63333 22 10.3265C21.9993 11.0197 21.7183 11.6843 21.2188 12.1744C20.7192 12.6646 20.042 12.9403 19.3355 12.941V12.9429ZM4.66447 9.11869H2.63619C2.46746 9.11869 2.30565 9.05292 2.18634 8.93584C2.06703 8.81877 2 8.65999 2 8.49443C2 8.32886 2.06703 8.17008 2.18634 8.05301C2.30565 7.93593 2.46746 7.87016 2.63619 7.87016H4.66447C4.8332 7.87016 4.99501 7.93593 5.11432 8.05301C5.23363 8.17008 5.30066 8.32886 5.30066 8.49443C5.30066 8.65999 5.23363 8.81877 5.11432 8.93584C4.99501 9.05292 4.8332 9.11869 4.66447 9.11869ZM6.69086 12.9429H2.63619C2.55265 12.9429 2.46992 12.9267 2.39273 12.8953C2.31555 12.864 2.24541 12.818 2.18634 12.76C2.12726 12.7021 2.0804 12.6332 2.04843 12.5575C2.01646 12.4818 2 12.4006 2 12.3186C2 12.2366 2.01646 12.1554 2.04843 12.0797C2.0804 12.004 2.12726 11.9352 2.18634 11.8772C2.24541 11.8192 2.31555 11.7732 2.39273 11.7419C2.46992 11.7105 2.55265 11.6943 2.63619 11.6943H6.69086C6.7744 11.6943 6.85713 11.7105 6.93432 11.7419C7.0115 11.7732 7.08164 11.8192 7.14071 11.8772C7.19979 11.9352 7.24665 12.004 7.27862 12.0797C7.31059 12.1554 7.32705 12.2366 7.32705 12.3186C7.32705 12.4006 7.31059 12.4818 7.27862 12.5575C7.24665 12.6332 7.19979 12.7021 7.14071 12.76C7.08164 12.818 7.0115 12.864 6.93432 12.8953C6.85713 12.9267 6.7744 12.9429 6.69086 12.9429ZM15.279 20.5894C14.9291 20.5905 14.5824 20.5233 14.2591 20.3919C13.9358 20.2604 13.6424 20.0673 13.3959 19.8236C13.2827 19.7052 13.2209 19.5483 13.2235 19.3861C13.2262 19.2238 13.293 19.0689 13.4098 18.9541C13.5267 18.8393 13.6845 18.7736 13.8499 18.7709C14.0152 18.7681 14.1752 18.8286 14.2959 18.9395C14.4908 19.1303 14.7389 19.2602 15.009 19.3127C15.279 19.3652 15.5588 19.3381 15.8132 19.2347C16.0675 19.1313 16.2849 18.9563 16.4379 18.7317C16.5909 18.5072 16.6727 18.2432 16.6729 17.973C16.6729 17.2202 16.049 16.608 15.2809 16.608H7.16965C7.00092 16.608 6.83911 16.5422 6.7198 16.4251C6.60049 16.3081 6.53346 16.1493 6.53346 15.9837C6.53346 15.8181 6.60049 15.6594 6.7198 15.5423C6.83911 15.4252 7.00092 15.3595 7.16965 15.3595H15.2809C15.9873 15.3602 16.6646 15.6359 17.1641 16.126C17.6636 16.6162 17.9446 17.2808 17.9453 17.974C17.9446 18.6671 17.6636 19.3317 17.1641 19.8219C16.6646 20.312 15.9873 20.5877 15.2809 20.5884L15.279 20.5903V20.5894ZM4.66447 16.6098H2.63619C2.46746 16.6098 2.30565 16.5441 2.18634 16.427C2.06703 16.3099 2 16.1511 2 15.9856C2 15.82 2.06703 15.6612 2.18634 15.5441C2.30565 15.4271 2.46746 15.3613 2.63619 15.3613H4.66447C4.8332 15.3613 4.99501 15.4271 5.11432 15.5441C5.23363 15.6612 5.30066 15.82 5.30066 15.9856C5.30066 16.1511 5.23363 16.3099 5.11432 16.427C4.99501 16.5441 4.8332 16.6098 4.66447 16.6098ZM8.20358 5.4508C8.28713 5.4508 8.36986 5.43466 8.44704 5.40328C8.52423 5.37191 8.59436 5.32593 8.65344 5.26796C8.71251 5.20999 8.75937 5.14118 8.79135 5.06544C8.82332 4.9897 8.83977 4.90852 8.83977 4.82654C8.83977 4.74456 8.82332 4.66339 8.79135 4.58765C8.75937 4.51191 8.71251 4.44309 8.65344 4.38512C8.59436 4.32715 8.52423 4.28117 8.44704 4.2498C8.36986 4.21843 8.28713 4.20228 8.20358 4.20228C8.03485 4.20228 7.87303 4.26805 7.75373 4.38512C7.63442 4.50219 7.56739 4.66098 7.56739 4.82654C7.56739 4.99211 7.63442 5.15089 7.75373 5.26796C7.87303 5.38503 8.03485 5.4508 8.20358 5.4508ZM10.1631 19.8116C10.3319 19.8116 10.4938 19.7458 10.6132 19.6286C10.7326 19.5115 10.7997 19.3526 10.7997 19.1869C10.7997 19.0212 10.7326 18.8623 10.6132 18.7451C10.4938 18.628 10.3319 18.5621 10.1631 18.5621C9.99432 18.5621 9.83251 18.6279 9.7132 18.745C9.59389 18.8621 9.52686 19.0208 9.52686 19.1864C9.52686 19.352 9.59389 19.5108 9.7132 19.6278C9.83251 19.7449 9.99432 19.8116 10.1631 19.8116ZM18.3836 4.11442C18.4504 4.11442 18.5166 4.1015 18.5784 4.07641C18.6401 4.05131 18.6962 4.01452 18.7435 3.96815C18.7907 3.92177 18.8282 3.86672 18.8538 3.80613C18.8794 3.74554 18.8926 3.6806 18.8926 3.61501C18.8926 3.54943 18.8794 3.48449 18.8538 3.4239C18.8282 3.36331 18.7907 3.30825 18.7435 3.26188C18.6962 3.2155 18.6401 3.17872 18.5784 3.15362C18.5166 3.12852 18.4504 3.1156 18.3836 3.1156C18.2486 3.1156 18.1192 3.16822 18.0237 3.26188C17.9283 3.35553 17.8746 3.48256 17.8746 3.61501C17.8746 3.74746 17.9283 3.87449 18.0237 3.96815C18.1192 4.06181 18.2486 4.11442 18.3836 4.11442ZM5.72196 3.99882C5.85694 3.99882 5.9864 3.9462 6.08185 3.85254C6.17729 3.75889 6.23091 3.63186 6.23091 3.49941C6.23091 3.36696 6.17729 3.23993 6.08185 3.14627C5.9864 3.05262 5.85694 3 5.72196 3C5.58698 3 5.45752 3.05262 5.36208 3.14627C5.26663 3.23993 5.21301 3.36696 5.21301 3.49941C5.21301 3.63186 5.26663 3.75889 5.36208 3.85254C5.45752 3.9462 5.58698 3.99882 5.72196 3.99882ZM6.98869 21C7.12367 21 7.25313 20.9474 7.34857 20.8537C7.44402 20.7601 7.49764 20.633 7.49764 20.5006C7.49764 20.3681 7.44402 20.2411 7.34857 20.1475C7.25313 20.0538 7.12367 20.0012 6.98869 20.0012C6.85371 20.0012 6.72425 20.0538 6.6288 20.1475C6.53336 20.2411 6.47974 20.3681 6.47974 20.5006C6.47974 20.633 6.53336 20.7601 6.6288 20.8537C6.72425 20.9474 6.85371 21 6.98869 21ZM20.9284 6.09819C21.0119 6.09819 21.0946 6.08204 21.1718 6.05067C21.249 6.01929 21.3191 5.97331 21.3782 5.91534C21.4373 5.85738 21.4842 5.78856 21.5161 5.71282C21.5481 5.63708 21.5646 5.5559 21.5646 5.47393C21.5646 5.39195 21.5481 5.31077 21.5161 5.23503C21.4842 5.15929 21.4373 5.09047 21.3782 5.03251C21.3191 4.97454 21.249 4.92855 21.1718 4.89718C21.0946 4.86581 21.0119 4.84966 20.9284 4.84966C20.7596 4.84966 20.5978 4.91543 20.4785 5.03251C20.3592 5.14958 20.2922 5.30836 20.2922 5.47393C20.2922 5.63949 20.3592 5.79827 20.4785 5.91534C20.5978 6.03242 20.7596 6.09819 20.9284 6.09819ZM20.9284 15.4593C21.0971 15.4593 21.2589 15.3936 21.3782 15.2765C21.4975 15.1594 21.5646 15.0006 21.5646 14.8351C21.5646 14.6695 21.4975 14.5107 21.3782 14.3937C21.2589 14.2766 21.0971 14.2108 20.9284 14.2108C20.7596 14.2108 20.5978 14.2766 20.4785 14.3937C20.3592 14.5107 20.2922 14.6695 20.2922 14.8351C20.2922 15.0006 20.3592 15.1594 20.4785 15.2765C20.5978 15.3936 20.7596 15.4593 20.9284 15.4593ZM19.656 17.8288C19.8037 17.8288 19.9454 17.7712 20.0499 17.6687C20.1543 17.5662 20.213 17.4271 20.213 17.2822C20.213 17.1372 20.1543 16.9982 20.0499 16.8957C19.9454 16.7932 19.8037 16.7356 19.656 16.7356C19.5083 16.7356 19.3666 16.7932 19.2621 16.8957C19.1576 16.9982 19.099 17.1372 19.099 17.2822C19.099 17.4271 19.1576 17.5662 19.2621 17.6687C19.3666 17.7712 19.5083 17.8288 19.656 17.8288ZM19.983 3.65293C20.0675 3.65293 20.1486 3.62 20.2083 3.56137C20.268 3.50275 20.3016 3.42324 20.3016 3.34034C20.3016 3.25743 20.268 3.17792 20.2083 3.1193C20.1486 3.06068 20.0675 3.02774 19.983 3.02774C19.8985 3.02774 19.8175 3.06068 19.7578 3.1193C19.698 3.17792 19.6645 3.25743 19.6645 3.34034C19.6645 3.42324 19.698 3.50275 19.7578 3.56137C19.8175 3.62 19.8985 3.65293 19.983 3.65293ZM9.52686 3.92761C9.61135 3.92761 9.69238 3.89467 9.75212 3.83605C9.81187 3.77743 9.84543 3.69792 9.84543 3.61501C9.84543 3.53211 9.81187 3.4526 9.75212 3.39398C9.69238 3.33535 9.61135 3.30242 9.52686 3.30242C9.44237 3.30242 9.36134 3.33535 9.3016 3.39398C9.24186 3.4526 9.20829 3.53211 9.20829 3.61501C9.20829 3.69792 9.24186 3.77743 9.3016 3.83605C9.36134 3.89467 9.44237 3.92761 9.52686 3.92761ZM8.20358 18.8747C8.24681 18.877 8.29007 18.8707 8.33071 18.856C8.37135 18.8414 8.40852 18.8188 8.43995 18.7896C8.47139 18.7604 8.49643 18.7252 8.51354 18.6861C8.53065 18.6471 8.53947 18.6051 8.53947 18.5626C8.53947 18.5201 8.53065 18.4781 8.51354 18.4391C8.49643 18.4 8.47139 18.3649 8.43995 18.3356C8.40852 18.3064 8.37135 18.2838 8.33071 18.2692C8.29007 18.2545 8.24681 18.2482 8.20358 18.2505C8.12221 18.2548 8.04563 18.2896 7.9896 18.3477C7.93357 18.4057 7.90234 18.4826 7.90234 18.5626C7.90234 18.6426 7.93357 18.7195 7.9896 18.7775C8.04563 18.8356 8.12221 18.8704 8.20358 18.8747ZM19.0434 15.1467C19.0866 15.1491 19.1298 15.1427 19.1705 15.128C19.2111 15.1134 19.2483 15.0908 19.2797 15.0616C19.3112 15.0324 19.3362 14.9972 19.3533 14.9582C19.3704 14.9191 19.3792 14.8771 19.3792 14.8346C19.3792 14.7921 19.3704 14.7501 19.3533 14.7111C19.3362 14.672 19.3112 14.6369 19.2797 14.6076C19.2483 14.5784 19.2111 14.5558 19.1705 14.5412C19.1298 14.5265 19.0866 14.5202 19.0434 14.5225C18.962 14.5268 18.8854 14.5616 18.8294 14.6197C18.7733 14.6777 18.7421 14.7546 18.7421 14.8346C18.7421 14.9146 18.7733 14.9915 18.8294 15.0496C18.8854 15.1076 18.962 15.1424 19.0434 15.1467ZM20.9284 19.499C20.9716 19.5013 21.0149 19.4949 21.0555 19.4803C21.0961 19.4657 21.1333 19.443 21.1647 19.4138C21.1962 19.3846 21.2212 19.3494 21.2383 19.3104C21.2554 19.2714 21.2643 19.2293 21.2643 19.1869C21.2643 19.1444 21.2554 19.1024 21.2383 19.0633C21.2212 19.0243 21.1962 18.9891 21.1647 18.9599C21.1333 18.9307 21.0961 18.9081 21.0555 18.8934C21.0149 18.8788 20.9716 18.8724 20.9284 18.8747C20.847 18.8791 20.7704 18.9139 20.7144 18.9719C20.6584 19.03 20.6271 19.1069 20.6271 19.1869C20.6271 19.2668 20.6584 19.3438 20.7144 19.4018C20.7704 19.4599 20.847 19.4946 20.9284 19.499ZM3.1131 5.13821C3.15633 5.14052 3.19959 5.13416 3.24023 5.11952C3.28087 5.10487 3.31804 5.08226 3.34947 5.05305C3.38091 5.02384 3.40594 4.98864 3.42306 4.94962C3.44017 4.9106 3.44899 4.86856 3.44899 4.82608C3.44899 4.7836 3.44017 4.74156 3.42306 4.70254C3.40594 4.66352 3.38091 4.62832 3.34947 4.59911C3.31804 4.5699 3.28087 4.54729 3.24023 4.53264C3.19959 4.518 3.15633 4.51164 3.1131 4.51395C3.03173 4.5183 2.95515 4.55308 2.89912 4.61114C2.84308 4.6692 2.81185 4.74612 2.81185 4.82608C2.81185 4.90604 2.84308 4.98297 2.89912 5.04102C2.95515 5.09908 3.03173 5.13386 3.1131 5.13821ZM4.44958 20.1103C4.49281 20.1126 4.53606 20.1063 4.5767 20.0916C4.61734 20.077 4.65451 20.0544 4.68595 20.0251C4.71738 19.9959 4.74242 19.9607 4.75953 19.9217C4.77664 19.8827 4.78546 19.8407 4.78546 19.7982C4.78546 19.7557 4.77664 19.7137 4.75953 19.6746C4.74242 19.6356 4.71738 19.6004 4.68595 19.5712C4.65451 19.542 4.61734 19.5194 4.5767 19.5047C4.53606 19.4901 4.49281 19.4837 4.44958 19.4861C4.36821 19.4904 4.29163 19.5252 4.23559 19.5832C4.17956 19.6413 4.14833 19.7182 4.14833 19.7982C4.14833 19.8781 4.17956 19.9551 4.23559 20.0131C4.29163 20.0712 4.36821 20.106 4.44958 20.1103ZM18.3808 6.38303C18.4653 6.38303 18.5463 6.3501 18.606 6.29148C18.6658 6.23286 18.6993 6.15335 18.6993 6.07044C18.6993 5.98754 18.6658 5.90803 18.606 5.8494C18.5463 5.79078 18.4653 5.75785 18.3808 5.75785C18.2994 5.7622 18.2228 5.79698 18.1668 5.85503C18.1108 5.91309 18.0795 5.99002 18.0795 6.06998C18.0795 6.14994 18.1108 6.22686 18.1668 6.28492C18.2228 6.34298 18.2994 6.37776 18.3808 6.38211V6.38303Z" fill="#101717"/>
</svg>
