<svg width="24" height="24" viewBox="0 0 24 24" fill="none" xmlns="http://www.w3.org/2000/svg">
<path fill-rule="evenodd" clip-rule="evenodd" d="M12.0018 1.50011C12.1738 1.49763 12.3399 1.56347 12.4646 1.68356C12.5893 1.80364 12.6628 1.96845 12.6693 2.14274C16.9686 2.46135 20.4714 5.84869 20.9867 10.1846L21 10.3652C21 10.5247 20.9376 10.6777 20.8265 10.7905C20.7153 10.9034 20.5646 10.9669 20.4073 10.9672H12.6177C12.6177 10.9672 12.6221 19.992 12.6177 20.0082C12.6177 20.7276 13.1944 21.3106 13.9019 21.3106C14.6094 21.3106 15.186 20.7258 15.186 20.0082C15.1917 19.8527 15.2566 19.7054 15.367 19.5974C15.4775 19.4893 15.6249 19.4288 15.7783 19.4286C15.9318 19.4284 16.0794 19.4884 16.1901 19.5961C16.3008 19.7039 16.3662 19.8509 16.3723 20.0064C16.1783 23.4344 11.5702 23.2024 11.4305 20.0804V10.969H11.2276C11.2276 10.969 5.67794 16.0983 5.67082 16.1082C5.22496 16.5351 4.50055 16.4015 4.1864 15.8817C4.09932 15.7425 4.04964 15.5826 4.0423 15.418C4.03497 15.2533 4.07022 15.0896 4.14458 14.943L5.08168 13.0016C4.23179 13.035 3.85179 12.2822 4.23802 11.5186C4.2576 11.4834 4.5406 10.9906 4.55306 10.9708H3.64532V10.9672C3.31426 11.0051 2.993 10.7072 3.00012 10.367L3.01703 10.1774C3.53497 5.84508 7.03776 2.46045 11.3317 2.14274C11.3382 1.96797 11.412 1.80276 11.5373 1.6826C11.6626 1.56244 11.8294 1.49692 12.0018 1.50011ZM19.7292 9.76224C18.0036 1.24107 5.99743 1.24378 4.2754 9.76224H5.24899L6.25996 8.00945C6.43439 7.70709 6.75565 7.52206 7.10006 7.52206H9.81704C10.5931 7.51123 10.9473 8.35964 10.5619 9.02032L10.0778 9.76224H19.7292ZM5.01405 12.0493H6.58212L4.90191 15.5333L5.04608 15.4006L9.81615 11.0294L9.88824 10.9627H8.16888L9.76364 8.52572L9.8028 8.46615H7.07959L5.01494 12.0475L5.01405 12.0493Z" fill="#101717"/>
<path fill-rule="evenodd" clip-rule="evenodd" d="M9.27348 15.3555C9.377 15.3547 9.47779 15.3891 9.55975 15.4532C9.64171 15.5174 9.70009 15.6075 9.72557 15.7093L9.72583 15.7103C9.74897 15.8009 10.2117 17.6134 10.0468 18.8412C10.0249 19.0569 9.97024 19.2679 9.88487 19.4667C9.72622 19.8338 9.46615 20.1464 9.13608 20.3668C8.80601 20.5872 8.42007 20.7059 8.0249 20.7086C7.62214 20.7082 7.2291 20.5831 6.89832 20.35C6.56755 20.117 6.31479 19.7871 6.17383 19.4044C6.04089 19.0498 6.00678 18.6648 6.07522 18.2918C6.14366 17.9188 6.31202 17.5721 6.56184 17.2897C7.34944 16.3303 8.98336 15.4484 9.05278 15.4123C9.11955 15.3759 9.19411 15.3567 9.26992 15.3564L9.27348 15.3555ZM8.0249 19.7618C8.45652 19.7618 8.84987 19.4974 9.02697 19.0885C9.03576 19.0685 9.04334 19.0478 9.05169 19.025L9.05723 19.01C9.08838 18.9197 9.10795 18.8295 9.11685 18.7392V18.7212C9.20407 18.0939 9.08215 17.2301 8.96556 16.6164L8.95489 16.5631L8.90861 16.592C8.38266 16.9196 7.67338 17.4133 7.27735 17.9025L7.26489 17.9161C7.18452 18.0059 7.11901 18.1083 7.07089 18.2193C6.95214 18.4893 6.9435 18.7959 7.04686 19.0723C7.12093 19.2749 7.25449 19.4497 7.42953 19.573C7.60457 19.6963 7.81178 19.7622 8.0249 19.7618Z" fill="#101717"/>
<path d="M17.1441 12.8622C17.1655 12.6077 17.2073 11.9849 16.7677 12.0147V12.0246C16.3585 12.0273 16.3877 12.5238 16.4073 12.8578L16.4081 12.8712C16.3716 12.8487 16.1224 12.7034 16.078 12.6781C16.0317 12.6492 15.9845 12.6348 15.9382 12.6348C15.6721 12.6411 15.5511 13.04 15.7985 13.1646L16.385 13.5076L16.4028 13.5184V14.5383L15.5315 14.0283V13.3207C15.5333 13.2458 15.5084 13.1781 15.4621 13.1312C15.3028 12.9651 14.9575 13.0644 14.9753 13.3207V13.7179C14.1317 12.9498 13.49 13.967 14.6389 14.3623C14.2447 14.4381 13.8504 14.9625 14.4227 15.0762C14.5145 15.0722 14.7192 14.9465 14.9003 14.8352C15.0033 14.7719 15.0987 14.7133 15.1613 14.6845L16.0299 15.1936L15.1586 15.7044L15.1408 15.6936L14.5553 15.3506C14.5081 15.3217 14.4618 15.3082 14.4155 15.3082C14.1495 15.3145 14.0275 15.7134 14.2749 15.838C14.29 15.8469 14.3235 15.8664 14.364 15.8901C14.4556 15.9435 14.5829 16.0178 14.6131 16.0366C13.4829 16.449 14.1584 17.4256 14.9744 16.6693V17.0664C14.9557 17.3236 15.301 17.422 15.4603 17.2559C15.4838 17.2305 15.5021 17.2005 15.514 17.1678C15.5259 17.1351 15.5313 17.1003 15.5298 17.0655V16.3579C15.5553 16.3419 16.0079 16.0771 16.2505 15.9351C16.3371 15.8844 16.397 15.8494 16.401 15.847V16.8651L16.3832 16.8759L15.7967 17.2189C15.5493 17.3435 15.6686 17.7433 15.9356 17.7487C15.985 17.7475 16.0333 17.7328 16.0753 17.7063C16.0953 17.6951 16.1586 17.658 16.225 17.6191C16.3036 17.573 16.3865 17.5244 16.4072 17.5132L16.4067 17.5198C16.3877 17.7721 16.3425 18.3714 16.7659 18.3598C17.1922 18.3742 17.1655 17.857 17.1432 17.5168C17.195 17.5375 17.2541 17.5745 17.3151 17.6126C17.4163 17.6759 17.5225 17.7424 17.6086 17.7424C17.8819 17.7496 18.002 17.3651 17.7528 17.2171L17.1655 16.8732L17.1468 16.8624V15.8434L18.0189 16.3534V17.061C18.002 17.422 18.5894 17.422 18.5742 17.061H18.5787C18.5742 17.0465 18.5742 16.8273 18.5742 16.682C18.6362 16.708 18.7072 16.7522 18.7806 16.798C18.9106 16.879 19.0479 16.9646 19.1554 16.9617C19.522 16.9725 19.6831 16.4499 19.3485 16.2559L18.948 16.0212L19.2746 15.8299C19.522 15.7053 19.4019 15.3055 19.1358 15.2992C19.087 15.3002 19.0393 15.3145 18.9978 15.3407L18.4123 15.6837L18.3945 15.6936L17.5232 15.1836C17.5191 15.186 17.5591 15.1626 17.624 15.1246C17.851 14.9917 18.3819 14.6809 18.3909 14.6746C18.4549 14.7035 18.5547 14.7649 18.6617 14.8306C18.8418 14.9414 19.0422 15.0646 19.126 15.0663C19.7044 14.9553 19.3084 14.4282 18.9124 14.3515C20.0595 13.957 19.4197 12.9398 18.576 13.7079V13.3108C18.5938 13.0545 18.2485 12.9552 18.0892 13.1213C18.0657 13.1467 18.0475 13.1767 18.0356 13.2094C18.0236 13.2421 18.0183 13.2769 18.0198 13.3117V14.0202L17.1494 14.5302V13.5112L17.1672 13.5003L17.7528 13.1574C18.0002 13.0328 17.8801 12.6339 17.6149 12.6275C17.5658 12.6281 17.5179 12.6422 17.476 12.6682L17.1441 12.8622Z" fill="#101717"/>
</svg>
