<svg width="24" height="24" viewBox="0 0 24 24" fill="none" xmlns="http://www.w3.org/2000/svg">
<path fill-rule="evenodd" clip-rule="evenodd" d="M18.5973 18.2288C18.5904 18.5191 18.5848 18.7566 18.5965 18.8465H18.5947L19.9554 21.0783C20.3593 21.7627 19.3686 22.389 18.956 21.7029C18.9333 21.6464 18.7672 21.3813 18.5518 21.0377C18.0724 20.2728 17.3491 19.1188 17.4212 19.0101V17.0862L12.5645 10.097C11.3206 11.1397 10.9106 11.6294 10.5166 11.6169C10.1098 11.6041 9.7199 11.0561 8.44681 10.0293C7.1418 11.1212 6.71832 11.6304 6.31366 11.6158C5.89419 11.6007 5.49495 11.0229 4.15504 9.94835L3.05642 11.4227C3.00375 11.4935 2.93609 11.5516 2.85838 11.5926C2.78067 11.6336 2.69488 11.6565 2.60727 11.6597C2.51966 11.6629 2.43246 11.6463 2.35202 11.6111C2.27158 11.5759 2.19995 11.5229 2.14235 11.4561C2.05354 11.3509 2.00333 11.218 2.00016 11.0797C1.99699 10.9414 2.04105 10.8063 2.12494 10.697L7.51359 3.46762C7.95844 2.83072 8.98829 2.84743 9.41485 3.49929L18.4894 16.5575C18.6336 16.6948 18.6124 17.5897 18.5973 18.2288ZM8.44509 8.67487C8.853 8.67422 9.26177 9.20203 10.5457 10.2606L10.5448 10.2589L11.8863 9.12143L8.45377 4.18193L4.86279 9.00003L6.3488 10.2606C7.62994 9.20489 8.03709 8.67553 8.44509 8.67487Z" fill="#101717"/>
<path d="M13.9784 18.4054C13.9035 18.4368 13.8233 18.4529 13.7422 18.4529C13.5785 18.4529 13.4215 18.3872 13.3058 18.2702C13.19 18.1533 13.125 17.9946 13.125 17.8292C13.125 17.6638 13.19 17.5052 13.3058 17.3882C13.4215 17.2712 13.5785 17.2055 13.7422 17.2055C13.8233 17.2055 13.9035 17.2216 13.9784 17.253C14.0533 17.2843 14.1213 17.3303 14.1786 17.3882C14.236 17.4461 14.2814 17.5149 14.3124 17.5905C14.3435 17.6662 14.3594 17.7473 14.3594 17.8292C14.3594 17.9111 14.3435 17.9922 14.3124 18.0679C14.2814 18.1436 14.236 18.2123 14.1786 18.2702C14.1213 18.3282 14.0533 18.3741 13.9784 18.4054Z" fill="#101717"/>
<path d="M15.8375 19.9351C15.7493 20.0241 15.6297 20.0742 15.5051 20.0742C15.3804 20.0742 15.2608 20.0241 15.1727 19.9351C15.0845 19.846 15.035 19.7251 15.035 19.5992C15.035 19.4732 15.0845 19.3523 15.1727 19.2633C15.2608 19.1742 15.3804 19.1241 15.5051 19.1241C15.6297 19.1241 15.7493 19.1742 15.8375 19.2633C15.9256 19.3523 15.9752 19.4732 15.9752 19.5992C15.9752 19.7251 15.9256 19.846 15.8375 19.9351Z" fill="#101717"/>
<path d="M14.7663 4.61118C14.6505 4.72815 14.4935 4.79386 14.3298 4.79386C14.1661 4.79386 14.0091 4.72815 13.8934 4.61118C13.7776 4.49422 13.7126 4.33557 13.7126 4.17016C13.7126 4.00474 13.7776 3.8461 13.8934 3.72913C14.0091 3.61216 14.1661 3.54645 14.3298 3.54645C14.4935 3.54645 14.6505 3.61216 14.7663 3.72913C14.882 3.8461 14.947 4.00474 14.947 4.17016C14.947 4.33557 14.882 4.49422 14.7663 4.61118Z" fill="#101717"/>
<path d="M18.6998 12.8201C18.6116 12.9092 18.4921 12.9592 18.3674 12.9592C18.2427 12.9592 18.1232 12.9092 18.035 12.8201C17.9468 12.731 17.8973 12.6102 17.8973 12.4842C17.8973 12.3582 17.9468 12.2374 18.035 12.1483C18.1232 12.0592 18.2427 12.0091 18.3674 12.0091C18.4921 12.0091 18.6116 12.0592 18.6998 12.1483C18.788 12.2374 18.8375 12.3582 18.8375 12.4842C18.8375 12.6102 18.788 12.731 18.6998 12.8201Z" fill="#101717"/>
<path d="M21.6192 11.8728C21.5443 11.9042 21.464 11.9203 21.383 11.9203C21.2193 11.9203 21.0623 11.8546 20.9465 11.7376C20.8308 11.6206 20.7657 11.462 20.7657 11.2966C20.7657 11.1312 20.8308 10.9725 20.9465 10.8556C21.0623 10.7386 21.2193 10.6729 21.383 10.6729C21.464 10.6729 21.5443 10.689 21.6192 10.7204C21.694 10.7517 21.7621 10.7976 21.8194 10.8556C21.8767 10.9135 21.9222 10.9822 21.9532 11.0579C21.9842 11.1336 22.0002 11.2147 22.0002 11.2966C22.0002 11.3785 21.9842 11.4596 21.9532 11.5353C21.9222 11.6109 21.8767 11.6797 21.8194 11.7376C21.7621 11.7955 21.694 11.8415 21.6192 11.8728Z" fill="#101717"/>
<path fill-rule="evenodd" clip-rule="evenodd" d="M17.348 10.226H19.305V10.2242C19.4142 10.2245 19.5213 10.1939 19.6142 10.1359C19.7071 10.0779 19.7821 9.99488 19.8308 9.8961L20.804 7.9291C20.8602 7.81614 20.879 7.688 20.8579 7.56342C20.8367 7.43885 20.7767 7.32439 20.6865 7.23678L18.8131 5.40701C18.7287 5.32441 18.6216 5.26935 18.5058 5.24896C18.39 5.22857 18.2708 5.24379 18.1637 5.29265L16.2172 6.17762C16.0056 6.27351 15.8707 6.4864 15.8707 6.71952V7.83233C15.8703 7.92447 15.8912 8.01543 15.9316 8.098L16.8222 9.89786C16.8712 9.99638 16.9463 10.0792 17.0391 10.1372C17.132 10.1951 17.2389 10.2258 17.348 10.226ZM18.9411 9.0384H17.711L17.045 7.69334V7.10395L18.2812 6.54094L19.5592 7.78923L18.9411 9.0384Z" fill="#101717"/>
<path d="M21.5004 5.7112C21.4628 5.72513 21.4229 5.73118 21.383 5.72898C21.3078 5.72484 21.2371 5.69176 21.1853 5.63654C21.1336 5.58131 21.1047 5.50814 21.1047 5.43208C21.1047 5.35602 21.1336 5.28285 21.1853 5.22763C21.2371 5.1724 21.3078 5.13932 21.383 5.13518C21.4229 5.13299 21.4628 5.13904 21.5004 5.15297C21.5379 5.16689 21.5722 5.18841 21.6013 5.21619C21.6303 5.24398 21.6534 5.27745 21.6692 5.31457C21.685 5.35169 21.6932 5.39167 21.6932 5.43208C21.6932 5.47249 21.685 5.51247 21.6692 5.54959C21.6534 5.58671 21.6303 5.62019 21.6013 5.64797C21.5722 5.67576 21.5379 5.69727 21.5004 5.7112Z" fill="#101717"/>
<path d="M14.5376 16.2573C14.4825 16.313 14.4078 16.3443 14.3298 16.3443C14.2519 16.3443 14.1772 16.313 14.1221 16.2573C14.067 16.2016 14.036 16.1261 14.036 16.0474C14.036 15.9686 14.067 15.8931 14.1221 15.8374C14.1772 15.7818 14.2519 15.7505 14.3298 15.7505C14.4078 15.7505 14.4825 15.7818 14.5376 15.8374C14.5927 15.8931 14.6236 15.9686 14.6236 16.0474C14.6236 16.1261 14.5927 16.2016 14.5376 16.2573Z" fill="#101717"/>
</svg>
