<svg width="24" height="24" viewBox="0 0 24 24" fill="none" xmlns="http://www.w3.org/2000/svg">
<path d="M4.45846 17.8797C3.62732 17.9044 3.62732 19.0913 4.45846 19.1161C5.28959 19.0913 5.28959 17.9044 4.45846 17.8797Z" fill="#101717"/>
<path d="M6.97234 20.4175C6.24452 20.4395 6.24452 21.478 6.97234 21.5C7.69924 21.478 7.69924 20.4395 6.97234 20.4175Z" fill="#101717"/>
<path d="M6.97234 4.34542C7.8435 4.31886 7.8435 3.0724 6.97234 3.04676C6.10025 3.07332 6.10025 4.31977 6.97234 4.34542Z" fill="#101717"/>
<path d="M3.82277 6.13222C3.84418 6.84749 4.89962 6.84749 4.92196 6.13222C4.89962 5.41695 3.84418 5.41695 3.82277 6.13222Z" fill="#101717"/>
<path d="M3.86931 3.55871C4.53385 3.53856 4.53385 2.58975 3.86931 2.5696C3.20477 2.58975 3.20477 3.53856 3.86931 3.55871Z" fill="#101717"/>
<path d="M20.1356 6.20915C20.9667 6.18442 20.9667 4.99749 20.1356 4.97277C19.3044 4.99749 19.3044 6.18442 20.1356 6.20915Z" fill="#101717"/>
<path d="M4.3719 20.4642C3.70736 20.4843 3.70736 21.4331 4.3719 21.4533C5.03644 21.4331 5.03644 20.4843 4.3719 20.4642Z" fill="#101717"/>
<path d="M10.1117 3.58161C10.8395 3.56054 10.8395 2.52106 10.1117 2.5C9.38478 2.52106 9.38478 3.56054 10.1117 3.58161Z" fill="#101717"/>
<path d="M20.7945 14.807C19.9234 14.8327 19.9234 16.0791 20.7945 16.1048C21.6675 16.0791 21.6675 14.8327 20.7945 14.807Z" fill="#101717"/>
<path d="M21.5019 8.51248C22.1664 8.49234 22.1664 7.54353 21.5019 7.52338C20.8383 7.54353 20.8383 8.49234 21.5019 8.51248Z" fill="#101717"/>
<path d="M15.1404 9.88075C16.0125 9.85419 16.0125 8.60773 15.1404 8.58209C14.2683 8.60865 14.2683 9.8551 15.1404 9.88075Z" fill="#101717"/>
<path fill-rule="evenodd" clip-rule="evenodd" d="M19.6437 11.6962H21.3469L21.3451 11.6971C22.2172 11.7228 22.2172 12.9692 21.3451 12.9958H19.6419C18.9494 20.35 9.08932 22.4537 5.3506 16.1069H2.65337C1.78221 16.0812 1.78221 14.8348 2.65337 14.8091H4.74936C4.19092 13.2788 4.19092 11.4114 4.74936 9.88284H2.65523C1.78314 9.8572 1.78314 8.61074 2.65523 8.58418H5.35247C9.08746 2.24016 18.9494 4.33652 19.6437 11.6962ZM9.11649 17.9847C10.0109 18.4279 10.9983 18.659 11.9997 18.6593C15.3149 18.6593 18.0513 16.1719 18.3826 12.9939H8.07297C7.98429 12.9972 7.89585 12.9829 7.81294 12.9517C7.73003 12.9206 7.65435 12.8733 7.59043 12.8128C7.52651 12.7522 7.47567 12.6795 7.44094 12.5992C7.40621 12.5188 7.38831 12.4324 7.38831 12.3451C7.38831 12.2578 7.40621 12.1713 7.44094 12.091C7.47567 12.0106 7.52651 11.938 7.59043 11.8774C7.65435 11.8168 7.73003 11.7695 7.81294 11.7384C7.89585 11.7073 7.98429 11.6929 8.07297 11.6962H18.3826C17.7748 5.98869 10.3039 3.99216 6.84907 8.58418H12.7852C13.6573 8.61074 13.6573 9.85628 12.7852 9.88193H6.09239C5.41948 11.3793 5.41948 13.3127 6.09239 14.8091H14.6709C15.5439 14.8348 15.542 16.0812 14.6709 16.1069H6.84907C7.44558 16.8984 8.22211 17.5415 9.11649 17.9847Z" fill="#101717"/>
</svg>
