<svg width="24" height="24" viewBox="0 0 24 24" fill="none" xmlns="http://www.w3.org/2000/svg">
<path fill-rule="evenodd" clip-rule="evenodd" d="M10.3793 9.87813C10.9421 9.31567 11.7053 8.99979 12.501 9C13.2967 9.0001 14.059 9.31627 14.6215 9.87895C15.1841 10.4416 15.5001 11.2047 15.5 12.0004C15.4999 12.796 15.1837 13.5591 14.621 14.1216C14.0583 14.6841 13.2951 15.0001 12.4994 15C11.7037 14.9998 10.9407 14.6835 10.3782 14.1208C9.81569 13.558 9.49979 12.7949 9.5 11.9992C9.50021 11.2036 9.81649 10.4406 10.3793 9.87813ZM11.117 13.3824C11.4841 13.7494 11.9818 13.9558 12.501 13.9562C13.0202 13.956 13.5173 13.7497 13.8844 13.3826C14.2515 13.0155 14.4579 12.5176 14.4581 11.9985C14.4577 11.4794 14.2512 10.9818 13.8841 10.6148C13.517 10.2479 13.0193 10.0417 12.5002 10.0415C11.9813 10.0419 11.4837 10.2482 11.1168 10.6151C10.7498 10.982 10.5435 11.4796 10.5431 11.9985C10.5435 12.5176 10.7499 13.0153 11.117 13.3824Z" fill="#101717"/>
<path fill-rule="evenodd" clip-rule="evenodd" d="M15.0295 3.89245C14.9557 4.19185 14.7951 4.46034 14.5697 4.66151C16.0146 5.20837 17.2628 6.20509 18.1446 7.51623C19.0265 8.82738 19.4993 10.3894 19.4989 11.9901C19.5371 14.5258 18.597 16.9747 16.8488 18.8835C15.1475 20.7416 12.8189 21.8761 10.4582 21.9982C10.4321 22 10.4061 22 10.3801 22C9.76575 22 9.23044 21.6119 9.01757 21.0121C8.91311 20.7228 8.89668 20.407 8.97052 20.1076C9.04435 19.8082 9.20487 19.5397 9.43028 19.3385C7.98541 18.7917 6.73725 17.7949 5.85538 16.4838C4.9735 15.1727 4.50067 13.6106 4.50112 12.01C4.46289 9.47333 5.40302 7.02535 7.15121 5.11654C8.85248 3.2584 11.1811 2.12397 13.5418 2.00184C13.5679 2.00003 13.5948 2.00003 13.62 2.00003C13.9173 1.99811 14.2078 2.09203 14.4518 2.26891C14.6957 2.44579 14.8811 2.69695 14.9824 2.98791C15.0869 3.27725 15.1033 3.59305 15.0295 3.89245ZM10.3808 20.7796H10.3982C14.6888 20.5589 18.4006 16.6237 18.3259 12.0009C18.3285 8.73242 16.0407 6.04109 13.0605 5.50283C13.047 5.17025 13.1065 4.83884 13.2345 4.5338C13.3624 4.22875 13.5555 3.95809 13.799 3.74238C14.0015 3.56055 13.8816 3.2213 13.6209 3.2213H13.6035C9.31299 3.44294 5.60113 7.37817 5.67585 12.0009C5.67324 15.2676 7.96101 17.9598 10.9413 18.499C10.9717 19.1893 10.6806 19.8334 10.2027 20.2595C10.0003 20.4413 10.1193 20.7796 10.3808 20.7796Z" fill="#101717"/>
</svg>
