<svg width="24" height="24" viewBox="0 0 24 24" fill="none" xmlns="http://www.w3.org/2000/svg">
<path d="M20.4059 13.0057H13.487C13.3301 13.0057 13.1797 13.0671 13.0688 13.1765C12.9578 13.2858 12.8955 13.4342 12.8955 13.5888C12.8955 13.7435 12.9578 13.8918 13.0688 14.0012C13.1797 14.1106 13.3301 14.172 13.487 14.172H19.8136V15.1431H15.1659C15.009 15.1431 14.8586 15.2046 14.7477 15.3139C14.6367 15.4233 14.5744 15.5716 14.5744 15.7263C14.5744 15.881 14.6367 16.0293 14.7477 16.1387C14.8586 16.2481 15.009 16.3095 15.1659 16.3095H19.8136V19.8345H17.8245V18.5351C17.8245 18.3804 17.7621 18.2321 17.6512 18.1227C17.5403 18.0133 17.3899 17.9519 17.233 17.9519C17.0761 17.9519 16.9257 18.0133 16.8148 18.1227C16.7038 18.2321 16.6415 18.3804 16.6415 18.5351V19.8345H13.8594V17.9597C13.8594 17.8831 13.8441 17.8073 13.8144 17.7365C13.7847 17.6658 13.7411 17.6015 13.6862 17.5473C13.6312 17.4932 13.566 17.4502 13.4943 17.4209C13.4225 17.3916 13.3456 17.3765 13.2679 17.3765H12.5389L11.1649 9.75194C11.1406 9.61701 11.0689 9.49482 10.9624 9.40682C10.8558 9.31882 10.7212 9.27063 10.5822 9.27071H6.27719C6.13819 9.27063 6.00361 9.31882 5.89705 9.40682C5.7905 9.49482 5.71878 9.61701 5.69448 9.75194L4.32051 17.3765H3.59147C3.4346 17.3765 3.28416 17.4379 3.17324 17.5473C3.06232 17.6567 3 17.805 3 17.9597V20.4168C3 20.7391 3.26463 21 3.59147 21H20.4085C20.5654 21 20.7158 20.9386 20.8268 20.8292C20.9377 20.7198 21 20.5715 21 20.4168V13.588C21 13.4333 20.9377 13.285 20.8268 13.1756C20.7158 13.0662 20.5654 13.0048 20.4085 13.0048L20.4059 13.0057ZM6.7714 10.4379H10.0854L10.5489 13.0057H9.27047C9.1136 13.0057 8.96316 13.0671 8.85224 13.1765C8.74131 13.2858 8.679 13.4342 8.679 13.5888C8.679 13.7435 8.74131 13.8918 8.85224 14.0012C8.96316 14.1106 9.1136 14.172 9.27047 14.172H10.7583L10.9336 15.1431H9.26872C9.11185 15.1431 8.96141 15.2046 8.85048 15.3139C8.73956 15.4233 8.67725 15.5716 8.67725 15.7263C8.67725 15.881 8.73956 16.0293 8.85048 16.1387C8.96141 16.2481 9.11185 16.3095 9.26872 16.3095H11.143L11.3358 17.3774H5.51923L6.77052 10.4379H6.7714ZM4.18031 18.5437H12.6756V19.8345H4.18031V18.5437ZM7.43121 7.80109C7.5758 7.95488 7.71162 8.09916 7.82991 8.23481C7.93193 8.35247 8.07718 8.42536 8.23371 8.43743C8.39023 8.4495 8.54521 8.39977 8.66454 8.29917C8.78388 8.19858 8.8578 8.05537 8.87004 7.90104C8.88228 7.74671 8.83184 7.5939 8.72982 7.47624C8.58867 7.31624 8.44406 7.15925 8.29608 7.00538C7.87197 6.55784 7.39091 6.04896 7.27962 5.61265C7.23691 5.4409 7.2343 5.26182 7.272 5.08893C7.30969 4.91604 7.38672 4.75384 7.49725 4.61458C7.60778 4.47531 7.74895 4.3626 7.91009 4.28496C8.07124 4.20732 8.24816 4.16677 8.42751 4.16636C8.8043 4.16636 9.14955 4.33657 9.37299 4.6355C9.42817 4.70894 9.50007 4.76856 9.58291 4.80957C9.66575 4.85057 9.75721 4.8718 9.8499 4.87155C9.94259 4.87129 10.0339 4.84957 10.1165 4.80811C10.1991 4.76666 10.2707 4.70665 10.3255 4.63291C10.4341 4.48787 10.5758 4.37006 10.7391 4.28901C10.9025 4.20797 11.0828 4.16595 11.2657 4.16636C11.6381 4.16636 11.9877 4.33657 12.2094 4.6355C12.2644 4.70909 12.3361 4.76891 12.4189 4.81013C12.5016 4.85136 12.593 4.87284 12.6857 4.87284C12.7784 4.87284 12.8698 4.85136 12.9525 4.81013C13.0352 4.76891 13.1069 4.70909 13.1619 4.6355C13.2705 4.48919 13.4127 4.37037 13.5769 4.28881C13.7411 4.20726 13.9226 4.16529 14.1065 4.16636C14.4199 4.16636 14.7205 4.28911 14.9421 4.5076C15.1636 4.7261 15.2881 5.02243 15.2881 5.33143C15.2881 5.64042 15.1636 5.93676 14.9421 6.15526C14.7205 6.37375 14.4199 6.4965 14.1065 6.4965H10.9196C10.7627 6.4965 10.6123 6.55794 10.5013 6.66731C10.3904 6.77667 10.3281 6.92501 10.3281 7.07968C10.3281 7.23435 10.3904 7.38268 10.5013 7.49205C10.6123 7.60142 10.7627 7.66286 10.9196 7.66286H14.1065C14.7331 7.66217 15.3338 7.41646 15.7768 6.97962C16.2199 6.54278 16.4691 5.9505 16.4698 5.33273C16.4698 4.048 15.4095 3 14.1065 3C13.5904 3 13.0901 3.16847 12.687 3.46914C12.2778 3.16543 11.7796 3.00081 11.2675 3C10.7505 3 10.2528 3.16847 9.8488 3.46914C9.43957 3.16543 8.94146 3.00081 8.42927 3C8.07012 3.00051 7.7158 3.08155 7.3931 3.23698C7.0704 3.39241 6.78777 3.61817 6.5666 3.89716C6.34543 4.17616 6.1915 4.5011 6.11647 4.8474C6.04143 5.19369 6.04725 5.55228 6.13348 5.89604C6.31925 6.62436 6.91072 7.25074 7.43209 7.80109H7.43121Z" fill="#101717"/>
</svg>
