<svg width="24" height="24" viewBox="0 0 24 24" fill="none" xmlns="http://www.w3.org/2000/svg">
<path d="M17.2849 13.1846C16.7932 13.1857 16.3063 13.0863 15.8525 12.8924C15.3987 12.6985 14.9872 12.4138 14.642 12.0551C14.2971 12.4141 13.8856 12.6989 13.4318 12.8929C12.978 13.0868 12.4909 13.186 11.9992 13.1846C11.5076 13.1856 11.0208 13.0862 10.5672 12.8922C10.1136 12.6983 9.7022 12.4137 9.35714 12.0551C9.01219 12.4141 8.60074 12.6989 8.14691 12.8929C7.69308 13.0868 7.20601 13.186 6.71427 13.1846C5.72961 13.1837 4.78553 12.7827 4.08919 12.0695C3.39286 11.3564 3.00115 10.3894 3.00003 9.38074C2.99661 8.52181 3.27838 7.6872 3.79907 7.01394C4.31975 6.34068 5.04843 5.86876 5.86547 5.67567C5.96057 4.97585 6.29932 4.3348 6.81934 3.87061C7.33936 3.40641 8.00561 3.15034 8.69537 3.14956C9.50608 3.14956 10.2567 3.49978 10.7848 4.0806C11.1703 3.44591 11.707 2.922 12.3444 2.55807C12.9818 2.19414 13.6991 2.00213 14.4288 2.00007C15.4765 1.99391 16.4896 2.38378 17.2743 3.09507C18.0589 3.80635 18.5598 4.78907 18.6812 5.85511C19.3653 6.14121 19.951 6.6291 20.3638 7.25684C20.7767 7.88457 20.9981 8.62383 21 9.38074C20.9989 10.3894 20.6072 11.3564 19.9108 12.0695C19.2145 12.7827 18.2696 13.1837 17.2849 13.1846ZM14.642 10.538C14.8367 10.538 15.0178 10.6386 15.1219 10.8059C15.3543 11.1772 15.6743 11.4826 16.0524 11.6938C16.4304 11.905 16.8543 12.0152 17.2849 12.0143C17.9664 12.0132 18.6197 11.7354 19.1016 11.2417C19.5835 10.7481 19.8547 10.0789 19.8559 9.38074C19.8559 8.20524 19.0858 7.16324 17.9856 6.84596C17.868 6.81249 17.764 6.74132 17.6888 6.64289C17.6135 6.54445 17.5711 6.42392 17.5676 6.29896C17.5498 5.45965 17.2107 4.66113 16.6233 4.07567C16.036 3.49022 15.2475 3.16475 14.4279 3.1695C13.7473 3.17127 13.0855 3.39859 12.5414 3.81749C11.9974 4.2364 11.6002 4.82439 11.4093 5.49362C11.3755 5.61345 11.3052 5.71909 11.2087 5.79518C11.1122 5.87127 10.9945 5.91382 10.8728 5.91666C10.7507 5.92071 10.6306 5.88401 10.5306 5.81209C10.4307 5.74017 10.3562 5.63692 10.3185 5.51789C10.1902 5.1216 9.92814 4.78514 9.57947 4.56891C9.23079 4.35267 8.81829 4.27083 8.41602 4.33807C8.01374 4.4053 7.64803 4.61721 7.38453 4.93576C7.12104 5.25431 6.97701 5.65864 6.9783 6.07617V6.12211C6.98934 6.27557 6.94206 6.42746 6.84633 6.54604C6.7506 6.66462 6.61384 6.74071 6.46462 6.75841C5.82755 6.81907 5.23575 7.12191 4.80579 7.60727C4.37583 8.09263 4.13889 8.72533 4.14164 9.38074C4.14276 10.0789 4.41398 10.7481 4.89588 11.2417C5.37779 11.7354 6.03106 12.0132 6.71258 12.0143C7.1432 12.0153 7.56713 11.9051 7.94519 11.6939C8.32324 11.4827 8.64324 11.1773 8.87562 10.8059C8.92754 10.724 8.99864 10.6566 9.08244 10.61C9.16624 10.5634 9.26009 10.539 9.35545 10.539C9.45081 10.539 9.54466 10.5634 9.62846 10.61C9.71226 10.6566 9.78336 10.724 9.83528 10.8059C10.0677 11.1773 10.3877 11.4827 10.7657 11.6939C11.1438 11.9051 11.5677 12.0153 11.9983 12.0143C12.4288 12.0152 12.8526 11.9049 13.2305 11.6937C13.6084 11.4825 13.9282 11.1772 14.1605 10.8059C14.2123 10.7235 14.2835 10.6557 14.3674 10.6088C14.4514 10.5618 14.5455 10.5372 14.6412 10.5372L14.642 10.538ZM18.8615 17.7167C18.71 17.7167 18.5647 17.6551 18.4576 17.5453C18.3505 17.4356 18.2903 17.2868 18.2903 17.1316V15.09C18.2903 14.9349 18.3505 14.786 18.4576 14.6763C18.5647 14.5666 18.71 14.5049 18.8615 14.5049C19.013 14.5049 19.1583 14.5666 19.2654 14.6763C19.3725 14.786 19.4327 14.9349 19.4327 15.09V17.1316C19.4327 17.2866 19.3727 17.4353 19.2657 17.545C19.1588 17.6547 19.0128 17.7165 18.8615 17.7167ZM8.57689 17.9022C8.50175 17.9027 8.42785 17.8826 8.36279 17.8441L7.22033 17.168C7.15504 17.1295 7.1008 17.074 7.06307 17.0072C7.02533 16.9404 7.00544 16.8646 7.00538 16.7874V15.4351C7.00538 15.279 7.08747 15.1343 7.21949 15.0554L8.36194 14.3792C8.42708 14.3404 8.5011 14.3199 8.57647 14.3199C8.65183 14.3199 8.72585 14.3404 8.79099 14.3792L9.93345 15.0554C9.99862 15.0938 10.0528 15.1491 10.0905 15.2158C10.1282 15.2824 10.1482 15.358 10.1484 15.4351V16.7874C10.1484 16.9434 10.0672 17.0891 9.93429 17.168L8.79184 17.8441C8.72652 17.8828 8.65231 17.9028 8.57689 17.9022ZM7.86265 16.5343L8.57689 16.9573L9.29113 16.5343V15.6899L8.57689 15.2669L7.86265 15.6899V16.5343ZM15.4324 17.9022C15.3573 17.9027 15.2834 17.8826 15.2183 17.8441L14.0759 17.168C14.0106 17.1295 13.9564 17.074 13.9186 17.0072C13.8809 16.9404 13.861 16.8646 13.8609 16.7874V15.4351C13.8609 15.279 13.9422 15.1343 14.075 15.0554L15.2175 14.3792C15.2826 14.3404 15.3567 14.3199 15.432 14.3199C15.5074 14.3199 15.5814 14.3404 15.6466 14.3792L16.789 15.0554C16.854 15.0939 16.908 15.1493 16.9456 15.2159C16.9832 15.2825 17.003 15.3581 17.0031 15.4351V16.7874C17.0031 16.9434 16.9219 17.0891 16.789 17.168L15.6466 17.8441C15.5815 17.8826 15.5076 17.9027 15.4324 17.9022ZM14.7182 16.5343L15.4324 16.9573L16.1467 16.5343V15.6899L15.4324 15.2669L14.7182 15.6899V16.5343ZM6.29114 22C6.21593 22.0002 6.14202 21.9798 6.07704 21.941L4.93458 21.2649C4.8695 21.2262 4.81548 21.1707 4.77791 21.1039C4.74034 21.0371 4.72053 20.9614 4.72048 20.8843V19.532C4.72048 19.3759 4.80172 19.2312 4.93458 19.1523L6.07704 18.4761C6.14215 18.4372 6.21618 18.4167 6.29156 18.4167C6.36695 18.4167 6.44098 18.4372 6.50609 18.4761L7.64854 19.1523C7.71362 19.191 7.76765 19.2465 7.80522 19.3133C7.84279 19.38 7.86259 19.4558 7.86265 19.5328V20.8852C7.86265 21.0412 7.78141 21.186 7.64854 21.2649L6.50609 21.941C6.44086 21.98 6.36664 22.0003 6.29114 22ZM5.57689 20.6312L6.29114 21.0542L7.00538 20.6312V19.7877L6.29114 19.3647L5.57689 19.7877V20.6312ZM12.0026 17.4228C11.9463 17.4228 11.8905 17.4115 11.8385 17.3894C11.7865 17.3673 11.7392 17.3349 11.6995 17.2941C11.6597 17.2532 11.6282 17.2048 11.6067 17.1515C11.5852 17.0981 11.5742 17.041 11.5743 16.9833V15.2383C11.5743 15.1807 11.5854 15.1236 11.6069 15.0704C11.6285 15.0172 11.66 14.9689 11.6998 14.9281C11.7395 14.8874 11.7867 14.8551 11.8387 14.833C11.8906 14.811 11.9463 14.7996 12.0026 14.7996C12.0588 14.7996 12.1145 14.811 12.1664 14.833C12.2184 14.8551 12.2656 14.8874 12.3053 14.9281C12.3451 14.9689 12.3766 15.0172 12.3982 15.0704C12.4197 15.1236 12.4308 15.1807 12.4308 15.2383V16.9833C12.4308 17.2261 12.2395 17.4228 12.0026 17.4228ZM12.0026 22C11.9273 22.0002 11.8534 21.9799 11.7885 21.941L10.646 21.2649C10.5808 21.2263 10.5266 21.1708 10.4888 21.104C10.4511 21.0372 10.4312 20.9615 10.431 20.8843V19.532C10.431 19.3759 10.5123 19.2312 10.6452 19.1523L11.7876 18.4761C11.8527 18.4372 11.9267 18.4167 12.0021 18.4167C12.0775 18.4167 12.1515 18.4372 12.2167 18.4761L13.3591 19.1523C13.4243 19.1909 13.4785 19.2463 13.5163 19.3131C13.554 19.3799 13.5739 19.4557 13.5741 19.5328V20.8852C13.5741 21.0412 13.492 21.186 13.3591 21.2649L12.2167 21.941C12.1517 21.9798 12.0778 22.0002 12.0026 22ZM11.2883 20.6312L12.0026 21.0542L12.7168 20.6312V19.7877L12.0026 19.3647L11.2883 19.7877V20.6312ZM17.7165 22C17.6413 22.0002 17.5674 21.9799 17.5024 21.941L16.36 21.2649C16.2947 21.2263 16.2405 21.1708 16.2028 21.104C16.1651 21.0372 16.1451 20.9615 16.145 20.8843V19.532C16.145 19.3759 16.2262 19.2312 16.3591 19.1523L17.5016 18.4761C17.5667 18.4372 17.6407 18.4167 17.7161 18.4167C17.7915 18.4167 17.8655 18.4372 17.9306 18.4761L19.0731 19.1523C19.1383 19.1909 19.1925 19.2463 19.2302 19.3131C19.2679 19.3799 19.2879 19.4557 19.288 19.5328V20.8852C19.288 21.0412 19.2059 21.186 19.0731 21.2649L17.9306 21.941C17.8656 21.9798 17.7917 22.0002 17.7165 22ZM17.0023 20.6312L17.7165 21.0542L18.4308 20.6312V19.7877L17.7165 19.3647L17.0023 19.7877V20.6312ZM5.13769 17.7176C5.0626 17.7177 4.98823 17.7026 4.91883 17.6733C4.84943 17.6439 4.78635 17.6008 4.73322 17.5465C4.68009 17.4922 4.63794 17.4276 4.60918 17.3566C4.58042 17.2855 4.56561 17.2093 4.56561 17.1324V15.0909C4.56561 15.0141 4.58039 14.938 4.6091 14.867C4.6378 14.796 4.67988 14.7315 4.73292 14.6772C4.78596 14.6228 4.84894 14.5797 4.91824 14.5503C4.98755 14.5209 5.06183 14.5058 5.13684 14.5058C5.21185 14.5058 5.28613 14.5209 5.35544 14.5503C5.42474 14.5797 5.48771 14.6228 5.54076 14.6772C5.5938 14.7315 5.63588 14.796 5.66458 14.867C5.69329 14.938 5.70807 15.0141 5.70807 15.0909V17.1324C5.70807 17.2876 5.64788 17.4365 5.54076 17.5462C5.43363 17.6559 5.28918 17.7176 5.13769 17.7176Z" fill="#101717"/>
</svg>
