<svg width="24" height="24" viewBox="0 0 24 24" fill="none" xmlns="http://www.w3.org/2000/svg">
<path d="M18.593 3.24334L14.3482 9.42969H18.7456L6.34897 20.6391L10.5621 11.9679H6.50063L11.7531 3.24334H18.593ZM18.5912 2.00092H11.7513C11.3084 2.00092 10.898 2.231 10.6719 2.60833L5.28079 11.563C5.05468 12.5081 5.72555 13.2103 6.49784 13.2103H8.56163L5.21193 20.1026C4.4415 21.6634 5.9256 22.604 7.1929 21.5576L19.5784 10.3601C19.8482 10.1227 20.0148 9.77112 19.999 9.38275C19.9738 8.70908 19.383 8.18819 18.7 8.18819H16.7163L19.61 3.97131C19.8166 3.66853 19.9013 3.29304 19.8082 2.93872C19.7392 2.67081 19.5819 2.43327 19.3611 2.26362C19.1404 2.09397 18.8688 2.00186 18.5893 2.00184L18.5912 2V2.00092Z" fill="#101717"/>
</svg>
