<svg width="24" height="24" viewBox="0 0 24 24" fill="none" xmlns="http://www.w3.org/2000/svg">
<path d="M9.28349 13.3508H4.67632C4.58742 13.3508 4.49939 13.3694 4.41728 13.4056C4.33516 13.4418 4.26056 13.4948 4.19774 13.5617C4.13493 13.6285 4.08513 13.7079 4.0512 13.7952C4.01727 13.8825 3.99987 13.9761 4 14.0706V14.1059C4 14.5026 4.30298 14.8246 4.67632 14.8246H9.28349C9.65683 14.8246 9.95981 14.5026 9.95981 14.1059V14.0706C9.95981 13.8799 9.88855 13.6971 9.76172 13.5623C9.63488 13.4275 9.46286 13.3508 9.28349 13.3508ZM19.3237 13.3508H12.6758C12.5869 13.3508 12.4989 13.3694 12.4168 13.4056C12.3347 13.4418 12.2601 13.4948 12.1973 13.5617C12.1344 13.6285 12.0846 13.7079 12.0507 13.7952C12.0168 13.8825 11.9994 13.9761 11.9995 14.0706V14.1059C11.9995 14.5026 12.3025 14.8246 12.6758 14.8246H19.3237C19.697 14.8246 20 14.5026 20 14.1059V14.0706C20 13.8799 19.9287 13.6971 19.8019 13.5623C19.6751 13.4275 19.5031 13.3508 19.3237 13.3508ZM7.24085 5H4.67632C4.49695 5 4.32492 5.07573 4.19809 5.21052C4.07126 5.34531 4 5.52812 4 5.71875V5.75406C4 6.15083 4.30298 6.47281 4.67632 6.47281H7.24085C7.6142 6.47281 7.91717 6.15083 7.91717 5.75406V5.71875C7.91717 5.52812 7.84592 5.34531 7.71908 5.21052C7.59225 5.07573 7.42022 5 7.24085 5ZM19.3237 5H10.6351C10.4559 5.00028 10.2842 5.07612 10.1576 5.21088C10.0309 5.34564 9.95981 5.5283 9.95981 5.71875V5.75406C9.95981 6.15083 10.2628 6.47281 10.6361 6.47281H19.3247C19.697 6.47281 20 6.15083 20 5.75406V5.71875C20 5.52812 19.9287 5.34531 19.8019 5.21052C19.6751 5.07573 19.5031 5 19.3237 5ZM15.2413 9.24809H4.67632C4.49695 9.24809 4.32492 9.32381 4.19809 9.45861C4.07126 9.5934 4 9.77621 4 9.96684V10.0011C4 10.3989 4.30298 10.7199 4.67632 10.7199H15.2413C15.6147 10.7199 15.9177 10.3979 15.9177 10.0011V9.96684C15.9177 9.77621 15.8464 9.5934 15.7196 9.45861C15.5927 9.32381 15.4207 9.24809 15.2413 9.24809ZM19.3237 9.24809H18.6356C18.4563 9.24809 18.2842 9.32381 18.1574 9.45861C18.0306 9.5934 17.9593 9.77621 17.9593 9.96684V10.0011C17.9593 10.3989 18.2623 10.7199 18.6356 10.7199H19.3237C19.697 10.7199 20 10.3979 20 10.0011V9.96684C20 9.77621 19.9287 9.5934 19.8019 9.45861C19.6751 9.32381 19.5031 9.24809 19.3237 9.24809ZM16.594 19H19.3237C19.697 19 20 18.678 20 18.2813V18.2459C20 18.0553 19.9287 17.8725 19.8019 17.7377C19.6751 17.6029 19.5031 17.5272 19.3237 17.5272H16.594C16.4146 17.5272 16.2426 17.6029 16.1157 17.7377C15.9889 17.8725 15.9177 18.0553 15.9177 18.2459V18.2813C15.9177 18.678 16.2206 19 16.594 19ZM4.67632 19H13.3649C13.7372 19 14.0402 18.678 14.0402 18.2813V18.2459C14.0402 18.0553 13.9689 17.8725 13.8421 17.7377C13.7153 17.6029 13.5432 17.5272 13.3639 17.5272H4.67534C4.49614 17.5275 4.32437 17.6033 4.19774 17.7381C4.07112 17.8728 4 18.0555 4 18.2459V18.2813C4 18.678 4.30298 19 4.67632 19Z" fill="#101717"/>
</svg>
