<svg width="24" height="24" viewBox="0 0 24 24" fill="none" xmlns="http://www.w3.org/2000/svg">
<path d="M21.469 4.79389L6.76559 3.32691C6.68334 3.31888 6.60031 3.32807 6.52183 3.35389C6.44335 3.3797 6.37115 3.42158 6.30985 3.47682C6.24855 3.53206 6.19951 3.59946 6.16587 3.6747C6.13223 3.74993 6.11473 3.83133 6.11449 3.9137V4.78489C6.11452 4.82952 6.10001 4.87295 6.07313 4.90866C6.04627 4.94437 6.00849 4.97041 5.96549 4.98289L4.62718 5.37528C4.59625 5.38436 4.56362 5.38614 4.53188 5.38048C4.50014 5.37482 4.47016 5.36187 4.44431 5.34266C4.41846 5.32345 4.39745 5.2985 4.38296 5.2698C4.36846 5.24109 4.36086 5.20942 4.36078 5.17728V3.6149C4.36078 3.30711 4.13501 3.03261 3.82617 3.00291C3.74386 2.99473 3.66074 3.00384 3.58218 3.02967C3.50363 3.05549 3.43138 3.09745 3.37011 3.15284C3.30883 3.20822 3.2599 3.2758 3.22646 3.3512C3.19302 3.42661 3.17582 3.50816 3.17598 3.5906V19.6131C3.17598 19.6679 3.15422 19.7204 3.11546 19.7592C3.07671 19.798 3.02411 19.8199 2.96918 19.8201H2.61699C2.30725 19.8201 2.03272 20.0451 2.00292 20.352C1.99472 20.434 2.00384 20.5167 2.0297 20.595C2.05556 20.6732 2.09758 20.7451 2.15305 20.8062C2.20853 20.8672 2.27622 20.916 2.35178 20.9494C2.42733 20.9828 2.50906 21 2.59171 21H4.91886C5.2286 21 5.50403 20.775 5.53293 20.4672C5.54113 20.3852 5.53201 20.3025 5.50615 20.2243C5.48029 20.146 5.43827 20.0741 5.3828 20.013C5.32732 19.952 5.25963 19.9032 5.18408 19.8698C5.10852 19.8364 5.02679 19.8192 4.94414 19.8192H4.56667C4.51174 19.8192 4.45905 19.7975 4.42012 19.7589C4.3812 19.7203 4.35921 19.6679 4.35897 19.6131V10.2289C4.35902 10.1967 4.36662 10.1649 4.38117 10.1361C4.39572 10.1073 4.41681 10.0823 4.44277 10.0631C4.46873 10.0439 4.49884 10.0309 4.5307 10.0253C4.56256 10.0198 4.59529 10.0217 4.62627 10.0309L5.96459 10.4233C6.05309 10.4503 6.11269 10.5304 6.11269 10.6213V11.5024C6.11317 11.6586 6.17564 11.8083 6.28646 11.9187C6.39728 12.0292 6.54746 12.0914 6.70418 12.0919C6.72405 12.0919 6.74482 12.0919 6.76379 12.0892L21.4672 10.6222C21.6131 10.6075 21.7484 10.5394 21.8469 10.431C21.9453 10.3226 21.9998 10.1816 22 10.0354V5.37888C21.9998 5.23269 21.9453 5.09175 21.8469 4.98335C21.7484 4.87495 21.6131 4.8068 21.4672 4.79209L21.469 4.79389ZM14.9002 5.32488L17.3321 5.56698V9.85003L14.9002 10.0921V5.32488ZM13.8048 10.2028L11.372 10.444V4.97209L13.8048 5.21418V10.2019V10.2028ZM4.36078 8.72324V6.68387L6.11359 6.17087V9.23804L4.36168 8.72504L4.36078 8.72324ZM7.29839 4.56709L10.2766 4.86409V10.552L7.29839 10.849V4.56709ZM20.817 9.50263L18.4275 9.73933V5.67588L20.817 5.91348V9.50263Z" fill="#101717"/>
</svg>
