<svg width="24" height="24" viewBox="0 0 24 24" fill="none" xmlns="http://www.w3.org/2000/svg">
<path d="M9.97868 14.2706V16.0161C11.5716 16.6703 11.1193 19.0781 9.37292 19.0888C7.62744 19.0781 7.17514 16.6712 8.76717 16.0161V14.2706C8.76717 14.1099 8.83099 13.9559 8.94459 13.8423C9.05819 13.7287 9.21227 13.6648 9.37292 13.6648C9.53358 13.6648 9.68766 13.7287 9.80126 13.8423C9.91486 13.9559 9.97868 14.1099 9.97868 14.2706Z" fill="#101717"/>
<path fill-rule="evenodd" clip-rule="evenodd" d="M19.2318 10.7061L19.7146 10.9843C20.349 11.355 19.7873 12.3179 19.1546 11.9536L18.6709 11.6753L18.7489 11.9616C18.9347 12.6688 17.8632 12.9631 17.6658 12.2524L17.2987 10.8847L15.4258 9.80333V11.9661L16.4264 12.9685C16.9433 13.4899 16.1554 14.2779 15.634 13.761L15.4258 13.5519C15.4262 13.595 15.4273 13.6395 15.4284 13.6846C15.439 14.1279 15.4513 14.6399 14.8649 14.67C14.2795 14.6383 14.2917 14.1293 14.3023 13.6854C14.3034 13.64 14.3045 13.5953 14.3049 13.5519L14.0958 13.761C13.5762 14.2779 12.7874 13.4899 13.3034 12.9685L14.3049 11.9679V9.80513L12.3432 10.9377V14.329C15.2652 16.9513 13.3061 21.9777 9.37271 21.9302C5.43932 21.9777 3.48115 16.9522 6.40225 14.329V5.97046C6.40296 5.18286 6.71615 4.42773 7.27306 3.87081C7.82998 3.3139 8.58511 3.00071 9.37271 3C11.4709 3.06461 12.537 4.75356 12.3432 6.73326L14.3049 7.86581V5.70303L13.3034 4.7024C12.7865 4.1828 13.5753 3.39307 14.0958 3.90998L14.3049 4.11908C14.3044 4.07686 14.3033 4.0334 14.3022 3.98924C14.291 3.54533 14.278 3.0311 14.8649 3.0009C15.4509 3.03268 15.4388 3.54263 15.4283 3.98691C15.4273 4.03183 15.4262 4.07607 15.4258 4.11908L15.634 3.90998C16.1536 3.39307 16.9433 4.181 16.4264 4.7024L15.4258 5.70303V7.86581L17.2987 6.78442L17.6658 5.41675C17.8578 4.70958 18.9347 4.99765 18.748 5.70662L18.6718 5.9911C18.704 5.97179 18.7369 5.95156 18.7704 5.93097C19.1494 5.69811 19.6017 5.42024 19.9192 5.91661C20.19 6.43938 19.7253 6.69178 19.3349 6.90382C19.2997 6.92292 19.2651 6.9417 19.2318 6.96031L19.5162 7.03569C20.1435 7.19633 20.0098 8.1449 19.3726 8.13683C19.3776 8.16422 18.673 7.97135 18.2233 7.84824C18.0247 7.79389 17.8758 7.75313 17.8596 7.75094L15.9858 8.83233L17.8596 9.91372L19.2273 9.54757C19.9344 9.36091 20.2234 10.4378 19.5162 10.6299L19.2318 10.7061ZM6.20302 17.5463C6.33584 21.7354 12.4114 21.7327 12.5433 17.5463H12.5415C12.5423 17.0703 12.4356 16.6003 12.2292 16.1714C12.0228 15.7425 11.7222 15.3657 11.3497 15.0694C11.2703 15.0046 11.2086 14.9207 11.1703 14.8256C11.132 14.7305 11.1184 14.6273 11.1308 14.5256V5.96597C11.0572 3.63807 7.68556 3.64524 7.61287 5.96597V14.6027C7.6131 14.6947 7.59237 14.7855 7.55225 14.8682C7.51213 14.9509 7.45367 15.0234 7.38133 15.0802C6.63378 15.6832 6.20302 16.5824 6.20302 17.5463ZM12.345 8.02106V9.63911L13.7449 8.82963L12.345 8.02106Z" fill="#101717"/>
</svg>
