<svg width="24" height="24" viewBox="0 0 24 24" fill="none" xmlns="http://www.w3.org/2000/svg">
<path d="M20.1973 16.149L18.249 14.9916L20.1136 13.8842C20.7999 13.4725 20.1955 12.3974 19.5065 12.8017L17.0347 14.27L13.2138 12.0014L17.0347 9.73188C17.1831 9.79016 19.7097 11.4093 19.8096 11.2844C20.4068 11.3075 20.6524 10.4128 20.1136 10.1186L18.249 9.01115L20.1973 7.85465C20.3365 7.77184 20.438 7.63554 20.4795 7.47574C20.521 7.31593 20.499 7.14572 20.4185 7.00254C20.338 6.85937 20.2055 6.75495 20.0501 6.71227C19.8948 6.66958 19.7293 6.69213 19.5901 6.77495L17.6437 7.93052V5.71652C17.6401 4.89957 16.4321 4.89957 16.4294 5.71652V8.65125L12.6084 10.9208V6.38081L15.0793 4.91252C15.7656 4.50173 15.1611 3.4248 14.4721 3.83004L12.6084 4.9375V2.62451C12.6084 2.45888 12.5445 2.30003 12.4306 2.18291C12.3167 2.0658 12.1623 2 12.0013 2C11.8403 2 11.6858 2.0658 11.572 2.18291C11.4581 2.30003 11.3941 2.45888 11.3941 2.62451V4.9375L9.52955 3.83004C8.83965 3.4248 8.23611 4.49988 8.9224 4.91252L11.3932 6.38081V10.9198L7.5723 8.65032V5.71652C7.5696 4.89957 6.36071 4.89957 6.35801 5.71652V7.93052L4.41066 6.77402C4.27215 6.70128 4.11177 6.68598 3.96261 6.73129C3.81346 6.77661 3.68689 6.87907 3.60902 7.01755C3.53115 7.15603 3.50791 7.31996 3.5441 7.47555C3.58029 7.63113 3.67315 7.76649 3.80352 7.85373L5.75087 9.01022L3.88627 10.1177C3.34929 10.4119 3.59394 11.3075 4.19029 11.2834C4.28294 11.413 6.82574 9.78184 6.96516 9.73095L10.7861 11.9995L6.96516 14.2681L4.49341 12.8008C3.80442 12.3964 3.19998 13.4706 3.88627 13.8832L5.75087 14.9898L3.80352 16.1463C3.66409 16.2291 3.56234 16.3655 3.52068 16.5255C3.47902 16.6854 3.50084 16.8559 3.58135 16.9993C3.66186 17.1427 3.79447 17.2474 3.94999 17.2902C4.10552 17.3331 4.27123 17.3106 4.41066 17.2278L6.35801 16.0713V18.2844C6.36071 19.1014 7.5696 19.1014 7.5723 18.2844V15.3488L11.3932 13.0802V17.6192L8.9224 19.0875C8.23611 19.4983 8.84055 20.5743 9.52955 20.17L11.3932 19.0625V21.3755C11.3932 21.5411 11.4572 21.7 11.5711 21.8171C11.6849 21.9342 11.8394 22 12.0004 22C12.1614 22 12.3158 21.9342 12.4297 21.8171C12.5436 21.7 12.6075 21.5411 12.6075 21.3755V19.0625C12.8072 19.1467 14.5819 20.3291 14.7753 20.2542C15.3725 20.2773 15.6181 19.3826 15.0793 19.0884L12.6084 17.621V13.082L16.4294 15.3506V18.2863C16.4321 19.1032 17.6401 19.1032 17.6437 18.2863V16.0723C17.8397 16.1537 19.7079 17.3916 19.8932 17.312C20.4896 17.3352 20.736 16.4405 20.1973 16.1463V16.149Z" fill="#101717"/>
</svg>
