<svg width="24" height="24" viewBox="0 0 24 24" fill="none" xmlns="http://www.w3.org/2000/svg">
<path d="M16.6773 20.4998C14.2558 20.5171 14.2407 19.5492 11.9957 19.5271C9.74973 19.5492 9.73361 20.5171 7.31315 20.4998C4.89268 20.5171 4.87656 19.5492 2.63061 19.5271C1.79597 19.5136 1.78364 18.2452 2.63061 18.2308C5.05297 18.2126 5.0653 19.1804 7.31315 19.2025C9.55909 19.1804 9.57521 18.2135 11.9947 18.2308C14.4152 18.2126 14.4323 19.1804 16.6773 19.2025C17.7206 19.2025 18.2109 19.0009 18.7762 18.7656C19.3794 18.5141 20.0633 18.2308 21.3598 18.2308C21.5296 18.2308 21.6924 18.2991 21.8125 18.4206C21.9326 18.5422 22 18.707 22 18.8789C22 19.0508 21.9326 19.2157 21.8125 19.3372C21.6924 19.4588 21.5296 19.5271 21.3598 19.5271C19.1138 19.5492 19.0977 20.5171 16.6773 20.4998ZM21.3598 14.9651C19.295 14.9488 19.0361 15.6488 17.3858 15.9004L18.4698 11.8051C18.4794 11.7691 18.4988 11.7367 18.5259 11.7116C18.5531 11.6865 18.5867 11.6698 18.6229 11.6635C18.6591 11.6571 18.6963 11.6614 18.7302 11.6757C18.7641 11.6901 18.7932 11.714 18.8141 11.7446L19.4591 12.6894C19.9362 13.3846 20.988 12.652 20.5128 11.952L14.9378 3.77963C14.8516 3.65311 14.7237 3.56179 14.577 3.52203C14.4303 3.48226 14.2744 3.49666 14.1373 3.56262L5.29767 7.80483C4.52468 8.18316 5.03211 9.34021 5.82122 8.98781L6.75071 8.54035C6.78379 8.52438 6.8207 8.51834 6.85706 8.52295C6.89342 8.52757 6.92772 8.54265 6.95587 8.5664C6.98403 8.59016 7.00486 8.62158 7.0159 8.65696C7.02695 8.69234 7.02774 8.73019 7.01818 8.766L5.23508 15.5048C4.61289 15.2474 3.94328 14.9632 2.63061 14.9613C1.79597 14.9747 1.78364 16.2432 2.63061 16.2576C3.67392 16.2576 4.16237 16.4611 4.72955 16.6954C6.07636 17.3993 8.55847 17.3964 9.89864 16.6954C10.463 16.4611 10.9514 16.2585 11.9966 16.2585C14.2445 16.2806 14.2587 17.2475 16.6792 17.2303C19.0996 17.2485 19.1157 16.2806 21.3617 16.2585C22.1954 16.247 22.2077 14.9766 21.3617 14.9622L21.3598 14.9651ZM10.444 15.138L11.3545 11.6966C11.4143 11.5583 11.4721 11.5256 11.6172 11.5429L13.1765 11.9654C13.2312 11.9812 13.2776 12.0178 13.3059 12.0677C13.3343 12.1175 13.3423 12.1766 13.3283 12.2324L12.5979 14.9891C11.9217 14.9248 10.9467 14.9958 10.4421 15.138H10.444ZM13.7702 15.2004L14.4749 12.5406C14.5706 12.1776 14.5202 11.791 14.3348 11.4656C14.1493 11.1401 13.844 10.9024 13.4857 10.8045L11.9264 10.382C11.1914 10.1823 10.4089 10.6413 10.2116 11.3835L9.08866 15.6296C8.5727 15.8898 7.23917 16.0214 6.46333 15.8792L8.64478 7.63296L14.1933 4.97029L17.6238 9.99795L16.0589 15.908C15.063 15.812 14.6362 15.4596 13.7702 15.2004Z" fill="#101717"/>
</svg>
