<svg width="24" height="24" viewBox="0 0 24 24" fill="none" xmlns="http://www.w3.org/2000/svg">
<path d="M17.3546 6.08803H16.6492V5.47177C16.6492 5.30003 16.581 5.13532 16.4595 5.01388C16.3381 4.89244 16.1734 4.82422 16.0016 4.82422C15.8299 4.82422 15.6652 4.89244 15.5438 5.01388C15.4223 5.13532 15.3541 5.30003 15.3541 5.47177V6.08803H14.6487C14.477 6.08803 14.3123 6.15625 14.1908 6.27769C14.0694 6.39913 14.0012 6.56383 14.0012 6.73557C14.0012 6.90731 14.0694 7.07202 14.1908 7.19346C14.3123 7.31489 14.477 7.38312 14.6487 7.38312H15.3541V7.99938C15.3541 8.17112 15.4223 8.33582 15.5438 8.45726C15.6652 8.5787 15.8299 8.64692 16.0016 8.64692C16.1734 8.64692 16.3381 8.5787 16.4595 8.45726C16.581 8.33582 16.6492 8.17112 16.6492 7.99938V7.38312H17.3546C17.5263 7.38312 17.691 7.31489 17.8125 7.19346C17.9339 7.07202 18.0021 6.90731 18.0021 6.73557C18.0021 6.56383 17.9339 6.39913 17.8125 6.27769C17.691 6.15625 17.5263 6.08803 17.3546 6.08803ZM10.2638 5.86143C10.2638 5.6917 10.1964 5.52893 10.0764 5.40891C9.95634 5.28889 9.79356 5.22147 9.62384 5.22147C9.45411 5.22147 9.29133 5.28889 9.17131 5.40891C9.0513 5.52893 8.98387 5.6917 8.98387 5.86143V15.7586C8.62196 15.9064 8.32268 16.1754 8.13725 16.5195C7.95182 16.8637 7.89177 17.2616 7.96738 17.6452C8.04299 18.0287 8.24957 18.3741 8.55174 18.6221C8.85391 18.8701 9.2329 19.0054 9.62384 19.0048C10.0136 19.0032 10.3907 18.8668 10.6913 18.6186C10.9918 18.3705 11.1972 18.026 11.2726 17.6436C11.348 17.2613 11.2887 16.8646 11.1048 16.521C10.9209 16.1773 10.6238 15.908 10.2638 15.7586V5.86143Z" fill="#101717"/>
<path d="M12.762 13.9706V5.13818C12.7612 4.30612 12.4304 3.50834 11.842 2.91998C11.2536 2.33162 10.4559 2.00075 9.62381 2C8.79182 2.001 7.99419 2.33196 7.40589 2.92026C6.81758 3.50857 6.48663 4.30619 6.48562 5.13818V13.9697C3.40527 16.794 5.43798 22.0066 9.62381 22C13.8115 22.0066 15.8433 16.7931 12.762 13.9706ZM9.62381 20.721C6.48468 20.7182 5.0796 16.7333 7.51904 14.767C7.59564 14.7071 7.65758 14.6306 7.70013 14.5432C7.74268 14.4558 7.76473 14.3598 7.7646 14.2626V5.13818C7.7646 4.11424 8.59797 3.27992 9.62286 3.27992C10.6468 3.27992 11.4802 4.11424 11.4802 5.13818V14.1811C11.4669 14.2914 11.4825 14.4033 11.5253 14.5058C11.5682 14.6083 11.6369 14.698 11.7248 14.7661C14.168 16.7343 12.7582 20.7191 9.62191 20.7201L9.62381 20.721Z" fill="#101717"/>
</svg>
