<svg width="24" height="24" viewBox="0 0 24 24" fill="none" xmlns="http://www.w3.org/2000/svg">
<path d="M18.0281 7.40511H15.6863C15.5088 7.40511 15.3385 7.33459 15.213 7.20906C15.0875 7.08353 15.0169 6.91328 15.0169 6.73576C15.0169 6.55824 15.0875 6.38798 15.213 6.26245C15.3385 6.13693 15.5088 6.06641 15.6863 6.06641H18.0281C18.2056 6.06641 18.3759 6.13693 18.5014 6.26245C18.6269 6.38798 18.6974 6.55824 18.6974 6.73576C18.6974 6.91328 18.6269 7.08353 18.5014 7.20906C18.3759 7.33459 18.2056 7.40511 18.0281 7.40511ZM11.2625 15.7569V11.352C11.2625 11.268 11.246 11.1848 11.2138 11.1071C11.1816 11.0295 11.1345 10.9589 11.0751 10.8995C11.0156 10.8401 10.9451 10.7929 10.8674 10.7608C10.7898 10.7286 10.7066 10.7121 10.6225 10.7121C10.5385 10.7121 10.4553 10.7286 10.3776 10.7608C10.3 10.7929 10.2294 10.8401 10.17 10.8995C10.1106 10.9589 10.0635 11.0295 10.0313 11.1071C9.99914 11.1848 9.98258 11.268 9.98258 11.352V15.7578C8.29782 16.4708 8.76902 18.9756 10.6225 19.0041C12.4789 18.9756 12.9482 16.4698 11.2625 15.7569Z" fill="#101717"/>
<path d="M13.7616 13.9706V5.13818C13.7608 4.30612 13.4299 3.50834 12.8416 2.91998C12.2532 2.33162 11.4555 2.00075 10.6234 2C9.7914 2.001 8.99377 2.33196 8.40546 2.92026C7.81716 3.50857 7.48621 4.30619 7.4852 5.13818V13.9697C4.4058 16.794 6.43756 22.0066 10.6234 22C14.8111 22.0066 16.8429 16.7931 13.7616 13.9706ZM10.6234 20.721C7.48425 20.7182 6.07918 16.7333 8.51957 14.767C8.596 14.707 8.65775 14.6305 8.70013 14.5431C8.74252 14.4557 8.76442 14.3598 8.76418 14.2626V5.13818C8.76418 4.11424 9.5985 3.27992 10.6224 3.27992C11.6464 3.27992 12.4807 4.11424 12.4807 5.13818V14.1811C12.4673 14.2913 12.4827 14.4032 12.5254 14.5057C12.5681 14.6082 12.6367 14.6979 12.7244 14.7661C15.1685 16.7333 13.7578 20.7201 10.6224 20.7201L10.6234 20.721Z" fill="#101717"/>
</svg>
