<svg width="20" height="18" viewBox="0 0 20 18" fill="none" xmlns="http://www.w3.org/2000/svg">
<path fill-rule="evenodd" clip-rule="evenodd" d="M5.85047 1.311L16.0915 5.91943C16.8251 6.24952 17.4377 6.52519 17.8927 6.78128C18.3356 7.03051 18.8241 7.3622 19.086 7.89191C19.4312 8.59024 19.4312 9.40962 19.086 10.108C18.8241 10.6377 18.3356 10.9694 17.8927 11.2186C17.4377 11.4747 16.8251 11.7503 16.0915 12.0804L5.86801 16.681C5.11559 17.0196 4.48899 17.3016 3.98576 17.4759C3.4984 17.6448 2.91575 17.7942 2.33889 17.6332C1.58148 17.4218 0.967666 16.8664 0.68187 16.1338C0.464201 15.5759 0.554806 14.9813 0.674255 14.4795C0.797587 13.9614 1.01572 13.3099 1.27766 12.5275L2.29796 9.47973C2.40425 9.16222 2.41146 9.1272 2.41484 9.10133C2.41809 9.0765 2.41946 9.05148 2.41896 9.02649C2.4186 9.00861 2.41728 8.99075 2.41501 8.97298C2.41169 8.94711 2.40458 8.91207 2.2991 8.59428L1.25754 5.45622C0.998439 4.67564 0.782587 4.02536 0.660917 3.50823C0.543007 3.00709 0.454277 2.41357 0.672587 1.85694C0.959371 1.12573 1.57313 0.5718 2.32982 0.361251C2.90585 0.200973 3.48719 0.349898 3.97366 0.518409C4.47564 0.692295 5.10046 0.97348 5.85047 1.311ZM4.23299 9.99998H9.5002C10.0525 9.99998 10.5002 9.55227 10.5002 8.99998C10.5002 8.44769 10.0525 7.99998 9.5002 7.99998H4.20916C4.20519 7.98807 4.20123 7.97616 4.19727 7.96426L3.17113 4.87263C2.89266 4.03363 2.70636 3.46925 2.60776 3.05017C2.5277 2.7099 2.539 2.58927 2.53978 2.57427C2.59736 2.43871 2.71182 2.3354 2.85255 2.29198C2.86756 2.29274 2.98871 2.29382 3.31902 2.40824C3.72583 2.54916 4.26821 2.79216 5.07436 3.15493L15.2262 7.72325C16.0159 8.07859 16.5449 8.31772 16.9118 8.52421C17.2091 8.6915 17.2884 8.77938 17.2987 8.79011C17.3603 8.9232 17.3603 9.07667 17.2988 9.20976C17.2884 9.22049 17.2091 9.30837 16.9118 9.47566C16.5449 9.68215 16.0159 9.92129 15.2262 10.2766L5.09185 14.8371C4.28332 15.2009 3.73912 15.4448 3.33102 15.5862C2.9996 15.701 2.87805 15.7021 2.86299 15.7029C2.72222 15.6593 2.6078 15.5557 2.55041 15.42C2.54968 15.4049 2.53866 15.2839 2.61988 14.9427C2.7199 14.5225 2.90829 13.9567 3.18975 13.116L4.19451 10.1146C4.20044 10.0969 4.2064 10.0792 4.21236 10.0615C4.21924 10.041 4.22613 10.0205 4.23299 9.99998Z" fill="#101717"/>
</svg>
