<svg width="16" height="16" viewBox="0 0 14 14" fill="none" xmlns="http://www.w3.org/2000/svg">
<path fill-rule="evenodd" clip-rule="evenodd" d="M3.13282 0.333252H10.8668C10.9552 0.333252 11.0402 0.333252 11.12 0.3335C11.6586 0.335173 12.1541 0.336876 12.5748 0.551239C12.9511 0.742986 13.2571 1.04895 13.4488 1.42527C13.6632 1.84598 13.6649 2.34152 13.6666 2.88007C13.6668 2.95963 13.6668 3.04381 13.6668 3.13191V6.86659C13.6668 6.89531 13.6669 6.92418 13.6669 6.95286C13.6669 7.01014 13.667 7.06671 13.6668 7.12005C13.6651 7.65892 13.6631 8.15403 13.4488 8.57457C13.2571 8.95089 12.9511 9.25685 12.5748 9.4486C12.1541 9.66296 11.6586 9.66466 11.12 9.66634C11.0403 9.66659 10.9559 9.66659 10.8675 9.66659H3.13282C3.04447 9.66659 2.96008 9.66659 2.88031 9.66634C2.34177 9.66466 1.84623 9.66296 1.42552 9.4486C1.04919 9.25685 0.74323 8.95089 0.551483 8.57457C0.33712 8.15386 0.335417 7.65832 0.333744 7.11977C0.333496 7.04 0.333496 6.95561 0.333496 6.86726V3.13258C0.333496 3.04423 0.333496 2.95983 0.333744 2.88007C0.335417 2.34152 0.33712 1.84598 0.551483 1.42527C0.74323 1.04895 1.04919 0.742986 1.42552 0.551239C1.84623 0.336876 2.34177 0.335173 2.88031 0.3335C2.96008 0.333252 3.04447 0.333252 3.13282 0.333252ZM3.97245 1.66659C3.99067 1.775 4.00016 1.88637 4.00016 1.99992C4.00016 3.10449 3.10473 3.99992 2.00016 3.99992C1.88661 3.99992 1.77525 3.99043 1.66683 3.9722V6.02763C1.77525 6.00941 1.88661 5.99992 2.00016 5.99992C3.10473 5.99992 4.00016 6.89535 4.00016 7.99992C4.00016 8.11347 3.99067 8.22484 3.97245 8.33325H10.0279C10.0097 8.22484 10.0002 8.11347 10.0002 7.99992C10.0002 6.89535 10.8956 5.99992 12.0002 5.99992C12.1137 5.99992 12.2251 6.00941 12.3335 6.02763V3.9722C12.2251 3.99043 12.1137 3.99992 12.0002 3.99992C10.8956 3.99992 10.0002 3.10449 10.0002 1.99992C10.0002 1.88637 10.0097 1.775 10.0279 1.66659H3.97245ZM11.4202 1.67065C11.3648 1.76786 11.3335 1.88008 11.3335 1.99992C11.3335 2.36811 11.632 2.66659 12.0002 2.66659C12.12 2.66659 12.2322 2.63527 12.3294 2.57989C12.3201 2.20468 12.2947 2.09714 12.2608 2.03059C12.1969 1.90515 12.0949 1.80316 11.9695 1.73925C11.9029 1.70534 11.7954 1.67999 11.4202 1.67065ZM12.3297 7.42007C12.2324 7.36462 12.1201 7.33325 12.0002 7.33325C11.632 7.33325 11.3335 7.63173 11.3335 7.99992C11.3335 8.11976 11.3648 8.23198 11.4202 8.32919C11.7954 8.31985 11.9029 8.2945 11.9695 8.26059C12.0949 8.19667 12.1969 8.09469 12.2608 7.96925C12.2948 7.90263 12.3203 7.79488 12.3297 7.42007ZM2.58014 8.32919C2.63551 8.23198 2.66683 8.11976 2.66683 7.99992C2.66683 7.63173 2.36835 7.33325 2.00016 7.33325C1.88032 7.33325 1.7681 7.36457 1.67089 7.41994C1.68023 7.79515 1.70558 7.9027 1.73949 7.96925C1.80341 8.09469 1.90539 8.19667 2.03084 8.26059C2.09739 8.2945 2.20493 8.31985 2.58014 8.32919ZM1.67089 2.57989C1.7681 2.63527 1.88032 2.66659 2.00016 2.66659C2.36835 2.66659 2.66683 2.36811 2.66683 1.99992C2.66683 1.88008 2.63551 1.76786 2.58014 1.67065C2.20493 1.67999 2.09739 1.70534 2.03084 1.73925C1.90539 1.80316 1.80341 1.90515 1.73949 2.03059C1.70558 2.09714 1.68023 2.20468 1.67089 2.57989ZM7.00016 4.33325C6.63197 4.33325 6.3335 4.63173 6.3335 4.99992C6.3335 5.36811 6.63197 5.66659 7.00016 5.66659C7.36835 5.66659 7.66683 5.36811 7.66683 4.99992C7.66683 4.63173 7.36835 4.33325 7.00016 4.33325ZM5.00016 4.99992C5.00016 3.89535 5.89559 2.99992 7.00016 2.99992C8.10473 2.99992 9.00016 3.89535 9.00016 4.99992C9.00016 6.10449 8.10473 6.99992 7.00016 6.99992C5.89559 6.99992 5.00016 6.10449 5.00016 4.99992ZM0.333496 10.9999C0.333496 10.6317 0.631973 10.3333 1.00016 10.3333H13.0002C13.3684 10.3333 13.6668 10.6317 13.6668 10.9999C13.6668 11.3681 13.3684 11.6666 13.0002 11.6666H1.00016C0.631973 11.6666 0.333496 11.3681 0.333496 10.9999ZM0.333496 12.9999C0.333496 12.6317 0.631973 12.3333 1.00016 12.3333H13.0002C13.3684 12.3333 13.6668 12.6317 13.6668 12.9999C13.6668 13.3681 13.3684 13.6666 13.0002 13.6666H1.00016C0.631973 13.6666 0.333496 13.3681 0.333496 12.9999Z" fill="#101717"/>
</svg>
