<svg width="43" height="66" viewBox="0 0 43 66" fill="none" xmlns="http://www.w3.org/2000/svg">
<path d="M19.6411 61C19.6411 62.1046 20.5365 63 21.6411 63C22.7457 63 23.6411 62.1046 23.6411 61L19.6411 61ZM19.6411 38L19.6411 61L23.6411 61L23.6411 38L19.6411 38Z" fill="#101717"/>
<ellipse cx="21.6409" cy="20" rx="21.0256" ry="20" fill="#122C1F"/>
<path d="M29.051 20C29.051 23.8195 25.781 27 21.6407 27C17.5004 27 14.2305 23.8195 14.2305 20C14.2305 16.1805 17.5004 13 21.6407 13C25.781 13 29.051 16.1805 29.051 20Z" fill="white" stroke="white" stroke-width="2"/>
<ellipse cx="21.6408" cy="63" rx="12.6154" ry="3" fill="url(#paint0_radial_2365_13405)" fill-opacity="0.3"/>
<defs>
<radialGradient id="paint0_radial_2365_13405" cx="0" cy="0" r="1" gradientUnits="userSpaceOnUse" gradientTransform="translate(21.6408 63) scale(12.6154 3)">
<stop stop-color="#101717"/>
<stop offset="1" stop-color="#101717" stop-opacity="0"/>
</radialGradient>
</defs>
</svg>
