<svg width="22" height="20" viewBox="0 0 22 20" fill="none" xmlns="http://www.w3.org/2000/svg">
<path fill-rule="evenodd" clip-rule="evenodd" d="M1.29289 0.292893C1.68342 -0.0976311 2.31658 -0.0976311 2.70711 0.292893L20.7071 18.2929C21.0976 18.6834 21.0976 19.3166 20.7071 19.7071C20.3166 20.0976 19.6834 20.0976 19.2929 19.7071L16.2528 16.667C14.6914 17.5171 12.901 18 11.0002 18C6.07329 18 1.90535 14.7615 0.503957 10.2996C0.442691 10.1045 0.442691 9.89538 0.50396 9.70031C1.15664 7.6223 2.4081 5.8117 4.05511 4.46932L1.29289 1.70711C0.902369 1.31658 0.902369 0.683417 1.29289 0.292893ZM5.47827 5.89249C4.13145 6.9405 3.0909 8.36224 2.51203 9.99998C3.74775 13.4966 7.08286 16 11.0002 16C12.345 16 13.6193 15.7056 14.7638 15.178L13.0318 13.446C12.4364 13.7977 11.7414 14 11 14C8.79086 14 7 12.2091 7 10C7 9.25869 7.20228 8.56365 7.55396 7.96818L5.47827 5.89249ZM9.06758 9.48179C9.02347 9.64697 9 9.82063 9 10C9 11.1046 9.89543 12 11 12C11.1794 12 11.353 11.9765 11.5182 11.9324L9.06758 9.48179ZM11.0002 4C10.6957 4 10.395 4.01509 10.0988 4.0445C9.54924 4.09908 9.05947 3.6978 9.0049 3.14821C8.95032 2.59863 9.3516 2.10887 9.90118 2.05429C10.2629 2.01836 10.6296 2 11.0002 2C15.9271 2 20.0951 5.23846 21.4965 9.70039C21.5577 9.89546 21.5577 10.1046 21.4965 10.2997C21.1873 11.2838 20.7439 12.208 20.1879 13.0507C19.8837 13.5117 19.2635 13.6388 18.8025 13.3347C18.3415 13.0305 18.2143 12.4103 18.5185 11.9493C18.9165 11.346 19.2437 10.6923 19.4884 10C18.2527 6.50345 14.9175 4 11.0002 4Z" fill="#101717"/>
</svg>
