<svg width="14" height="14" viewBox="0 0 14 14" fill="none" xmlns="http://www.w3.org/2000/svg">
<path fill-rule="evenodd" clip-rule="evenodd" d="M6.55475 0.770837C6.83478 0.631889 7.16368 0.631889 7.44371 0.770837C7.69075 0.893418 7.8196 1.10882 7.88147 1.2197C7.94838 1.33962 8.01691 1.49343 8.0854 1.64715C8.08869 1.65454 8.09198 1.66192 8.09527 1.6693L9.29332 4.35702L12.2438 4.66843C12.4112 4.68606 12.5787 4.7037 12.7134 4.73028C12.8379 4.75486 13.0826 4.81084 13.2755 5.00791C13.4942 5.2313 13.5959 5.5441 13.5502 5.85336C13.51 6.1262 13.345 6.3153 13.2586 6.4084C13.1653 6.50909 13.0402 6.62179 12.9151 6.73442L10.7111 8.72064L11.3267 11.623C11.3617 11.7876 11.3966 11.9523 11.413 12.0886C11.4281 12.2147 11.4505 12.4647 11.3227 12.7091C11.1778 12.9861 10.9117 13.1794 10.6035 13.2316C10.3316 13.2776 10.1007 13.1791 9.98551 13.1258C9.8609 13.0681 9.71506 12.9839 9.56932 12.8999L6.99923 11.4175L4.42913 12.8999C4.28339 12.984 4.13755 13.0681 4.01294 13.1258C3.89772 13.1791 3.66687 13.2776 3.39496 13.2316C3.08674 13.1794 2.82065 12.9861 2.67577 12.7091C2.54796 12.4647 2.57033 12.2147 2.58545 12.0886C2.60181 11.9523 2.63677 11.7876 2.67172 11.623L3.28731 8.72064L1.10136 6.75067C1.09535 6.74526 1.08934 6.73985 1.08333 6.73443C0.958308 6.6218 0.833199 6.50909 0.739827 6.4084C0.653493 6.3153 0.488452 6.1262 0.448212 5.85336C0.402599 5.5441 0.504234 5.2313 0.722915 5.00791C0.915839 4.81084 1.16051 4.75486 1.28508 4.73028C1.4198 4.7037 1.58726 4.68606 1.75461 4.66843C1.76266 4.66758 1.77071 4.66673 1.77875 4.66588L4.70514 4.35702L5.90319 1.6693C5.90648 1.66192 5.90977 1.65453 5.91306 1.64713C5.98155 1.49343 6.05008 1.33961 6.11699 1.2197C6.17885 1.10882 6.3077 0.893418 6.55475 0.770837Z" fill="#107E3E"/>
</svg>
