<svg width="14" height="14" viewBox="0 0 14 14" fill="none" xmlns="http://www.w3.org/2000/svg">
<path fill-rule="evenodd" clip-rule="evenodd" d="M6.55475 0.770837C6.83478 0.631889 7.16368 0.631889 7.44371 0.770837C7.69075 0.893418 7.8196 1.10882 7.88147 1.2197C7.94838 1.33962 8.01691 1.49343 8.0854 1.64715C8.08869 1.65454 8.09198 1.66192 8.09527 1.6693L9.29332 4.35702L12.2438 4.66843C12.4112 4.68606 12.5787 4.7037 12.7134 4.73028C12.8379 4.75486 13.0826 4.81084 13.2755 5.00791C13.4942 5.2313 13.5959 5.5441 13.5502 5.85336C13.51 6.1262 13.345 6.3153 13.2586 6.4084C13.1653 6.50909 13.0402 6.62179 12.9151 6.73442L10.7111 8.72064L11.3267 11.623C11.3617 11.7876 11.3966 11.9523 11.413 12.0886C11.4281 12.2147 11.4505 12.4647 11.3227 12.7091C11.1778 12.9861 10.9117 13.1794 10.6035 13.2316C10.3316 13.2776 10.1007 13.1791 9.98551 13.1258C9.8609 13.0681 9.71506 12.9839 9.56932 12.8999L6.99923 11.4175L4.42913 12.8999C4.28339 12.984 4.13755 13.0681 4.01294 13.1258C3.89772 13.1791 3.66687 13.2776 3.39496 13.2316C3.08674 13.1794 2.82065 12.9861 2.67577 12.7091C2.54796 12.4647 2.57033 12.2147 2.58545 12.0886C2.60181 11.9523 2.63677 11.7876 2.67172 11.623L3.28731 8.72064L1.10136 6.75067C1.09535 6.74526 1.08934 6.73985 1.08333 6.73443C0.958308 6.6218 0.833199 6.50909 0.739827 6.4084C0.653493 6.3153 0.488452 6.1262 0.448212 5.85336C0.402599 5.5441 0.504234 5.2313 0.722915 5.00791C0.915839 4.81084 1.16051 4.75486 1.28508 4.73028C1.4198 4.7037 1.58726 4.68606 1.75461 4.66843C1.76266 4.66758 1.77071 4.66673 1.77875 4.66588L4.70514 4.35702L5.90319 1.6693C5.90648 1.66192 5.90977 1.65453 5.91306 1.64713C5.98155 1.49343 6.05008 1.33961 6.11699 1.2197C6.17885 1.10882 6.3077 0.893418 6.55475 0.770837ZM6.99923 2.48536L5.89165 4.9701C5.88908 4.97586 5.88617 4.98258 5.88288 4.99013C5.85119 5.06305 5.7855 5.21418 5.67435 5.33759C5.58064 5.44163 5.46612 5.52483 5.33821 5.5818C5.1865 5.64938 5.02247 5.66515 4.94332 5.67276C4.93512 5.67355 4.92783 5.67425 4.92156 5.67491L2.21617 5.96045L4.23704 7.78165C4.24173 7.78587 4.24721 7.79072 4.25338 7.79618C4.31293 7.84885 4.43637 7.95803 4.51939 8.10188C4.58938 8.22315 4.63312 8.35777 4.64778 8.49702C4.66517 8.6622 4.62948 8.82307 4.61226 8.90069C4.61048 8.90874 4.60889 8.91589 4.60758 8.92206L4.04314 11.5833L6.39968 10.2241C6.40514 10.2209 6.41145 10.2172 6.41855 10.213C6.48705 10.1727 6.62903 10.089 6.79149 10.0545C6.92845 10.0254 7.07 10.0254 7.20697 10.0545C7.36943 10.089 7.5114 10.1727 7.57991 10.213C7.587 10.2172 7.59331 10.2209 7.59877 10.2241L9.95532 11.5833L9.39087 8.92206C9.38956 8.91589 9.38798 8.90874 9.38619 8.9007C9.36897 8.82308 9.33328 8.6622 9.35067 8.49702C9.36533 8.35777 9.40907 8.22315 9.47906 8.10188C9.56208 7.95803 9.68552 7.84885 9.74507 7.79618C9.75124 7.79072 9.75673 7.78587 9.76141 7.78165L11.7823 5.96045L9.07689 5.67491C9.07062 5.67425 9.06333 5.67355 9.05513 5.67276C8.97599 5.66515 8.81195 5.64938 8.66024 5.5818C8.53234 5.52483 8.41782 5.44163 8.32411 5.33759C8.21295 5.21418 8.14727 5.06305 8.11557 4.99013C8.11229 4.98258 8.10937 4.97586 8.1068 4.9701L6.99923 2.48536Z" fill="#107E3E"/>
</svg>
