<svg width="24" height="24" viewBox="0 0 24 24" fill="none" xmlns="http://www.w3.org/2000/svg">
<path fill-rule="evenodd" clip-rule="evenodd" d="M11 4C9.34315 4 8 5.34315 8 7C8 8.65685 9.34315 10 11 10C12.6569 10 14 8.65685 14 7C14 5.34315 12.6569 4 11 4ZM6 7C6 4.23858 8.23858 2 11 2C13.7614 2 16 4.23858 16 7C16 9.76142 13.7614 12 11 12C8.23858 12 6 9.76142 6 7ZM5.08296 20C5.55904 17.1623 8.027 15 11 15C11.5974 15 12.1726 15.087 12.7148 15.2483C13.2441 15.4059 13.8009 15.1045 13.9585 14.5751C14.116 14.0458 13.8146 13.489 13.2852 13.3314C12.5599 13.1156 11.7926 13 11 13C6.58172 13 3 16.5817 3 21C3 21.5523 3.44772 22 4 22H11C11.5523 22 12 21.5523 12 21C12 20.4477 11.5523 20 11 20H5.08296ZM17 14C17.5523 14 18 14.4477 18 15V17L20 17C20.5523 17 21 17.4477 21 18C21 18.5523 20.5523 19 20 19L18 19V21C18 21.5523 17.5523 22 17 22C16.4477 22 16 21.5523 16 21V19L14 19C13.4477 19 13 18.5523 13 18C13 17.4477 13.4477 17 14 17L16 17V15C16 14.4477 16.4477 14 17 14Z" fill="#101717"/>
</svg>
